<?xml version="1.0" encoding="UTF-8"?><svg id="Layer_2" xmlns="http://www.w3.org/2000/svg" viewBox="0 0 210.64 225.2"><defs><style>.cls-1{fill:#fff;font-family:Arial-BoldMT, Arial;font-size:73.6px;font-weight:700;}.cls-2{fill:#038700;}.cls-3{stroke:#000;stroke-width:10px;}.cls-3,.cls-4{fill:none;stroke-linecap:round;stroke-linejoin:round;}.cls-4{stroke:#646464;stroke-width:4px;}</style></defs><g id="Layer_1-2"><line class="cls-4" x1="36.43" y1="146.46" x2="36.43" y2="29.33"/><line class="cls-4" x1="36.43" y1="39.09" x2="116.81" y2="39.09"/><line class="cls-4" x1="36.43" y1="48.85" x2="116.81" y2="48.85"/><line class="cls-4" x1="36.43" y1="58.61" x2="117.09" y2="58.61"/><line class="cls-4" x1="36.43" y1="68.37" x2="142.89" y2="68.37"/><line class="cls-4" x1="36.43" y1="78.14" x2="142.89" y2="78.14"/><line class="cls-4" x1="36.43" y1="87.9" x2="142.89" y2="87.9"/><line class="cls-4" x1="36.43" y1="97.66" x2="142.89" y2="97.66"/><line class="cls-4" x1="36.43" y1="107.42" x2="142.89" y2="107.42"/><line class="cls-4" x1="36.43" y1="117.18" x2="142.89" y2="117.18"/><line class="cls-4" x1="36.43" y1="126.94" x2="142.89" y2="126.94"/><line class="cls-4" x1="36.43" y1="136.7" x2="142.89" y2="136.7"/><line class="cls-4" x1="62.81" y1="29.33" x2="62.81" y2="146.46"/><line class="cls-4" x1="89.66" y1="29.33" x2="89.66" y2="146.46"/><line class="cls-4" x1="116.81" y1="29.33" x2="116.81" y2="146.46"/><line class="cls-4" x1="142.89" y1="146.46" x2="142.89" y2="62.22"/><line class="cls-4" x1="36.43" y1="29.33" x2="116.81" y2="29.33"/><line class="cls-4" x1="142.89" y1="146.46" x2="36.43" y2="146.46"/><g><path class="cls-3" d="M163.23,220.2H16.09c-6.12,0-11.09-4.96-11.09-11.09V16.09c0-6.12,4.96-11.09,11.09-11.09H117.09c57.22,57.22,2.54,2.54,57.22,57.22V209.11c0,6.12-4.96,11.09-11.09,11.09Z"/><polyline class="cls-3" points="174.31 62.22 117.09 62.22 117.09 5"/><line class="cls-3" x1="117.09" y1="5" x2="174.31" y2="62.22"/></g><rect class="cls-2" x="28.12" y="104.66" width="182.52" height="86.96" rx="13.98" ry="13.98"/><text class="cls-1" transform="translate(43.71 174.17)"><tspan x="0" y="0">CSV</tspan></text></g></svg>