<?xml version="1.0" encoding="UTF-8"?><svg id="Layer_2" xmlns="http://www.w3.org/2000/svg" viewBox="0 0 210.64 225.2"><defs><style>.cls-1{fill:#fff;font-family:Arial-BoldMT, Arial;font-size:49.21px;font-weight:700;}.cls-2{fill:#be8000;}.cls-3{stroke:#000;stroke-width:10px;}.cls-3,.cls-4{fill:none;stroke-linecap:round;stroke-linejoin:round;}.cls-5{letter-spacing:-.04em;}.cls-6{letter-spacing:-.07em;}.cls-7{letter-spacing:-.06em;}.cls-4{stroke:#646464;stroke-width:4px;}</style></defs><g id="Layer_1-2"><line class="cls-4" x1="36.43" y1="53.87" x2="117.09" y2="53.87"/><line class="cls-4" x1="51.63" y1="33.61" x2="88.58" y2="33.61"/><line class="cls-4" x1="36.43" y1="43.74" x2="117.09" y2="43.74"/><line class="cls-4" x1="36.43" y1="64" x2="142.89" y2="64"/><line class="cls-4" x1="36.43" y1="74.14" x2="142.89" y2="74.14"/><line class="cls-4" x1="37.2" y1="37.51" x2="44.89" y2="33.82"/><line class="cls-4" x1="37.2" y1="29.82" x2="44.89" y2="33.51"/><line class="cls-4" x1="36.43" y1="106.23" x2="142.89" y2="106.23"/><line class="cls-4" x1="51.63" y1="85.97" x2="88.58" y2="85.97"/><line class="cls-4" x1="36.43" y1="96.1" x2="142.89" y2="96.1"/><line class="cls-4" x1="37.2" y1="89.87" x2="44.89" y2="86.18"/><line class="cls-4" x1="37.2" y1="82.18" x2="44.89" y2="85.87"/><line class="cls-4" x1="36.43" y1="107.42" x2="142.89" y2="107.42"/><line class="cls-4" x1="36.43" y1="117.18" x2="142.89" y2="117.18"/><line class="cls-4" x1="36.43" y1="126.94" x2="142.89" y2="126.94"/><line class="cls-4" x1="36.43" y1="136.7" x2="142.89" y2="136.7"/><line class="cls-4" x1="142.89" y1="146.46" x2="36.43" y2="146.46"/><g><path class="cls-3" d="m163.23,220.2H16.09c-6.12,0-11.09-4.96-11.09-11.09V16.09c0-6.12,4.96-11.09,11.09-11.09h101.01c57.22,57.22,2.54,2.54,57.22,57.22v146.89c0,6.12-4.96,11.09-11.09,11.09Z"/><polyline class="cls-3" points="174.31 62.22 117.09 62.22 117.09 5"/><line class="cls-3" x1="117.09" y1="5" x2="174.31" y2="62.22"/></g><rect class="cls-2" x="28.12" y="104.66" width="182.52" height="86.96" rx="13.98" ry="13.98"/><text class="cls-1" transform="translate(40.66 163.99)"><tspan class="cls-7" x="0" y="0">F</tspan><tspan x="27.35" y="0">AS</tspan><tspan class="cls-6" x="95.71" y="0">T</tspan><tspan class="cls-5" x="122.12" y="0">A</tspan></text></g></svg>