<?xml version="1.0" encoding="UTF-8"?><svg id="Layer_2" xmlns="http://www.w3.org/2000/svg" viewBox="0 0 210.64 225.2"><defs><style>.cls-1{fill:#fff;font-family:Arial-BoldMT, Arial;font-size:73.6px;font-weight:700;}.cls-2{fill:#e8293a;}.cls-3{stroke:#000;stroke-width:10px;}.cls-3,.cls-4{fill:none;stroke-linecap:round;stroke-linejoin:round;}.cls-4{stroke:#646464;stroke-width:4px;}</style></defs><g id="Layer_1-2"><path class="cls-4" d="M23.34,44.32l37.84,38.96c12.56-12.56,25.13-25.13,37.69-37.69"/><line class="cls-4" x1="39.26" y1="60.72" x2="55.67" y2="44.31"/><line class="cls-4" x1="69.65" y1="44.32" x2="84.9" y2="59.57"/><line class="cls-4" x1="61.18" y1="83.29" x2="98.87" y2="120.98"/><line class="cls-4" x1="77.27" y1="97.21" x2="118.53" y2="55.95"/><line class="cls-4" x1="89.66" y1="112.6" x2="140.4" y2="61.86"/><g><path class="cls-3" d="M163.23,220.2H16.09c-6.12,0-11.09-4.96-11.09-11.09V16.09c0-6.12,4.96-11.09,11.09-11.09H117.09c57.22,57.22,2.54,2.54,57.22,57.22V209.11c0,6.12-4.96,11.09-11.09,11.09Z"/><polyline class="cls-3" points="174.31 62.22 117.09 62.22 117.09 5"/><line class="cls-3" x1="117.09" y1="5" x2="174.31" y2="62.22"/></g><rect class="cls-2" x="28.12" y="104.66" width="182.52" height="86.96" rx="13.98" ry="13.98"/><text class="cls-1" transform="translate(45.78 174.86)"><tspan x="0" y="0">PDF</tspan></text></g></svg>