<?xml version="1.0" encoding="UTF-8"?><svg id="Layer_1" xmlns="http://www.w3.org/2000/svg" viewBox="0 0 319.23 280.48"><defs><style>.cls-1{stroke-linecap:round;stroke-width:1.5px;}.cls-1,.cls-2{fill:none;stroke:#000;stroke-miterlimit:10;}.cls-3,.cls-4{font-family:Helvetica, Helvetica;font-size:11.25px;}.cls-4{fill:#262626;}.cls-2{stroke-width:1.05px;}</style></defs><g><polyline class="cls-1" points=".75 94.39 .75 28.92 49.5 28.92"/><polyline class="cls-1" points=".75 94.39 .75 159.94 49.5 159.94"/><polyline class="cls-1" points="49.5 28.92 49.5 50.97 61.05 50.97"/><polyline class="cls-1" points="49.5 159.94 49.5 134.29 59.62 134.29"/><polyline class="cls-1" points="49.5 159.94 49.5 185.67 56.1 185.67"/><polyline class="cls-1" points="61.05 50.97 61.05 31.47 81.97 31.47"/><polyline class="cls-1" points="61.05 50.97 61.05 70.54 72.45 70.54"/><polyline class="cls-1" points="59.62 134.29 59.62 146.59 101.85 146.59"/><polyline class="cls-1" points="56.1 185.67 56.1 200.07 61.72 200.07"/><polyline class="cls-1" points="72.45 70.54 72.45 84.94 77.25 84.94"/><polyline class="cls-1" points="61.72 200.07 61.72 212.37 72 212.37"/><polyline class="cls-1" points="77.25 84.94 77.25 97.24 85.87 97.24"/><polyline class="cls-1" points="49.5 28.92 49.5 6.79 90.97 6.79"/><polyline class="cls-1" points="81.97 31.47 81.97 23.22 131.18 23.22"/><polyline class="cls-1" points="81.97 31.47 81.97 39.72 129 39.72"/><polyline class="cls-1" points="72.45 70.54 72.45 56.14 116.7 56.14"/><polyline class="cls-1" points="77.25 84.94 77.25 72.57 108.97 72.57"/><polyline class="cls-1" points="85.87 97.24 85.87 89.07 128.25 89.07"/><polyline class="cls-1" points="85.87 97.24 85.87 105.49 132.9 105.49"/><polyline class="cls-1" points="59.62 134.29 59.62 121.92 123.75 121.92"/><polyline class="cls-1" points="101.85 146.59 101.85 138.34 195.6 138.34"/><polyline class="cls-1" points="101.85 146.59 101.85 154.84 185.4 154.84"/><polyline class="cls-1" points="56.1 185.67 56.1 171.27 129.83 171.27"/><polyline class="cls-1" points="61.72 200.07 61.72 187.69 143.33 187.69"/><polyline class="cls-1" points="72 212.37 72 204.19 115.12 204.19"/><polyline class="cls-1" points="72 212.37 72 220.62 139.43 220.62"/><text class="cls-4" transform="translate(150.68 223.5)"><tspan x="0" y="0">Xenopus laevis|LY96</tspan></text><text class="cls-4" transform="translate(126.36 207.05)"><tspan x="0" y="0">Microcaecilia unicolor|LY96</tspan></text><text class="cls-4" transform="translate(154.61 190.6)"><tspan x="0" y="0">Homo sapiens|LY96</tspan></text><text class="cls-4" transform="translate(141.08 174.16)"><tspan x="0" y="0">Protopterus annectens|LY96</tspan></text><text class="cls-4" transform="translate(196.64 157.7)"><tspan x="0" y="0">Danio rerio|LY96</tspan></text><text class="cls-4" transform="translate(206.86 141.25)"><tspan x="0" y="0">Albula goreensis|LY96</tspan></text><text class="cls-4" transform="translate(134.98 124.81)"><tspan x="0" y="0">Gallus gallus|LY96</tspan></text><text class="cls-4" transform="translate(144.14 108.35)"><tspan x="0" y="0">Gallus gallus|LY86</tspan></text><text class="cls-4" transform="translate(139.52 91.9)"><tspan x="0" y="0">Homo sapiens|LY86</tspan></text><text class="cls-4" transform="translate(120.19 75.46)"><tspan x="0" y="0">Microcaecilia unicolor|LY86</tspan></text><text class="cls-4" transform="translate(127.93 59)"><tspan x="0" y="0">Protopterus annectens|LY86</tspan></text><text class="cls-4" transform="translate(140.26 42.55)"><tspan x="0" y="0">Danio rerio|LY86</tspan></text><text class="cls-4" transform="translate(142.42 26.11)"><tspan x="0" y="0">Albula goreensis|LY86</tspan></text><text class="cls-4" transform="translate(102.23 9.66)"><tspan x="0" y="0">Xenopus laevis|LY86</tspan></text></g><g><line class="cls-2" x1="18.02" y1="264.67" x2="75.43" y2="264.67"/><line class="cls-2" x1="18.02" y1="266.55" x2="18.02" y2="262.8"/><line class="cls-2" x1="75.43" y1="266.55" x2="75.43" y2="262.8"/><text class="cls-3" transform="translate(19.84 275.06)"><tspan x="0" y="0">1 subs/site</tspan></text></g></svg>