<?xml version="1.0" encoding="UTF-8"?><svg id="Layer_1" xmlns="http://www.w3.org/2000/svg" viewBox="0 0 325.48 280.48"><defs><style>.cls-1{stroke-linecap:round;stroke-width:1.5px;}.cls-1,.cls-2,.cls-3{fill:none;stroke:#000;stroke-miterlimit:10;}.cls-2{stroke-width:.56px;}.cls-4,.cls-5,.cls-6{font-size:11.25px;}.cls-4,.cls-7,.cls-8,.cls-6,.cls-9{font-family:Helvetica, Helvetica;}.cls-5{font-family:Symbol, Symbol;}.cls-7{fill:#023e55;font-size:8.44px;}.cls-8,.cls-9{font-size:5.62px;}.cls-6{fill:#262626;}.cls-3{stroke-width:1.05px;}.cls-9,.cls-10{fill:#fff;}.cls-11{fill:#f8e7d3;}.cls-11,.cls-12,.cls-13,.cls-14,.cls-15,.cls-16,.cls-17,.cls-18,.cls-10,.cls-19,.cls-20{fill-rule:evenodd;}.cls-12{fill:#f3d2ad;}.cls-13{fill:#f3d3af;}.cls-14{fill:#64007f;}.cls-15{fill:#dc801a;}.cls-16{fill:#fdf7f1;}.cls-17{fill:#fdf8f2;}.cls-18{fill:#f0caa0;}.cls-19{fill:#fbf2e7;}.cls-20{fill:#faeee0;}</style></defs><g><polyline class="cls-1" points="7 95.22 7 37.62 89.65 37.62"/><polyline class="cls-1" points="7 95.22 7 152.74 89.65 152.74"/><polyline class="cls-1" points="89.65 37.62 89.65 15.04 111.7 15.04"/><line class="cls-1" x1="89.65" y1="37.62" x2="89.65" y2="60.27"/><polyline class="cls-1" points="89.65 152.74 89.65 130.17 128.12 130.17"/><polyline class="cls-1" points="89.65 152.74 89.65 175.39 92.35 175.39"/><polyline class="cls-1" points="89.65 60.27 89.65 80.82 95.2 80.82"/><polyline class="cls-1" points="92.35 175.39 92.35 195.94 96.85 195.94"/><polyline class="cls-1" points="95.2 80.82 95.2 64.39 99.7 64.39"/><polyline class="cls-1" points="95.2 80.82 95.2 97.24 101.65 97.24"/><polyline class="cls-1" points="96.85 195.94 96.85 179.52 105.47 179.52"/><polyline class="cls-1" points="96.85 195.94 96.85 212.37 102.85 212.37"/><polyline class="cls-1" points="111.7 15.04 111.7 6.79 151.97 6.79"/><polyline class="cls-1" points="111.7 15.04 111.7 23.22 146.87 23.22"/><polyline class="cls-1" points="89.65 60.27 89.65 39.72 123.55 39.72"/><polyline class="cls-1" points="99.7 64.39 99.7 56.14 145.6 56.14"/><polyline class="cls-1" points="99.7 64.39 99.7 72.57 122.87 72.57"/><polyline class="cls-1" points="101.65 97.24 101.65 89.07 135.25 89.07"/><polyline class="cls-1" points="101.65 97.24 101.65 105.49 138.4 105.49"/><polyline class="cls-1" points="128.12 130.17 128.12 121.92 201.85 121.92"/><polyline class="cls-1" points="128.12 130.17 128.12 138.34 194.57 138.34"/><polyline class="cls-1" points="92.35 175.39 92.35 154.84 152.72 154.84"/><polyline class="cls-1" points="105.47 179.52 105.47 171.27 140.35 171.27"/><polyline class="cls-1" points="105.47 179.52 105.47 187.69 158.35 187.69"/><polyline class="cls-1" points="102.85 212.37 102.85 204.19 165.55 204.19"/><polyline class="cls-1" points="102.85 212.37 102.85 220.62 157.07 220.62"/><text class="cls-6" transform="translate(168.31 223.5)"><tspan x="0" y="0">Gallus gallus|LY96</tspan></text><text class="cls-6" transform="translate(176.8 207.05)"><tspan x="0" y="0">Homo sapiens|LY96</tspan></text><text class="cls-6" transform="translate(169.59 190.6)"><tspan x="0" y="0">Xenopus laevis|LY96</tspan></text><text class="cls-6" transform="translate(151.59 174.16)"><tspan x="0" y="0">Microcaecilia unicolor|LY96</tspan></text><text class="cls-6" transform="translate(163.97 157.7)"><tspan x="0" y="0">Protopterus annectens|LY96</tspan></text><text class="cls-6" transform="translate(205.83 141.25)"><tspan x="0" y="0">Danio rerio|LY96</tspan></text><text class="cls-6" transform="translate(213.1 124.81)"><tspan x="0" y="0">Albula goreensis|LY96</tspan></text><text class="cls-6" transform="translate(149.67 108.35)"><tspan x="0" y="0">Gallus gallus|LY86</tspan></text><text class="cls-6" transform="translate(146.47 91.9)"><tspan x="0" y="0">Homo sapiens|LY86</tspan></text><text class="cls-6" transform="translate(134.09 75.46)"><tspan x="0" y="0">Microcaecilia unicolor|LY86</tspan></text><text class="cls-6" transform="translate(156.87 59)"><tspan x="0" y="0">Xenopus laevis|LY86</tspan></text><text class="cls-6" transform="translate(134.83 42.55)"><tspan x="0" y="0">Protopterus annectens|LY86</tspan></text><text class="cls-6" transform="translate(158.11 26.11)"><tspan x="0" y="0">Danio rerio|LY86</tspan></text><text class="cls-6" transform="translate(163.26 9.66)"><tspan x="0" y="0">Albula goreensis|LY86</tspan></text><path class="cls-14" d="m13.78,95.2c0,3.73-3.02,6.75-6.75,6.75s-6.75-3.02-6.75-6.75,3.02-6.75,6.75-6.75,6.75,3.02,6.75,6.75"/><path class="cls-2" d="m13.78,95.2c0,3.73-3.02,6.75-6.75,6.75s-6.75-3.02-6.75-6.75,3.02-6.75,6.75-6.75,6.75,3.02,6.75,6.75"/><path class="cls-13" d="m94.17,37.63c0,2.49-2.01,4.5-4.5,4.5s-4.5-2.01-4.5-4.5,2.01-4.5,4.5-4.5,4.5,2.01,4.5,4.5"/><path class="cls-2" d="m94.17,37.63c0,2.49-2.01,4.5-4.5,4.5s-4.5-2.01-4.5-4.5,2.01-4.5,4.5-4.5,4.5,2.01,4.5,4.5"/><path class="cls-10" d="m94.17,152.78c0,2.49-2.01,4.5-4.5,4.5s-4.5-2.01-4.5-4.5,2.01-4.5,4.5-4.5,4.5,2.01,4.5,4.5"/><path class="cls-2" d="m94.17,152.78c0,2.49-2.01,4.5-4.5,4.5s-4.5-2.01-4.5-4.5,2.01-4.5,4.5-4.5,4.5,2.01,4.5,4.5"/><path class="cls-11" d="m116.22,15.01c0,2.49-2.01,4.5-4.5,4.5s-4.5-2.01-4.5-4.5,2.01-4.5,4.5-4.5,4.5,2.01,4.5,4.5"/><path class="cls-2" d="m116.22,15.01c0,2.49-2.01,4.5-4.5,4.5s-4.5-2.01-4.5-4.5,2.01-4.5,4.5-4.5,4.5,2.01,4.5,4.5"/><path class="cls-13" d="m94.17,60.25c0,2.49-2.01,4.5-4.5,4.5s-4.5-2.01-4.5-4.5,2.01-4.5,4.5-4.5,4.5,2.01,4.5,4.5"/><path class="cls-2" d="m94.17,60.25c0,2.49-2.01,4.5-4.5,4.5s-4.5-2.01-4.5-4.5,2.01-4.5,4.5-4.5,4.5,2.01,4.5,4.5"/><path class="cls-10" d="m132.59,130.16c0,2.49-2.01,4.5-4.5,4.5s-4.5-2.01-4.5-4.5,2.01-4.5,4.5-4.5,4.5,2.01,4.5,4.5"/><path class="cls-2" d="m132.59,130.16c0,2.49-2.01,4.5-4.5,4.5s-4.5-2.01-4.5-4.5,2.01-4.5,4.5-4.5,4.5,2.01,4.5,4.5"/><path class="cls-16" d="m96.86,175.39c0,2.49-2.01,4.5-4.5,4.5s-4.5-2.01-4.5-4.5,2.01-4.5,4.5-4.5,4.5,2.01,4.5,4.5"/><path class="cls-2" d="m96.86,175.39c0,2.49-2.01,4.5-4.5,4.5s-4.5-2.01-4.5-4.5,2.01-4.5,4.5-4.5,4.5,2.01,4.5,4.5"/><path class="cls-18" d="m99.72,80.81c0,2.49-2.01,4.5-4.5,4.5s-4.5-2.01-4.5-4.5,2.01-4.5,4.5-4.5,4.5,2.01,4.5,4.5"/><path class="cls-2" d="m99.72,80.81c0,2.49-2.01,4.5-4.5,4.5s-4.5-2.01-4.5-4.5,2.01-4.5,4.5-4.5,4.5,2.01,4.5,4.5"/><path class="cls-19" d="m101.38,195.96c0,2.49-2.01,4.5-4.5,4.5s-4.5-2.01-4.5-4.5,2.01-4.5,4.5-4.5,4.5,2.01,4.5,4.5"/><path class="cls-2" d="m101.38,195.96c0,2.49-2.01,4.5-4.5,4.5s-4.5-2.01-4.5-4.5,2.01-4.5,4.5-4.5,4.5,2.01,4.5,4.5"/><path class="cls-18" d="m104.22,64.36c0,2.49-2.01,4.5-4.5,4.5s-4.5-2.01-4.5-4.5,2.01-4.5,4.5-4.5,4.5,2.01,4.5,4.5"/><path class="cls-2" d="m104.22,64.36c0,2.49-2.01,4.5-4.5,4.5s-4.5-2.01-4.5-4.5,2.01-4.5,4.5-4.5,4.5,2.01,4.5,4.5"/><path class="cls-12" d="m106.13,97.26c0,2.49-2.01,4.5-4.5,4.5s-4.5-2.01-4.5-4.5,2.01-4.5,4.5-4.5,4.5,2.01,4.5,4.5"/><path class="cls-2" d="m106.13,97.26c0,2.49-2.01,4.5-4.5,4.5s-4.5-2.01-4.5-4.5,2.01-4.5,4.5-4.5,4.5,2.01,4.5,4.5"/><path class="cls-20" d="m110,179.51c0,2.49-2.01,4.5-4.5,4.5s-4.5-2.01-4.5-4.5,2.01-4.5,4.5-4.5,4.5,2.01,4.5,4.5"/><path class="cls-2" d="m110,179.51c0,2.49-2.01,4.5-4.5,4.5s-4.5-2.01-4.5-4.5,2.01-4.5,4.5-4.5,4.5,2.01,4.5,4.5"/><path class="cls-17" d="m107.36,212.41c0,2.49-2.01,4.5-4.5,4.5s-4.5-2.01-4.5-4.5,2.01-4.5,4.5-4.5,4.5,2.01,4.5,4.5"/><path class="cls-2" d="m107.36,212.41c0,2.49-2.01,4.5-4.5,4.5s-4.5-2.01-4.5-4.5,2.01-4.5,4.5-4.5,4.5,2.01,4.5,4.5"/><text class="cls-7" transform="translate(98.67 39.78)"><tspan x="0" y="0">a12</tspan></text><text class="cls-7" transform="translate(98.67 154.93)"><tspan x="0" y="0">a6</tspan></text><text class="cls-7" transform="translate(120.72 17.17)"><tspan x="0" y="0">a7</tspan></text><text class="cls-7" transform="translate(98.67 62.4)"><tspan x="0" y="0">a11</tspan></text><text class="cls-7" transform="translate(137.09 132.31)"><tspan x="0" y="0">a5</tspan></text><text class="cls-7" transform="translate(101.35 177.55)"><tspan x="0" y="0">a4</tspan></text><text class="cls-7" transform="translate(104.22 82.96)"><tspan x="0" y="0">a10</tspan></text><text class="cls-7" transform="translate(105.88 198.11)"><tspan x="0" y="0">a3</tspan></text><text class="cls-7" transform="translate(108.72 66.51)"><tspan x="0" y="0">a8</tspan></text><text class="cls-7" transform="translate(110.63 99.41)"><tspan x="0" y="0">a9</tspan></text><text class="cls-7" transform="translate(114.5 181.66)"><tspan x="0" y="0">a1</tspan></text><text class="cls-7" transform="translate(111.86 214.56)"><tspan x="0" y="0">a2</tspan></text></g><g><line class="cls-3" x1="23.46" y1="264.67" x2="82.48" y2="264.67"/><line class="cls-3" x1="23.46" y1="266.55" x2="23.46" y2="262.8"/><line class="cls-3" x1="82.48" y1="266.55" x2="82.48" y2="262.8"/><text class="cls-4" transform="translate(21.39 275.06)"><tspan x="0" y="0">1.2 subs/site</tspan></text><path class="cls-14" d="m227.42,249.64c0,3.73-3.02,6.75-6.75,6.75s-6.75-3.02-6.75-6.75,3.02-6.75,6.75-6.75,6.75,3.02,6.75,6.75"/><path class="cls-2" d="m227.42,249.64c0,3.73-3.02,6.75-6.75,6.75s-6.75-3.02-6.75-6.75,3.02-6.75,6.75-6.75,6.75,3.02,6.75,6.75"/><text class="cls-9" transform="translate(218.64 251.08)"><tspan x="0" y="0">D</tspan></text><text class="cls-4" transform="translate(144.8 252.52)"><tspan x="0" y="0" xml:space="preserve">         events:</tspan></text><path class="cls-10" d="m227.42,268.43c0,3.73-3.02,6.75-6.75,6.75s-6.75-3.02-6.75-6.75,3.02-6.75,6.75-6.75,6.75,3.02,6.75,6.75"/><path class="cls-2" d="m227.42,268.43c0,3.73-3.02,6.75-6.75,6.75s-6.75-3.02-6.75-6.75,3.02-6.75,6.75-6.75,6.75,3.02,6.75,6.75"/><text class="cls-8" transform="translate(216.77 269.87)"><tspan x="0" y="0">0.7</tspan></text><text class="cls-5" transform="translate(229 271.31)"><tspan x="0" y="0">→</tspan></text><path class="cls-15" d="m255.19,268.43c0,3.73-3.02,6.75-6.75,6.75s-6.75-3.02-6.75-6.75,3.02-6.75,6.75-6.75,6.75,3.02,6.75,6.75"/><path class="cls-2" d="m255.19,268.43c0,3.73-3.02,6.75-6.75,6.75s-6.75-3.02-6.75-6.75,3.02-6.75,6.75-6.75,6.75,3.02,6.75,6.75"/><text class="cls-9" transform="translate(244.53 269.87)"><tspan x="0" y="0">1.0</tspan></text><text class="cls-4" transform="translate(131.67 271.31)"><tspan x="0" y="0">anc post. prob.:</tspan></text></g></svg>