<?xml version="1.0" encoding="UTF-8"?><svg id="Layer_1" xmlns="http://www.w3.org/2000/svg" viewBox="0 0 319.23 280.48"><defs><style>.cls-1{stroke-linecap:round;stroke-width:1.5px;}.cls-1,.cls-2,.cls-3{fill:none;stroke:#000;stroke-miterlimit:10;}.cls-2{stroke-width:.56px;}.cls-4,.cls-5,.cls-6{font-size:11.25px;}.cls-4,.cls-7,.cls-8,.cls-6,.cls-9{font-family:Helvetica, Helvetica;}.cls-5{font-family:Symbol, Symbol;}.cls-7{fill:#023e55;font-size:8.44px;}.cls-8,.cls-9{font-size:5.62px;}.cls-6{fill:#262626;}.cls-3{stroke-width:1.05px;}.cls-9,.cls-10{fill:#fff;}.cls-11{fill:#f8e7d4;}.cls-11,.cls-12,.cls-13,.cls-14,.cls-15,.cls-16,.cls-17,.cls-10,.cls-18,.cls-19,.cls-20,.cls-21,.cls-22,.cls-23{fill-rule:evenodd;}.cls-12{fill:#f3d2ae;}.cls-13{fill:#2e2e2e;}.cls-14{fill:#dc801a;}.cls-15{fill:#333;}.cls-16{fill:#f1cda4;}.cls-17{fill:#f0c89c;}.cls-18{fill:#f5dcc0;}.cls-19{fill:#fcf6ef;}.cls-20{fill:#fbf3e8;}.cls-21{fill:#faebdc;}.cls-22{fill:#faeee1;}</style></defs><g><polyline class="cls-1" points=".75 94.39 .75 28.92 49.58 28.92"/><polyline class="cls-1" points=".75 94.39 .75 159.94 49.58 159.94"/><polyline class="cls-1" points="49.58 28.92 49.58 50.97 60.97 50.97"/><polyline class="cls-1" points="49.58 159.94 49.58 134.29 59.4 134.29"/><polyline class="cls-1" points="49.58 159.94 49.58 185.67 56.17 185.67"/><polyline class="cls-1" points="60.97 50.97 60.97 31.47 81.97 31.47"/><polyline class="cls-1" points="60.97 50.97 60.97 70.54 72.37 70.54"/><polyline class="cls-1" points="59.4 134.29 59.4 146.59 101.7 146.59"/><polyline class="cls-1" points="56.17 185.67 56.17 200.07 61.95 200.07"/><polyline class="cls-1" points="72.37 70.54 72.37 84.94 77.1 84.94"/><polyline class="cls-1" points="61.95 200.07 61.95 212.37 72.15 212.37"/><polyline class="cls-1" points="77.1 84.94 77.1 97.24 85.8 97.24"/><polyline class="cls-1" points="49.58 28.92 49.58 6.79 91.35 6.79"/><polyline class="cls-1" points="81.97 31.47 81.97 23.22 131.25 23.22"/><polyline class="cls-1" points="81.97 31.47 81.97 39.72 129.08 39.72"/><polyline class="cls-1" points="72.37 70.54 72.37 56.14 116.62 56.14"/><polyline class="cls-1" points="77.1 84.94 77.1 72.57 108.83 72.57"/><polyline class="cls-1" points="85.8 97.24 85.8 89.07 128.25 89.07"/><polyline class="cls-1" points="85.8 97.24 85.8 105.49 132.9 105.49"/><polyline class="cls-1" points="59.4 134.29 59.4 121.92 123.75 121.92"/><polyline class="cls-1" points="101.7 146.59 101.7 138.34 195.6 138.34"/><polyline class="cls-1" points="101.7 146.59 101.7 154.84 185.32 154.84"/><polyline class="cls-1" points="56.17 185.67 56.17 171.27 129.97 171.27"/><polyline class="cls-1" points="61.95 200.07 61.95 187.69 143.7 187.69"/><polyline class="cls-1" points="72.15 212.37 72.15 204.19 115.35 204.19"/><polyline class="cls-1" points="72.15 212.37 72.15 220.62 139.72 220.62"/><text class="cls-6" transform="translate(150.95 223.5)"><tspan x="0" y="0">Xenopus laevis|LY96</tspan></text><text class="cls-6" transform="translate(126.61 207.05)"><tspan x="0" y="0">Microcaecilia unicolor|LY96</tspan></text><text class="cls-6" transform="translate(154.93 190.6)"><tspan x="0" y="0">Homo sapiens|LY96</tspan></text><text class="cls-6" transform="translate(141.21 174.16)"><tspan x="0" y="0">Protopterus annectens|LY96</tspan></text><text class="cls-6" transform="translate(196.58 157.7)"><tspan x="0" y="0">Danio rerio|LY96</tspan></text><text class="cls-6" transform="translate(206.86 141.25)"><tspan x="0" y="0">Albula goreensis|LY96</tspan></text><text class="cls-6" transform="translate(134.98 124.81)"><tspan x="0" y="0">Gallus gallus|LY96</tspan></text><text class="cls-6" transform="translate(144.11 108.35)"><tspan x="0" y="0">Gallus gallus|LY86</tspan></text><text class="cls-6" transform="translate(139.48 91.9)"><tspan x="0" y="0">Homo sapiens|LY86</tspan></text><text class="cls-6" transform="translate(120.11 75.46)"><tspan x="0" y="0">Microcaecilia unicolor|LY86</tspan></text><text class="cls-6" transform="translate(127.88 59)"><tspan x="0" y="0">Protopterus annectens|LY86</tspan></text><text class="cls-6" transform="translate(140.3 42.55)"><tspan x="0" y="0">Danio rerio|LY86</tspan></text><text class="cls-6" transform="translate(142.5 26.11)"><tspan x="0" y="0">Albula goreensis|LY86</tspan></text><text class="cls-6" transform="translate(102.62 9.66)"><tspan x="0" y="0">Xenopus laevis|LY86</tspan></text><path class="cls-23" d="m54.06,28.89c0,2.49-2.01,4.5-4.5,4.5s-4.5-2.01-4.5-4.5,2.01-4.5,4.5-4.5,4.5,2.01,4.5,4.5"/><path class="cls-2" d="m54.06,28.89c0,2.49-2.01,4.5-4.5,4.5s-4.5-2.01-4.5-4.5,2.01-4.5,4.5-4.5,4.5,2.01,4.5,4.5"/><path class="cls-23" d="m54.06,159.97c0,2.49-2.01,4.5-4.5,4.5s-4.5-2.01-4.5-4.5,2.01-4.5,4.5-4.5,4.5,2.01,4.5,4.5"/><path class="cls-2" d="m54.06,159.97c0,2.49-2.01,4.5-4.5,4.5s-4.5-2.01-4.5-4.5,2.01-4.5,4.5-4.5,4.5,2.01,4.5,4.5"/><path class="cls-10" d="m65.47,50.99c0,2.49-2.01,4.5-4.5,4.5s-4.5-2.01-4.5-4.5,2.01-4.5,4.5-4.5,4.5,2.01,4.5,4.5"/><path class="cls-2" d="m65.47,50.99c0,2.49-2.01,4.5-4.5,4.5s-4.5-2.01-4.5-4.5,2.01-4.5,4.5-4.5,4.5,2.01,4.5,4.5"/><path class="cls-10" d="m63.92,134.27c0,2.49-2.01,4.5-4.5,4.5s-4.5-2.01-4.5-4.5,2.01-4.5,4.5-4.5,4.5,2.01,4.5,4.5"/><path class="cls-2" d="m63.92,134.27c0,2.49-2.01,4.5-4.5,4.5s-4.5-2.01-4.5-4.5,2.01-4.5,4.5-4.5,4.5,2.01,4.5,4.5"/><path class="cls-10" d="m60.71,185.67c0,2.49-2.01,4.5-4.5,4.5s-4.5-2.01-4.5-4.5,2.01-4.5,4.5-4.5,4.5,2.01,4.5,4.5"/><path class="cls-2" d="m60.71,185.67c0,2.49-2.01,4.5-4.5,4.5s-4.5-2.01-4.5-4.5,2.01-4.5,4.5-4.5,4.5,2.01,4.5,4.5"/><path class="cls-13" d="m86.46,31.46c0,2.49-2.01,4.5-4.5,4.5s-4.5-2.01-4.5-4.5,2.01-4.5,4.5-4.5,4.5,2.01,4.5,4.5"/><path class="cls-2" d="m86.46,31.46c0,2.49-2.01,4.5-4.5,4.5s-4.5-2.01-4.5-4.5,2.01-4.5,4.5-4.5,4.5,2.01,4.5,4.5"/><path class="cls-10" d="m76.85,70.53c0,2.49-2.01,4.5-4.5,4.5s-4.5-2.01-4.5-4.5,2.01-4.5,4.5-4.5,4.5,2.01,4.5,4.5"/><path class="cls-2" d="m76.85,70.53c0,2.49-2.01,4.5-4.5,4.5s-4.5-2.01-4.5-4.5,2.01-4.5,4.5-4.5,4.5,2.01,4.5,4.5"/><path class="cls-15" d="m106.17,146.61c0,2.49-2.01,4.5-4.5,4.5s-4.5-2.01-4.5-4.5,2.01-4.5,4.5-4.5,4.5,2.01,4.5,4.5"/><path class="cls-2" d="m106.17,146.61c0,2.49-2.01,4.5-4.5,4.5s-4.5-2.01-4.5-4.5,2.01-4.5,4.5-4.5,4.5,2.01,4.5,4.5"/><path class="cls-10" d="m66.47,200.07c0,2.49-2.01,4.5-4.5,4.5s-4.5-2.01-4.5-4.5,2.01-4.5,4.5-4.5,4.5,2.01,4.5,4.5"/><path class="cls-2" d="m66.47,200.07c0,2.49-2.01,4.5-4.5,4.5s-4.5-2.01-4.5-4.5,2.01-4.5,4.5-4.5,4.5,2.01,4.5,4.5"/><path class="cls-10" d="m81.62,84.92c0,2.49-2.01,4.5-4.5,4.5s-4.5-2.01-4.5-4.5,2.01-4.5,4.5-4.5,4.5,2.01,4.5,4.5"/><path class="cls-2" d="m81.62,84.92c0,2.49-2.01,4.5-4.5,4.5s-4.5-2.01-4.5-4.5,2.01-4.5,4.5-4.5,4.5,2.01,4.5,4.5"/><path class="cls-10" d="m76.68,212.41c0,2.49-2.01,4.5-4.5,4.5s-4.5-2.01-4.5-4.5,2.01-4.5,4.5-4.5,4.5,2.01,4.5,4.5"/><path class="cls-2" d="m76.68,212.41c0,2.49-2.01,4.5-4.5,4.5s-4.5-2.01-4.5-4.5,2.01-4.5,4.5-4.5,4.5,2.01,4.5,4.5"/><path class="cls-10" d="m90.34,97.26c0,2.49-2.01,4.5-4.5,4.5s-4.5-2.01-4.5-4.5,2.01-4.5,4.5-4.5,4.5,2.01,4.5,4.5"/><path class="cls-2" d="m90.34,97.26c0,2.49-2.01,4.5-4.5,4.5s-4.5-2.01-4.5-4.5,2.01-4.5,4.5-4.5,4.5,2.01,4.5,4.5"/><path class="cls-21" d="m52.26,28.89c0,1.49-1.21,2.7-2.7,2.7s-2.7-1.21-2.7-2.7,1.21-2.7,2.7-2.7,2.7,1.21,2.7,2.7"/><path class="cls-2" d="m52.26,28.89c0,1.49-1.21,2.7-2.7,2.7s-2.7-1.21-2.7-2.7,1.21-2.7,2.7-2.7,2.7,1.21,2.7,2.7"/><path class="cls-21" d="m52.26,159.97c0,1.49-1.21,2.7-2.7,2.7s-2.7-1.21-2.7-2.7,1.21-2.7,2.7-2.7,2.7,1.21,2.7,2.7"/><path class="cls-2" d="m52.26,159.97c0,1.49-1.21,2.7-2.7,2.7s-2.7-1.21-2.7-2.7,1.21-2.7,2.7-2.7,2.7,1.21,2.7,2.7"/><path class="cls-18" d="m63.67,50.99c0,1.49-1.21,2.7-2.7,2.7s-2.7-1.21-2.7-2.7,1.21-2.7,2.7-2.7,2.7,1.21,2.7,2.7"/><path class="cls-2" d="m63.67,50.99c0,1.49-1.21,2.7-2.7,2.7s-2.7-1.21-2.7-2.7,1.21-2.7,2.7-2.7,2.7,1.21,2.7,2.7"/><path class="cls-10" d="m62.12,134.27c0,1.49-1.21,2.7-2.7,2.7s-2.7-1.21-2.7-2.7,1.21-2.7,2.7-2.7,2.7,1.21,2.7,2.7"/><path class="cls-2" d="m62.12,134.27c0,1.49-1.21,2.7-2.7,2.7s-2.7-1.21-2.7-2.7,1.21-2.7,2.7-2.7,2.7,1.21,2.7,2.7"/><path class="cls-19" d="m58.91,185.67c0,1.49-1.21,2.7-2.7,2.7s-2.7-1.21-2.7-2.7,1.21-2.7,2.7-2.7,2.7,1.21,2.7,2.7"/><path class="cls-2" d="m58.91,185.67c0,1.49-1.21,2.7-2.7,2.7s-2.7-1.21-2.7-2.7,1.21-2.7,2.7-2.7,2.7,1.21,2.7,2.7"/><path class="cls-11" d="m84.66,31.46c0,1.49-1.21,2.7-2.7,2.7s-2.7-1.21-2.7-2.7,1.21-2.7,2.7-2.7,2.7,1.21,2.7,2.7"/><path class="cls-2" d="m84.66,31.46c0,1.49-1.21,2.7-2.7,2.7s-2.7-1.21-2.7-2.7,1.21-2.7,2.7-2.7,2.7,1.21,2.7,2.7"/><path class="cls-16" d="m75.05,70.53c0,1.49-1.21,2.7-2.7,2.7s-2.7-1.21-2.7-2.7,1.21-2.7,2.7-2.7,2.7,1.21,2.7,2.7"/><path class="cls-2" d="m75.05,70.53c0,1.49-1.21,2.7-2.7,2.7s-2.7-1.21-2.7-2.7,1.21-2.7,2.7-2.7,2.7,1.21,2.7,2.7"/><path class="cls-10" d="m104.37,146.61c0,1.49-1.21,2.7-2.7,2.7s-2.7-1.21-2.7-2.7,1.21-2.7,2.7-2.7,2.7,1.21,2.7,2.7"/><path class="cls-2" d="m104.37,146.61c0,1.49-1.21,2.7-2.7,2.7s-2.7-1.21-2.7-2.7,1.21-2.7,2.7-2.7,2.7,1.21,2.7,2.7"/><path class="cls-20" d="m64.67,200.07c0,1.49-1.21,2.7-2.7,2.7s-2.7-1.21-2.7-2.7,1.21-2.7,2.7-2.7,2.7,1.21,2.7,2.7"/><path class="cls-2" d="m64.67,200.07c0,1.49-1.21,2.7-2.7,2.7s-2.7-1.21-2.7-2.7,1.21-2.7,2.7-2.7,2.7,1.21,2.7,2.7"/><path class="cls-17" d="m79.82,84.92c0,1.49-1.21,2.7-2.7,2.7s-2.7-1.21-2.7-2.7,1.21-2.7,2.7-2.7,2.7,1.21,2.7,2.7"/><path class="cls-2" d="m79.82,84.92c0,1.49-1.21,2.7-2.7,2.7s-2.7-1.21-2.7-2.7,1.21-2.7,2.7-2.7,2.7,1.21,2.7,2.7"/><path class="cls-22" d="m74.88,212.41c0,1.49-1.21,2.7-2.7,2.7s-2.7-1.21-2.7-2.7,1.21-2.7,2.7-2.7,2.7,1.21,2.7,2.7"/><path class="cls-2" d="m74.88,212.41c0,1.49-1.21,2.7-2.7,2.7s-2.7-1.21-2.7-2.7,1.21-2.7,2.7-2.7,2.7,1.21,2.7,2.7"/><path class="cls-12" d="m88.54,97.26c0,1.49-1.21,2.7-2.7,2.7s-2.7-1.21-2.7-2.7,1.21-2.7,2.7-2.7,2.7,1.21,2.7,2.7"/><path class="cls-2" d="m88.54,97.26c0,1.49-1.21,2.7-2.7,2.7s-2.7-1.21-2.7-2.7,1.21-2.7,2.7-2.7,2.7,1.21,2.7,2.7"/><text class="cls-7" transform="translate(58.56 31.04)"><tspan x="0" y="0">a10</tspan></text><text class="cls-7" transform="translate(58.56 162.13)"><tspan x="0" y="0">a11</tspan></text><text class="cls-7" transform="translate(69.97 53.15)"><tspan x="0" y="0">a9</tspan></text><text class="cls-7" transform="translate(68.42 136.42)"><tspan x="0" y="0">a12</tspan></text><text class="cls-7" transform="translate(65.21 187.83)"><tspan x="0" y="0">a4</tspan></text><text class="cls-7" transform="translate(90.96 33.61)"><tspan x="0" y="0">a5</tspan></text><text class="cls-7" transform="translate(81.35 72.68)"><tspan x="0" y="0">a8</tspan></text><text class="cls-7" transform="translate(110.67 148.76)"><tspan x="0" y="0">a1</tspan></text><text class="cls-7" transform="translate(70.97 202.22)"><tspan x="0" y="0">a3</tspan></text><text class="cls-7" transform="translate(86.12 87.08)"><tspan x="0" y="0">a7</tspan></text><text class="cls-7" transform="translate(81.18 214.56)"><tspan x="0" y="0">a2</tspan></text><text class="cls-7" transform="translate(94.84 99.41)"><tspan x="0" y="0">a6</tspan></text></g><g><line class="cls-3" x1="18.01" y1="264.67" x2="75.44" y2="264.67"/><line class="cls-3" x1="18.01" y1="266.55" x2="18.01" y2="262.8"/><line class="cls-3" x1="75.44" y1="266.55" x2="75.44" y2="262.8"/><text class="cls-4" transform="translate(19.84 275.06)"><tspan x="0" y="0">1 subs/site</tspan></text><path class="cls-10" d="m221.18,249.64c0,3.73-3.02,6.75-6.75,6.75s-6.75-3.02-6.75-6.75,3.02-6.75,6.75-6.75,6.75,3.02,6.75,6.75"/><path class="cls-2" d="m221.18,249.64c0,3.73-3.02,6.75-6.75,6.75s-6.75-3.02-6.75-6.75,3.02-6.75,6.75-6.75,6.75,3.02,6.75,6.75"/><text class="cls-8" transform="translate(211.3 251.08)"><tspan x="0" y="0">50</tspan></text><text class="cls-5" transform="translate(222.76 252.52)"><tspan x="0" y="0">→</tspan></text><path class="cls-23" d="m248.94,249.64c0,3.73-3.02,6.75-6.75,6.75s-6.75-3.02-6.75-6.75,3.02-6.75,6.75-6.75,6.75,3.02,6.75,6.75"/><path class="cls-2" d="m248.94,249.64c0,3.73-3.02,6.75-6.75,6.75s-6.75-3.02-6.75-6.75,3.02-6.75,6.75-6.75,6.75,3.02,6.75,6.75"/><text class="cls-9" transform="translate(237.5 251.08)"><tspan x="0" y="0">100</tspan></text><text class="cls-4" transform="translate(121.68 252.52)"><tspan x="0" y="0" xml:space="preserve"> branch support:</tspan></text><path class="cls-10" d="m221.18,268.43c0,3.73-3.02,6.75-6.75,6.75s-6.75-3.02-6.75-6.75,3.02-6.75,6.75-6.75,6.75,3.02,6.75,6.75"/><path class="cls-2" d="m221.18,268.43c0,3.73-3.02,6.75-6.75,6.75s-6.75-3.02-6.75-6.75,3.02-6.75,6.75-6.75,6.75,3.02,6.75,6.75"/><text class="cls-8" transform="translate(210.52 269.87)"><tspan x="0" y="0">0.7</tspan></text><text class="cls-5" transform="translate(222.76 271.31)"><tspan x="0" y="0">→</tspan></text><path class="cls-14" d="m248.94,268.43c0,3.73-3.02,6.75-6.75,6.75s-6.75-3.02-6.75-6.75,3.02-6.75,6.75-6.75,6.75,3.02,6.75,6.75"/><path class="cls-2" d="m248.94,268.43c0,3.73-3.02,6.75-6.75,6.75s-6.75-3.02-6.75-6.75,3.02-6.75,6.75-6.75,6.75,3.02,6.75,6.75"/><text class="cls-9" transform="translate(238.28 269.87)"><tspan x="0" y="0">1.0</tspan></text><text class="cls-4" transform="translate(125.43 271.31)"><tspan x="0" y="0">anc post. prob.:</tspan></text></g></svg>