<?xml version="1.0" encoding="UTF-8"?><svg id="Layer_1" xmlns="http://www.w3.org/2000/svg" viewBox="0 0 319.23 260.48"><defs><style>.cls-1{stroke-linecap:round;stroke-width:1.5px;}.cls-1,.cls-2{fill:none;stroke:#000;stroke-miterlimit:10;}.cls-3,.cls-4{font-family:Helvetica, Helvetica;font-size:11.25px;}.cls-4{fill:#262626;}.cls-2{stroke-width:1.05px;}</style></defs><g><polyline class="cls-1" points=".75 94.39 .75 44.82 49.5 44.82"/><polyline class="cls-1" points=".75 94.39 .75 144.04 49.5 144.04"/><polyline class="cls-1" points="49.5 44.82 49.5 19.09 59.62 19.09"/><polyline class="cls-1" points="49.5 44.82 49.5 70.54 56.1 70.54"/><polyline class="cls-1" points="49.5 144.04 49.5 166.17 61.05 166.17"/><polyline class="cls-1" points="59.62 19.09 59.62 31.47 101.85 31.47"/><polyline class="cls-1" points="56.1 70.54 56.1 84.94 61.8 84.94"/><polyline class="cls-1" points="61.05 166.17 61.05 146.59 81.97 146.59"/><polyline class="cls-1" points="61.05 166.17 61.05 185.67 72.45 185.67"/><polyline class="cls-1" points="61.8 84.94 61.8 97.24 72 97.24"/><polyline class="cls-1" points="72.45 185.67 72.45 200.07 77.25 200.07"/><polyline class="cls-1" points="77.25 200.07 77.25 212.37 85.95 212.37"/><polyline class="cls-1" points="59.62 19.09 59.62 6.79 123.75 6.79"/><polyline class="cls-1" points="101.85 31.47 101.85 23.22 195.6 23.22"/><polyline class="cls-1" points="101.85 31.47 101.85 39.72 185.4 39.72"/><polyline class="cls-1" points="56.1 70.54 56.1 56.14 129.83 56.14"/><polyline class="cls-1" points="61.8 84.94 61.8 72.57 143.4 72.57"/><polyline class="cls-1" points="72 97.24 72 89.07 115.12 89.07"/><polyline class="cls-1" points="72 97.24 72 105.49 139.43 105.49"/><polyline class="cls-1" points="49.5 144.04 49.5 121.92 90.97 121.92"/><polyline class="cls-1" points="81.97 146.59 81.97 138.34 131.18 138.34"/><polyline class="cls-1" points="81.97 146.59 81.97 154.84 129 154.84"/><polyline class="cls-1" points="72.45 185.67 72.45 171.27 116.7 171.27"/><polyline class="cls-1" points="77.25 200.07 77.25 187.69 108.97 187.69"/><polyline class="cls-1" points="85.95 212.37 85.95 204.19 128.25 204.19"/><polyline class="cls-1" points="85.95 212.37 85.95 220.62 132.9 220.62"/><text class="cls-4" transform="translate(144.15 223.5)"><tspan x="0" y="0">Gallus gallus|LY86</tspan></text><text class="cls-4" transform="translate(139.53 207.05)"><tspan x="0" y="0">Homo sapiens|LY86</tspan></text><text class="cls-4" transform="translate(120.21 190.6)"><tspan x="0" y="0">Microcaecilia unicolor|LY86</tspan></text><text class="cls-4" transform="translate(127.96 174.16)"><tspan x="0" y="0">Protopterus annectens|LY86</tspan></text><text class="cls-4" transform="translate(140.28 157.7)"><tspan x="0" y="0">Danio rerio|LY86</tspan></text><text class="cls-4" transform="translate(142.44 141.25)"><tspan x="0" y="0">Albula goreensis|LY86</tspan></text><text class="cls-4" transform="translate(102.24 124.81)"><tspan x="0" y="0">Xenopus laevis|LY86</tspan></text><text class="cls-4" transform="translate(150.69 108.35)"><tspan x="0" y="0">Xenopus laevis|LY96</tspan></text><text class="cls-4" transform="translate(126.37 91.9)"><tspan x="0" y="0">Microcaecilia unicolor|LY96</tspan></text><text class="cls-4" transform="translate(154.64 75.46)"><tspan x="0" y="0">Homo sapiens|LY96</tspan></text><text class="cls-4" transform="translate(141.1 59)"><tspan x="0" y="0">Protopterus annectens|LY96</tspan></text><text class="cls-4" transform="translate(196.65 42.55)"><tspan x="0" y="0">Danio rerio|LY96</tspan></text><text class="cls-4" transform="translate(206.86 26.11)"><tspan x="0" y="0">Albula goreensis|LY96</tspan></text><text class="cls-4" transform="translate(135.01 9.66)"><tspan x="0" y="0">Gallus gallus|LY96</tspan></text></g><g><line class="cls-2" x1="18.03" y1="244.67" x2="75.42" y2="244.67"/><line class="cls-2" x1="18.03" y1="246.55" x2="18.03" y2="242.8"/><line class="cls-2" x1="75.42" y1="246.55" x2="75.42" y2="242.8"/><text class="cls-3" transform="translate(19.84 255.06)"><tspan x="0" y="0">1 subs/site</tspan></text></g></svg>