<?xml version="1.0" encoding="UTF-8"?><svg id="Layer_1" xmlns="http://www.w3.org/2000/svg" viewBox="0 0 325.48 260.48"><defs><style>.cls-1{stroke-linecap:round;stroke-width:1.5px;}.cls-1,.cls-2,.cls-3{fill:none;stroke:#000;stroke-miterlimit:10;}.cls-2{stroke-width:.56px;}.cls-4,.cls-5{font-size:11.25px;}.cls-4,.cls-5,.cls-6{font-family:Helvetica, Helvetica;}.cls-5{fill:#262626;}.cls-3{stroke-width:1.05px;}.cls-6{fill:#fff;font-size:5.62px;}.cls-7{fill:#64007f;fill-rule:evenodd;}</style></defs><g><polyline class="cls-1" points="7 95.22 7 37.62 89.8 37.62"/><polyline class="cls-1" points="7 95.22 7 152.74 89.8 152.74"/><polyline class="cls-1" points="89.8 37.62 89.8 15.04 128.2 15.04"/><polyline class="cls-1" points="89.8 37.62 89.8 60.27 92.27 60.27"/><polyline class="cls-1" points="89.8 152.74 89.8 130.17 112 130.17"/><line class="cls-1" x1="89.8" y1="152.74" x2="89.8" y2="175.39"/><polyline class="cls-1" points="92.27 60.27 92.27 80.82 96.85 80.82"/><polyline class="cls-1" points="89.8 175.39 89.8 195.94 95.35 195.94"/><polyline class="cls-1" points="96.85 80.82 96.85 64.39 105.4 64.39"/><polyline class="cls-1" points="96.85 80.82 96.85 97.24 102.77 97.24"/><polyline class="cls-1" points="95.35 195.94 95.35 179.52 101.8 179.52"/><polyline class="cls-1" points="95.35 195.94 95.35 212.37 99.85 212.37"/><polyline class="cls-1" points="128.2 15.04 128.2 6.79 201.85 6.79"/><polyline class="cls-1" points="128.2 15.04 128.2 23.22 194.65 23.22"/><polyline class="cls-1" points="92.27 60.27 92.27 39.72 152.65 39.72"/><polyline class="cls-1" points="105.4 64.39 105.4 56.14 140.2 56.14"/><polyline class="cls-1" points="105.4 64.39 105.4 72.57 158.2 72.57"/><polyline class="cls-1" points="102.77 97.24 102.77 89.07 157 89.07"/><polyline class="cls-1" points="102.77 97.24 102.77 105.49 165.4 105.49"/><polyline class="cls-1" points="112 130.17 112 121.92 152.35 121.92"/><polyline class="cls-1" points="112 130.17 112 138.34 147.17 138.34"/><polyline class="cls-1" points="89.8 175.39 89.8 154.84 123.77 154.84"/><polyline class="cls-1" points="101.8 179.52 101.8 171.27 135.4 171.27"/><polyline class="cls-1" points="101.8 179.52 101.8 187.69 138.62 187.69"/><polyline class="cls-1" points="99.85 212.37 99.85 204.19 145.9 204.19"/><polyline class="cls-1" points="99.85 212.37 99.85 220.62 123.02 220.62"/><text class="cls-5" transform="translate(134.27 223.5)"><tspan x="0" y="0">Microcaecilia unicolor|LY86</tspan></text><text class="cls-5" transform="translate(157.12 207.05)"><tspan x="0" y="0">Xenopus laevis|LY86</tspan></text><text class="cls-5" transform="translate(149.86 190.6)"><tspan x="0" y="0">Gallus gallus|LY86</tspan></text><text class="cls-5" transform="translate(146.67 174.16)"><tspan x="0" y="0">Homo sapiens|LY86</tspan></text><text class="cls-5" transform="translate(135.04 157.7)"><tspan x="0" y="0">Protopterus annectens|LY86</tspan></text><text class="cls-5" transform="translate(158.41 141.25)"><tspan x="0" y="0">Danio rerio|LY86</tspan></text><text class="cls-5" transform="translate(163.56 124.81)"><tspan x="0" y="0">Albula goreensis|LY86</tspan></text><text class="cls-5" transform="translate(176.67 108.35)"><tspan x="0" y="0">Homo sapiens|LY96</tspan></text><text class="cls-5" transform="translate(168.22 91.9)"><tspan x="0" y="0">Gallus gallus|LY96</tspan></text><text class="cls-5" transform="translate(169.45 75.46)"><tspan x="0" y="0">Xenopus laevis|LY96</tspan></text><text class="cls-5" transform="translate(151.44 59)"><tspan x="0" y="0">Microcaecilia unicolor|LY96</tspan></text><text class="cls-5" transform="translate(163.92 42.55)"><tspan x="0" y="0">Protopterus annectens|LY96</tspan></text><text class="cls-5" transform="translate(205.9 26.11)"><tspan x="0" y="0">Danio rerio|LY96</tspan></text><text class="cls-5" transform="translate(213.1 9.66)"><tspan x="0" y="0">Albula goreensis|LY96</tspan></text><path class="cls-7" d="M13.78,95.2c0,3.73-3.02,6.75-6.75,6.75s-6.75-3.02-6.75-6.75,3.02-6.75,6.75-6.75,6.75,3.02,6.75,6.75"/><path class="cls-2" d="M13.78,95.2c0,3.73-3.02,6.75-6.75,6.75s-6.75-3.02-6.75-6.75,3.02-6.75,6.75-6.75,6.75,3.02,6.75,6.75"/></g><g><line class="cls-3" x1="23.49" y1="244.67" x2="82.45" y2="244.67"/><line class="cls-3" x1="23.49" y1="246.55" x2="23.49" y2="242.8"/><line class="cls-3" x1="82.45" y1="246.55" x2="82.45" y2="242.8"/><text class="cls-4" transform="translate(21.39 255.06)"><tspan x="0" y="0">1.2 subs/site</tspan></text><path class="cls-7" d="M227.42,249.64c0,3.73-3.02,6.75-6.75,6.75s-6.75-3.02-6.75-6.75,3.02-6.75,6.75-6.75,6.75,3.02,6.75,6.75"/><path class="cls-2" d="M227.42,249.64c0,3.73-3.02,6.75-6.75,6.75s-6.75-3.02-6.75-6.75,3.02-6.75,6.75-6.75,6.75,3.02,6.75,6.75"/><text class="cls-6" transform="translate(218.64 251.08)"><tspan x="0" y="0">D</tspan></text><text class="cls-4" transform="translate(172.95 252.52)"><tspan x="0" y="0">events:</tspan></text></g></svg>