<?xml version="1.0" encoding="UTF-8"?><svg id="Layer_1" xmlns="http://www.w3.org/2000/svg" viewBox="0 0 325.48 295.5"><defs><style>.cls-1{stroke-linecap:round;stroke-width:1.5px;}.cls-1,.cls-2,.cls-3{fill:none;stroke:#000;stroke-miterlimit:10;}.cls-2{stroke-width:.56px;}.cls-4,.cls-5,.cls-6{font-size:11.25px;}.cls-4,.cls-7,.cls-8,.cls-6,.cls-9{font-family:Helvetica, Helvetica;}.cls-5{font-family:Symbol, Symbol;}.cls-7{fill:#023e55;font-size:8.44px;}.cls-8,.cls-9{font-size:5.62px;}.cls-6{fill:#262626;}.cls-3{stroke-width:1.05px;}.cls-9,.cls-10{fill:#fff;}.cls-11{fill:#f8e7d4;}.cls-11,.cls-12,.cls-13,.cls-14,.cls-15,.cls-16,.cls-17,.cls-18,.cls-19,.cls-20,.cls-21,.cls-22,.cls-23,.cls-10,.cls-24,.cls-25,.cls-26,.cls-27{fill-rule:evenodd;}.cls-12{fill:#f3d2ae;}.cls-13{fill:#f3d3b0;}.cls-14{fill:#2e2e2e;}.cls-15{fill:#64007f;}.cls-16{fill:#141414;}.cls-17{fill:#dc801a;}.cls-18{fill:#c7c7c7;}.cls-19{fill:#fdf7f1;}.cls-20{fill:#fdf8f2;}.cls-21{fill:#999;}.cls-22{fill:#858585;}.cls-23{fill:#f0caa0;}.cls-24{fill:#f5f5f5;}.cls-25{fill:#fbf2e7;}.cls-26{fill:#faeddf;}</style></defs><g><polyline class="cls-1" points="7 95.22 7 37.62 89.8 37.62"/><polyline class="cls-1" points="7 95.22 7 152.74 89.8 152.74"/><polyline class="cls-1" points="89.8 37.62 89.8 15.04 128.2 15.04"/><polyline class="cls-1" points="89.8 37.62 89.8 60.27 92.27 60.27"/><polyline class="cls-1" points="89.8 152.74 89.8 130.17 112 130.17"/><line class="cls-1" x1="89.8" y1="152.74" x2="89.8" y2="175.39"/><polyline class="cls-1" points="92.27 60.27 92.27 80.82 96.85 80.82"/><polyline class="cls-1" points="89.8 175.39 89.8 195.94 95.35 195.94"/><polyline class="cls-1" points="96.85 80.82 96.85 64.39 105.4 64.39"/><polyline class="cls-1" points="96.85 80.82 96.85 97.24 102.77 97.24"/><polyline class="cls-1" points="95.35 195.94 95.35 179.52 101.8 179.52"/><polyline class="cls-1" points="95.35 195.94 95.35 212.37 99.85 212.37"/><polyline class="cls-1" points="128.2 15.04 128.2 6.79 201.85 6.79"/><polyline class="cls-1" points="128.2 15.04 128.2 23.22 194.65 23.22"/><polyline class="cls-1" points="92.27 60.27 92.27 39.72 152.65 39.72"/><polyline class="cls-1" points="105.4 64.39 105.4 56.14 140.2 56.14"/><polyline class="cls-1" points="105.4 64.39 105.4 72.57 158.2 72.57"/><polyline class="cls-1" points="102.77 97.24 102.77 89.07 157 89.07"/><polyline class="cls-1" points="102.77 97.24 102.77 105.49 165.4 105.49"/><polyline class="cls-1" points="112 130.17 112 121.92 152.35 121.92"/><polyline class="cls-1" points="112 130.17 112 138.34 147.17 138.34"/><polyline class="cls-1" points="89.8 175.39 89.8 154.84 123.77 154.84"/><polyline class="cls-1" points="101.8 179.52 101.8 171.27 135.4 171.27"/><polyline class="cls-1" points="101.8 179.52 101.8 187.69 138.62 187.69"/><polyline class="cls-1" points="99.85 212.37 99.85 204.19 145.9 204.19"/><polyline class="cls-1" points="99.85 212.37 99.85 220.62 123.02 220.62"/><text class="cls-6" transform="translate(134.27 223.5)"><tspan x="0" y="0">Microcaecilia unicolor|LY86</tspan></text><text class="cls-6" transform="translate(157.12 207.05)"><tspan x="0" y="0">Xenopus laevis|LY86</tspan></text><text class="cls-6" transform="translate(149.86 190.6)"><tspan x="0" y="0">Gallus gallus|LY86</tspan></text><text class="cls-6" transform="translate(146.67 174.16)"><tspan x="0" y="0">Homo sapiens|LY86</tspan></text><text class="cls-6" transform="translate(135.04 157.7)"><tspan x="0" y="0">Protopterus annectens|LY86</tspan></text><text class="cls-6" transform="translate(158.41 141.25)"><tspan x="0" y="0">Danio rerio|LY86</tspan></text><text class="cls-6" transform="translate(163.56 124.81)"><tspan x="0" y="0">Albula goreensis|LY86</tspan></text><text class="cls-6" transform="translate(176.67 108.35)"><tspan x="0" y="0">Homo sapiens|LY96</tspan></text><text class="cls-6" transform="translate(168.22 91.9)"><tspan x="0" y="0">Gallus gallus|LY96</tspan></text><text class="cls-6" transform="translate(169.45 75.46)"><tspan x="0" y="0">Xenopus laevis|LY96</tspan></text><text class="cls-6" transform="translate(151.44 59)"><tspan x="0" y="0">Microcaecilia unicolor|LY96</tspan></text><text class="cls-6" transform="translate(163.92 42.55)"><tspan x="0" y="0">Protopterus annectens|LY96</tspan></text><text class="cls-6" transform="translate(205.9 26.11)"><tspan x="0" y="0">Danio rerio|LY96</tspan></text><text class="cls-6" transform="translate(213.1 9.66)"><tspan x="0" y="0">Albula goreensis|LY96</tspan></text><path class="cls-15" d="M13.78,95.2c0,3.73-3.02,6.75-6.75,6.75s-6.75-3.02-6.75-6.75,3.02-6.75,6.75-6.75,6.75,3.02,6.75,6.75"/><path class="cls-2" d="M13.78,95.2c0,3.73-3.02,6.75-6.75,6.75s-6.75-3.02-6.75-6.75,3.02-6.75,6.75-6.75,6.75,3.02,6.75,6.75"/><path class="cls-27" d="M94.33,37.63c0,2.49-2.01,4.5-4.5,4.5s-4.5-2.01-4.5-4.5,2.01-4.5,4.5-4.5,4.5,2.01,4.5,4.5"/><path class="cls-2" d="M94.33,37.63c0,2.49-2.01,4.5-4.5,4.5s-4.5-2.01-4.5-4.5,2.01-4.5,4.5-4.5,4.5,2.01,4.5,4.5"/><path class="cls-27" d="M94.33,152.78c0,2.49-2.01,4.5-4.5,4.5s-4.5-2.01-4.5-4.5,2.01-4.5,4.5-4.5,4.5,2.01,4.5,4.5"/><path class="cls-2" d="M94.33,152.78c0,2.49-2.01,4.5-4.5,4.5s-4.5-2.01-4.5-4.5,2.01-4.5,4.5-4.5,4.5,2.01,4.5,4.5"/><path class="cls-27" d="M132.71,15.01c0,2.49-2.01,4.5-4.5,4.5s-4.5-2.01-4.5-4.5,2.01-4.5,4.5-4.5,4.5,2.01,4.5,4.5"/><path class="cls-2" d="M132.71,15.01c0,2.49-2.01,4.5-4.5,4.5s-4.5-2.01-4.5-4.5,2.01-4.5,4.5-4.5,4.5,2.01,4.5,4.5"/><path class="cls-18" d="M96.78,60.25c0,2.49-2.01,4.5-4.5,4.5s-4.5-2.01-4.5-4.5,2.01-4.5,4.5-4.5,4.5,2.01,4.5,4.5"/><path class="cls-2" d="M96.78,60.25c0,2.49-2.01,4.5-4.5,4.5s-4.5-2.01-4.5-4.5,2.01-4.5,4.5-4.5,4.5,2.01,4.5,4.5"/><path class="cls-16" d="M116.47,130.16c0,2.49-2.01,4.5-4.5,4.5s-4.5-2.01-4.5-4.5,2.01-4.5,4.5-4.5,4.5,2.01,4.5,4.5"/><path class="cls-2" d="M116.47,130.16c0,2.49-2.01,4.5-4.5,4.5s-4.5-2.01-4.5-4.5,2.01-4.5,4.5-4.5,4.5,2.01,4.5,4.5"/><path class="cls-10" d="M94.33,175.39c0,2.49-2.01,4.5-4.5,4.5s-4.5-2.01-4.5-4.5,2.01-4.5,4.5-4.5,4.5,2.01,4.5,4.5"/><path class="cls-2" d="M94.33,175.39c0,2.49-2.01,4.5-4.5,4.5s-4.5-2.01-4.5-4.5,2.01-4.5,4.5-4.5,4.5,2.01,4.5,4.5"/><path class="cls-24" d="M101.36,80.81c0,2.49-2.01,4.5-4.5,4.5s-4.5-2.01-4.5-4.5,2.01-4.5,4.5-4.5,4.5,2.01,4.5,4.5"/><path class="cls-2" d="M101.36,80.81c0,2.49-2.01,4.5-4.5,4.5s-4.5-2.01-4.5-4.5,2.01-4.5,4.5-4.5,4.5,2.01,4.5,4.5"/><path class="cls-10" d="M99.87,195.96c0,2.49-2.01,4.5-4.5,4.5s-4.5-2.01-4.5-4.5,2.01-4.5,4.5-4.5,4.5,2.01,4.5,4.5"/><path class="cls-2" d="M99.87,195.96c0,2.49-2.01,4.5-4.5,4.5s-4.5-2.01-4.5-4.5,2.01-4.5,4.5-4.5,4.5,2.01,4.5,4.5"/><path class="cls-14" d="M109.89,64.36c0,2.49-2.01,4.5-4.5,4.5s-4.5-2.01-4.5-4.5,2.01-4.5,4.5-4.5,4.5,2.01,4.5,4.5"/><path class="cls-2" d="M109.89,64.36c0,2.49-2.01,4.5-4.5,4.5s-4.5-2.01-4.5-4.5,2.01-4.5,4.5-4.5,4.5,2.01,4.5,4.5"/><path class="cls-21" d="M107.25,97.26c0,2.49-2.01,4.5-4.5,4.5s-4.5-2.01-4.5-4.5,2.01-4.5,4.5-4.5,4.5,2.01,4.5,4.5"/><path class="cls-2" d="M107.25,97.26c0,2.49-2.01,4.5-4.5,4.5s-4.5-2.01-4.5-4.5,2.01-4.5,4.5-4.5,4.5,2.01,4.5,4.5"/><path class="cls-22" d="M106.29,179.51c0,2.49-2.01,4.5-4.5,4.5s-4.5-2.01-4.5-4.5,2.01-4.5,4.5-4.5,4.5,2.01,4.5,4.5"/><path class="cls-2" d="M106.29,179.51c0,2.49-2.01,4.5-4.5,4.5s-4.5-2.01-4.5-4.5,2.01-4.5,4.5-4.5,4.5,2.01,4.5,4.5"/><path class="cls-10" d="M104.37,212.41c0,2.49-2.01,4.5-4.5,4.5s-4.5-2.01-4.5-4.5,2.01-4.5,4.5-4.5,4.5,2.01,4.5,4.5"/><path class="cls-2" d="M104.37,212.41c0,2.49-2.01,4.5-4.5,4.5s-4.5-2.01-4.5-4.5,2.01-4.5,4.5-4.5,4.5,2.01,4.5,4.5"/><path class="cls-10" d="M92.53,37.63c0,1.49-1.21,2.7-2.7,2.7s-2.7-1.21-2.7-2.7,1.21-2.7,2.7-2.7,2.7,1.21,2.7,2.7"/><path class="cls-2" d="M92.53,37.63c0,1.49-1.21,2.7-2.7,2.7s-2.7-1.21-2.7-2.7,1.21-2.7,2.7-2.7,2.7,1.21,2.7,2.7"/><path class="cls-13" d="M92.53,152.78c0,1.49-1.21,2.7-2.7,2.7s-2.7-1.21-2.7-2.7,1.21-2.7,2.7-2.7,2.7,1.21,2.7,2.7"/><path class="cls-2" d="M92.53,152.78c0,1.49-1.21,2.7-2.7,2.7s-2.7-1.21-2.7-2.7,1.21-2.7,2.7-2.7,2.7,1.21,2.7,2.7"/><path class="cls-10" d="M130.91,15.01c0,1.49-1.21,2.7-2.7,2.7s-2.7-1.21-2.7-2.7,1.21-2.7,2.7-2.7,2.7,1.21,2.7,2.7"/><path class="cls-2" d="M130.91,15.01c0,1.49-1.21,2.7-2.7,2.7s-2.7-1.21-2.7-2.7,1.21-2.7,2.7-2.7,2.7,1.21,2.7,2.7"/><path class="cls-19" d="M94.98,60.25c0,1.49-1.21,2.7-2.7,2.7s-2.7-1.21-2.7-2.7,1.21-2.7,2.7-2.7,2.7,1.21,2.7,2.7"/><path class="cls-2" d="M94.98,60.25c0,1.49-1.21,2.7-2.7,2.7s-2.7-1.21-2.7-2.7,1.21-2.7,2.7-2.7,2.7,1.21,2.7,2.7"/><path class="cls-11" d="M114.67,130.16c0,1.49-1.21,2.7-2.7,2.7s-2.7-1.21-2.7-2.7,1.21-2.7,2.7-2.7,2.7,1.21,2.7,2.7"/><path class="cls-2" d="M114.67,130.16c0,1.49-1.21,2.7-2.7,2.7s-2.7-1.21-2.7-2.7,1.21-2.7,2.7-2.7,2.7,1.21,2.7,2.7"/><path class="cls-13" d="M92.53,175.39c0,1.49-1.21,2.7-2.7,2.7s-2.7-1.21-2.7-2.7,1.21-2.7,2.7-2.7,2.7,1.21,2.7,2.7"/><path class="cls-2" d="M92.53,175.39c0,1.49-1.21,2.7-2.7,2.7s-2.7-1.21-2.7-2.7,1.21-2.7,2.7-2.7,2.7,1.21,2.7,2.7"/><path class="cls-25" d="M99.56,80.81c0,1.49-1.21,2.7-2.7,2.7s-2.7-1.21-2.7-2.7,1.21-2.7,2.7-2.7,2.7,1.21,2.7,2.7"/><path class="cls-2" d="M99.56,80.81c0,1.49-1.21,2.7-2.7,2.7s-2.7-1.21-2.7-2.7,1.21-2.7,2.7-2.7,2.7,1.21,2.7,2.7"/><path class="cls-23" d="M98.07,195.96c0,1.49-1.21,2.7-2.7,2.7s-2.7-1.21-2.7-2.7,1.21-2.7,2.7-2.7,2.7,1.21,2.7,2.7"/><path class="cls-2" d="M98.07,195.96c0,1.49-1.21,2.7-2.7,2.7s-2.7-1.21-2.7-2.7,1.21-2.7,2.7-2.7,2.7,1.21,2.7,2.7"/><path class="cls-26" d="M108.09,64.36c0,1.49-1.21,2.7-2.7,2.7s-2.7-1.21-2.7-2.7,1.21-2.7,2.7-2.7,2.7,1.21,2.7,2.7"/><path class="cls-2" d="M108.09,64.36c0,1.49-1.21,2.7-2.7,2.7s-2.7-1.21-2.7-2.7,1.21-2.7,2.7-2.7,2.7,1.21,2.7,2.7"/><path class="cls-20" d="M105.45,97.26c0,1.49-1.21,2.7-2.7,2.7s-2.7-1.21-2.7-2.7,1.21-2.7,2.7-2.7,2.7,1.21,2.7,2.7"/><path class="cls-2" d="M105.45,97.26c0,1.49-1.21,2.7-2.7,2.7s-2.7-1.21-2.7-2.7,1.21-2.7,2.7-2.7,2.7,1.21,2.7,2.7"/><path class="cls-12" d="M104.49,179.51c0,1.49-1.21,2.7-2.7,2.7s-2.7-1.21-2.7-2.7,1.21-2.7,2.7-2.7,2.7,1.21,2.7,2.7"/><path class="cls-2" d="M104.49,179.51c0,1.49-1.21,2.7-2.7,2.7s-2.7-1.21-2.7-2.7,1.21-2.7,2.7-2.7,2.7,1.21,2.7,2.7"/><path class="cls-23" d="M102.57,212.41c0,1.49-1.21,2.7-2.7,2.7s-2.7-1.21-2.7-2.7,1.21-2.7,2.7-2.7,2.7,1.21,2.7,2.7"/><path class="cls-2" d="M102.57,212.41c0,1.49-1.21,2.7-2.7,2.7s-2.7-1.21-2.7-2.7,1.21-2.7,2.7-2.7,2.7,1.21,2.7,2.7"/><text class="cls-7" transform="translate(98.83 39.78)"><tspan x="0" y="0">a12</tspan></text><text class="cls-7" transform="translate(98.83 154.93)"><tspan x="0" y="0">a6</tspan></text><text class="cls-7" transform="translate(137.21 17.17)"><tspan x="0" y="0">a11</tspan></text><text class="cls-7" transform="translate(101.28 62.4)"><tspan x="0" y="0">a10</tspan></text><text class="cls-7" transform="translate(120.97 132.31)"><tspan x="0" y="0">a1</tspan></text><text class="cls-7" transform="translate(98.83 177.55)"><tspan x="0" y="0">a5</tspan></text><text class="cls-7" transform="translate(105.86 82.96)"><tspan x="0" y="0">a9</tspan></text><text class="cls-7" transform="translate(104.37 198.11)"><tspan x="0" y="0">a4</tspan></text><text class="cls-7" transform="translate(114.39 66.51)"><tspan x="0" y="0">a7</tspan></text><text class="cls-7" transform="translate(111.75 99.41)"><tspan x="0" y="0">a8</tspan></text><text class="cls-7" transform="translate(110.79 181.66)"><tspan x="0" y="0">a2</tspan></text><text class="cls-7" transform="translate(108.87 214.56)"><tspan x="0" y="0">a3</tspan></text></g><g><line class="cls-3" x1="23.49" y1="264.67" x2="82.45" y2="264.67"/><line class="cls-3" x1="23.49" y1="266.55" x2="23.49" y2="262.8"/><line class="cls-3" x1="82.45" y1="266.55" x2="82.45" y2="262.8"/><text class="cls-4" transform="translate(21.39 275.06)"><tspan x="0" y="0">1.2 subs/site</tspan></text><path class="cls-15" d="M227.42,249.64c0,3.73-3.02,6.75-6.75,6.75s-6.75-3.02-6.75-6.75,3.02-6.75,6.75-6.75,6.75,3.02,6.75,6.75"/><path class="cls-2" d="M227.42,249.64c0,3.73-3.02,6.75-6.75,6.75s-6.75-3.02-6.75-6.75,3.02-6.75,6.75-6.75,6.75,3.02,6.75,6.75"/><text class="cls-9" transform="translate(218.64 251.08)"><tspan x="0" y="0">D</tspan></text><text class="cls-4" transform="translate(144.8 252.52)"><tspan x="0" y="0" xml:space="preserve">         events:</tspan></text><path class="cls-10" d="M227.42,268.43c0,3.73-3.02,6.75-6.75,6.75s-6.75-3.02-6.75-6.75,3.02-6.75,6.75-6.75,6.75,3.02,6.75,6.75"/><path class="cls-2" d="M227.42,268.43c0,3.73-3.02,6.75-6.75,6.75s-6.75-3.02-6.75-6.75,3.02-6.75,6.75-6.75,6.75,3.02,6.75,6.75"/><text class="cls-8" transform="translate(217.55 269.87)"><tspan x="0" y="0">50</tspan></text><text class="cls-5" transform="translate(229 271.31)"><tspan x="0" y="0">→</tspan></text><path class="cls-27" d="M255.19,268.43c0,3.73-3.02,6.75-6.75,6.75s-6.75-3.02-6.75-6.75,3.02-6.75,6.75-6.75,6.75,3.02,6.75,6.75"/><path class="cls-2" d="M255.19,268.43c0,3.73-3.02,6.75-6.75,6.75s-6.75-3.02-6.75-6.75,3.02-6.75,6.75-6.75,6.75,3.02,6.75,6.75"/><text class="cls-9" transform="translate(243.75 269.87)"><tspan x="0" y="0">100</tspan></text><text class="cls-4" transform="translate(127.93 271.31)"><tspan x="0" y="0" xml:space="preserve"> branch support:</tspan></text><path class="cls-10" d="M227.42,287.22c0,3.73-3.02,6.75-6.75,6.75s-6.75-3.02-6.75-6.75,3.02-6.75,6.75-6.75,6.75,3.02,6.75,6.75"/><path class="cls-2" d="M227.42,287.22c0,3.73-3.02,6.75-6.75,6.75s-6.75-3.02-6.75-6.75,3.02-6.75,6.75-6.75,6.75,3.02,6.75,6.75"/><text class="cls-8" transform="translate(216.77 288.66)"><tspan x="0" y="0">0.7</tspan></text><text class="cls-5" transform="translate(229 290.09)"><tspan x="0" y="0">→</tspan></text><path class="cls-17" d="M255.19,287.22c0,3.73-3.02,6.75-6.75,6.75s-6.75-3.02-6.75-6.75,3.02-6.75,6.75-6.75,6.75,3.02,6.75,6.75"/><path class="cls-2" d="M255.19,287.22c0,3.73-3.02,6.75-6.75,6.75s-6.75-3.02-6.75-6.75,3.02-6.75,6.75-6.75,6.75,3.02,6.75,6.75"/><text class="cls-9" transform="translate(244.53 288.66)"><tspan x="0" y="0">1.0</tspan></text><text class="cls-4" transform="translate(131.67 290.09)"><tspan x="0" y="0">anc post. prob.:</tspan></text></g></svg>