<?xml version="1.0" encoding="UTF-8"?><svg id="Layer_1" xmlns="http://www.w3.org/2000/svg" viewBox="0 0 823.34 622.38"><defs><style>.cls-1{stroke-dasharray:0 0 9.93 9.93;}.cls-1,.cls-2,.cls-3,.cls-4,.cls-5,.cls-6{stroke-miterlimit:10;}.cls-1,.cls-2,.cls-4{stroke:#000;}.cls-1,.cls-3,.cls-4{fill:none;stroke-linecap:round;stroke-width:3.5px;}.cls-7,.cls-8{font-family:ArialMT, Arial;font-size:56.31px;}.cls-7,.cls-9{letter-spacing:-.06em;}.cls-10{fill:#fff;}.cls-11{fill:#db7f1a;}.cls-12{fill:#17698a;}.cls-13{fill:#1a1a1a;}.cls-3{stroke:#1a1a1a;}.cls-5{fill:#781491;stroke:#781491;}.cls-6{fill:#778500;stroke:#778500;}</style></defs><g><line class="cls-3" x1="1.75" y1="579.4" x2="315.97" y2="579.4"/><path class="cls-13" d="M312.83,579.4l-3.83-6.31,.22-.14,10.28,4.08c3.58,.79,7.16,1.58,10.75,2.36-3.58,.79-7.16,1.58-10.75,2.36l-10.28,4.08-.22-.11,3.83-6.34Z"/></g><text class="cls-8" transform="translate(361.69 58.11)"><tspan x="0" y="0">human</tspan></text><text class="cls-8" transform="translate(361.69 135.33)"><tspan x="0" y="0">chicken</tspan></text><text class="cls-8" transform="translate(361.69 201.82)"><tspan x="0" y="0">frog</tspan></text><path class="cls-13" d="M336.93,41.25h-44.17c-2.9,0-2.9,4.5,0,4.5h44.17c2.9,0,2.9-4.5,0-4.5h0Z"/><path class="cls-13" d="M336.93,118.06h-44.17c-2.9,0-2.9,4.5,0,4.5h44.17c2.9,0,2.9-4.5,0-4.5h0Z"/><path class="cls-13" d="M295.01,120.31V43.5c0-2.9-4.5-2.9-4.5,0V120.31c0,2.9,4.5,2.9,4.5,0h0Z"/><path class="cls-13" d="M336.93,183.46c-2.95,0-5.91,0-8.86,0-7.09,0-14.19,0-21.28,0h-25.88c-7.42,0-14.85,0-22.27,0-3.6,0-7.24-.15-10.84,0-.05,0-.1,0-.16,0-2.9,0-2.9,4.5,0,4.5s5.91,0,8.86,0c7.09,0,14.19,0,21.28,0h25.88c7.42,0,14.85,0,22.27,0,3.6,0,7.24,.15,10.84,0,.05,0,.1,0,.16,0,2.9,0,2.9-4.5,0-4.5h0Z"/><path class="cls-13" d="M249.89,185.7c.01-3.43,.03-6.87,.04-10.3,.04-8.25,.07-16.5,.11-24.75,.04-10.03,.09-20.05,.13-30.08,.04-8.63,.07-17.26,.11-25.89,.02-4.18,.21-8.41,.05-12.59,0-.06,0-.12,0-.18,.01-2.9-4.49-2.9-4.5,0-.01,3.43-.03,6.87-.04,10.3-.04,8.25-.07,16.5-.11,24.75l-.13,30.08c-.04,8.63-.07,17.26-.11,25.89-.02,4.18-.21,8.41-.05,12.59,0,.06,0,.12,0,.18-.01,2.9,4.49,2.9,4.5,0h0Z"/><path class="cls-13" d="M248.34,129.19h-51.37c-2.9,0-2.9,4.5,0,4.5h51.37c2.9,0,2.9-4.5,0-4.5h0Z"/><path class="cls-13" d="M199,341.64c0-1.87,0-3.73,0-5.6v-15.33c.01-7.53,.01-15.06,.02-22.59,0-9.22,0-18.45,.01-27.67v-30.19c.02-10.16,.02-20.32,.03-30.47,0-9.51,0-19.02,.01-28.53v-24.01c.01-5.78,.02-11.56,.02-17.33,0-2.72,.06-5.45,0-8.17,0-.12,0-.23,0-.35,0-2.9-4.5-2.9-4.5,0,0,1.87,0,3.73,0,5.6v15.33c-.01,7.53-.01,15.06-.02,22.59v27.67c-.02,10.06-.02,20.13-.03,30.19s-.01,20.32-.02,30.47c0,9.51,0,19.02-.01,28.53,0,8,0,16.01-.01,24.01,0,5.78,0,11.56,0,17.33,0,2.72-.06,5.45,0,8.17,0,.12,0,.23,0,.35,0,2.9,4.5,2.9,4.5,0h0Z"/><path class="cls-13" d="M194.39,225.14h-56.48c-2.9,0-2.9,4.5,0,4.5h56.48c2.9,0,2.9-4.5,0-4.5h0Z"/><circle class="cls-6" cx="247.86" cy="131.44" r="8.61"/><circle class="cls-5" cx="196.97" cy="227.39" r="8.61"/><circle class="cls-2" cx="340.8" cy="185.71" r="8.61"/><circle class="cls-2" cx="340.8" cy="43.74" r="8.61"/><circle class="cls-2" cx="340.8" cy="120.31" r="8.61"/><text class="cls-8" transform="translate(361.69 274.97)"><tspan x="0" y="0">human</tspan></text><text class="cls-8" transform="translate(361.69 343.75)"><tspan x="0" y="0">chicken</tspan></text><text class="cls-8" transform="translate(361.69 409.77)"><tspan x="0" y="0">frog</tspan></text><text class="cls-8" transform="translate(361.69 486)"><tspan x="0" y="0">salmon</tspan></text><text class="cls-8" transform="translate(361.69 549.64)"><tspan x="0" y="0">z. fish</tspan></text><path class="cls-13" d="M336.93,468.25h-45.55c-2.9,0-2.9,4.5,0,4.5h45.55c2.9,0,2.9-4.5,0-4.5h0Z"/><path class="cls-13" d="M336.93,532.38h-45.55c-2.9,0-2.9,4.5,0,4.5h45.55c2.9,0,2.9-4.5,0-4.5h0Z"/><path class="cls-13" d="M293.63,534.63v-64.13c0-2.9-4.5-2.9-4.5,0v64.13c0,2.9,4.5,2.9,4.5,0h0Z"/><path class="cls-13" d="M339.66,258.02h-45.55c-2.9,0-2.9,4.5,0,4.5h45.55c2.9,0,2.9-4.5,0-4.5h0Z"/><path class="cls-13" d="M340.57,326.17c-5.32,.04-10.64,.07-15.96,.11l-25.57,.17c-1.95,.01-3.89,.03-5.84,.04-2.89,.02-2.9,4.52,0,4.5,5.32-.04,10.64-.07,15.96-.11l25.57-.17c1.95-.01,3.89-.03,5.84-.04,2.89-.02,2.9-4.52,0-4.5h0Z"/><path class="cls-13" d="M295.45,328.73v-68.56c0-2.9-4.5-2.9-4.5,0v68.56c0,2.9,4.5,2.9,4.5,0h0Z"/><path class="cls-13" d="M291.38,291.89h-45.55c-2.9,0-2.9,4.5,0,4.5h45.55c2.9,0,2.9-4.5,0-4.5h0Z"/><path class="cls-13" d="M336.93,391.54h-79.86c-3.68,0-7.39-.15-11.06,0-.05,0-.11,0-.16,0-2.9,0-2.9,4.5,0,4.5h79.86c3.68,0,7.39,.15,11.06,0,.05,0,.11,0,.16,0,2.9,0,2.9-4.5,0-4.5h0Z"/><path class="cls-13" d="M248.08,393.79v-87.4c0-4.01,.16-8.07,0-12.08,0-.06,0-.12,0-.17,0-2.9-4.5-2.9-4.5,0v87.4c0,4.01-.16,8.07,0,12.08,0,.06,0,.12,0,.17,0,2.9,4.5,2.9,4.5,0h0Z"/><path class="cls-13" d="M245.83,339.39h-49.09c-2.9,0-2.9,4.5,0,4.5h49.09c2.9,0,2.9-4.5,0-4.5h0Z"/><path class="cls-13" d="M285.61,500.31H156.02c-5.94,0-11.92-.19-17.86,0-.08,0-.16,0-.24,0-2.9,0-2.9,4.5,0,4.5h129.59c5.94,0,11.92,.19,17.86,0,.08,0,.16,0,.24,0,2.9,0,2.9-4.5,0-4.5h0Z"/><path class="cls-13" d="M140.16,502.56V238.56c0-3.57,.07-7.14,0-10.7,0-.16,0-.31,0-.47,0-2.9-4.5-2.9-4.5,0V491.39c0,3.57-.07,7.14,0,10.7,0,.16,0,.31,0,.47,0,2.9,4.5,2.9,4.5,0h0Z"/><g><g><line class="cls-4" x1="134.86" y1="358.12" x2="134.96" y2="358.12"/><line class="cls-1" x1="135.15" y1="358.12" x2="138.1" y2="358.14"/><line class="cls-4" x1="138.2" y1="358.14" x2="138.3" y2="358.14"/></g><g><line class="cls-4" x1="120.19" y1="358.06" x2="120.4" y2="358.06"/><line class="cls-1" x1="120.8" y1="358.06" x2="126.99" y2="358.09"/><line class="cls-4" x1="127.19" y1="358.09" x2="127.4" y2="358.09"/></g><g><line class="cls-4" x1="105.48" y1="357.99" x2="105.69" y2="357.99"/><line class="cls-1" x1="106.09" y1="358" x2="112.28" y2="358.02"/><line class="cls-4" x1="112.48" y1="358.02" x2="112.69" y2="358.03"/></g><g><line class="cls-4" x1="90.76" y1="357.93" x2="90.97" y2="357.93"/><line class="cls-1" x1="91.37" y1="357.93" x2="97.57" y2="357.96"/><line class="cls-4" x1="97.77" y1="357.96" x2="97.98" y2="357.96"/></g><g><line class="cls-4" x1="79.87" y1="357.88" x2="79.97" y2="357.88"/><line class="cls-1" x1="80.16" y1="357.88" x2="83.11" y2="357.9"/><line class="cls-4" x1="83.2" y1="357.9" x2="83.3" y2="357.9"/></g></g><circle class="cls-6" cx="293.2" cy="294.46" r="8.61"/><circle class="cls-6" cx="245.83" cy="341.64" r="8.61"/><circle class="cls-6" cx="136.81" cy="358.14" r="8.61"/><circle class="cls-6" cx="291.38" cy="502.56" r="8.61"/><circle class="cls-2" cx="340.8" cy="470.5" r="8.61"/><circle class="cls-2" cx="340.8" cy="534.63" r="8.61"/><circle class="cls-2" cx="340.8" cy="393.79" r="8.61"/><circle class="cls-2" cx="340.8" cy="259.86" r="8.61"/><circle class="cls-2" cx="340.8" cy="328.42" r="8.61"/><g><path class="cls-12" d="M101.73,329.7c5.48,5.48,10.96,10.96,16.45,16.45l2.34,2.34c2.05,2.05,5.23-1.13,3.18-3.18-5.48-5.48-10.96-10.96-16.45-16.45-.78-.78-1.56-1.56-2.34-2.34-2.05-2.05-5.23,1.13-3.18,3.18h0Z"/><path class="cls-12" d="M120.52,326.52c-5.48,5.48-10.96,10.96-16.45,16.45-.78,.78-1.56,1.56-2.34,2.34-2.05,2.05,1.13,5.23,3.18,3.18,5.48-5.48,10.96-10.96,16.45-16.45l2.34-2.34c2.05-2.05-1.13-5.23-3.18-3.18h0Z"/></g><path class="cls-13" d="M293.2,79.66c-5.06,0-10.13,0-15.19,0-8.12,0-16.24,0-24.36,0-1.86,0-3.71,0-5.57,0-2.9,0-2.9,4.5,0,4.5,5.06,0,10.13,0,15.19,0h24.36c1.86,0,3.71,0,5.57,0,2.9,0,2.9-4.5,0-4.5h0Z"/><circle class="cls-6" cx="293.2" cy="81.91" r="8.61"/><text class="cls-7" transform="translate(745.14 127.39)"><tspan x="0" y="0">A</tspan></text><text class="cls-8" transform="translate(745.05 349.52)"><tspan x="0" y="0">B</tspan></text><path d="M735.29,331.81v3.56c-1.41,.03-2.56,.33-3.45,.92s-1.48,1.37-1.77,2.37-.45,69.74-.47,72.17-.07,4.03-.16,4.8c-.16,1.24-.47,2.22-.92,2.96s-1,1.32-1.66,1.77-1.5,.78-2.53,1.01c-.7,.16-1.83,.24-3.41,.24h-1.54v-3.43h.85c1.91,0,3.17-.27,3.79-.82s.93-1.77,.93-3.68c0-3.64,.08-72.97,.25-73.95,.29-1.61,.88-2.91,1.76-3.87s2.13-1.72,3.74-2.26c-2.11-.8-3.59-1.86-4.45-3.17s-1.29-70.57-1.29-73.7c0-2.84-.05-4.53-.14-5.08-.13-.97-.49-1.65-1.09-2.04s-1.76-.58-3.51-.58h-.85v-3.43h1.54c1.8,0,3.1,.12,3.9,.35,1.17,.32,2.14,.86,2.91,1.61s1.27,1.71,1.5,2.86,.35,3.03,.37,5.65,.17,71.46,.47,72.45,.88,1.79,1.77,2.37,2.04,.89,3.45,.92Z"/><text class="cls-8" transform="translate(745.06 517.58)"><tspan x="0" y="0">out</tspan></text><path d="M735.29,500.31v4.48c-1.41,.04-2.56,.42-3.45,1.15s-1.48,1.73-1.77,2.98-.45,26.88-.47,29.94-.07,5.08-.16,6.05c-.16,1.56-.47,2.8-.92,3.73s-1,1.67-1.66,2.23-1.5,.99-2.53,1.28c-.7,.2-1.83,.3-3.41,.3h-1.54v-4.32h.85c1.91,0,3.17-.34,3.79-1.03s.93-2.23,.93-4.63c0-4.58,.08-30.95,.25-32.18,.29-2.03,.88-3.66,1.76-4.88s2.13-2.17,3.74-2.85c-2.11-1.01-3.59-2.34-4.45-4s-1.29-27.92-1.29-31.86c0-3.57-.05-5.71-.14-6.41-.13-1.23-.49-2.09-1.09-2.57s-1.76-.73-3.51-.73h-.85v-4.32h1.54c1.8,0,3.1,.15,3.9,.44,1.17,.4,2.14,1.08,2.91,2.03s1.27,2.15,1.5,3.6,.35,3.82,.37,7.12,.17,29.04,.47,30.3,.88,2.25,1.77,2.98,2.04,1.12,3.45,1.15Z"/><polygon class="cls-11" points="691.53 35.49 707.69 37.89 695.95 49.25 698.67 65.36 684.23 57.72 669.75 65.28 672.56 49.18 660.89 37.75 677.07 35.44 684.34 20.82 691.53 35.49"/><polygon class="cls-11" points="691.53 105.82 707.69 108.22 695.95 119.59 698.67 135.7 684.23 128.05 669.75 135.61 672.56 119.52 660.89 108.08 677.07 105.78 684.34 91.15 691.53 105.82"/><polygon class="cls-11" points="691.53 176.15 707.69 178.55 695.95 189.92 698.67 206.03 684.23 198.38 669.75 205.94 672.56 189.85 660.89 178.41 677.07 176.11 684.34 161.48 691.53 176.15"/><text class="cls-8" transform="translate(674.92 269.11)"><tspan x="0" y="0">-</tspan></text><text class="cls-8" transform="translate(674.91 339.44)"><tspan x="0" y="0">-</tspan></text><text class="cls-8" transform="translate(674.91 409.77)"><tspan x="0" y="0">-</tspan></text><rect class="cls-10" x="94.33" y="561.25" width="126.37" height="61.13"/><text class="cls-8" transform="translate(105.14 595.57)"><tspan x="0" y="0">time</tspan></text><path d="M735.29,111.86v3.4c-1.41,.03-2.56,.32-3.45,.88-.89,.56-1.48,1.31-1.77,2.26s-.45,66.65-.47,68.97-.07,3.85-.16,4.59c-.16,1.18-.47,2.12-.92,2.83s-1,1.27-1.66,1.69-1.5,.75-2.53,.97c-.7,.15-1.83,.23-3.41,.23h-1.54v-3.27h.85c1.91,0,3.17-.26,3.79-.78s.93-1.69,.93-3.51c0-3.48,.08-69.74,.25-70.67,.29-1.54,.88-2.78,1.76-3.7,.88-.92,2.13-1.64,3.74-2.16-2.11-.76-3.59-1.78-4.45-3.03s-1.29-67.44-1.29-70.43c0-2.71-.05-4.33-.14-4.86-.13-.93-.49-1.58-1.09-1.95s-1.76-.55-3.51-.55h-.85v-3.27h1.54c1.8,0,3.1,.11,3.9,.33,1.17,.31,2.14,.82,2.91,1.54s1.27,1.63,1.5,2.73,.35,2.9,.37,5.4,.17,68.29,.47,69.24,.88,1.71,1.77,2.26,2.04,.85,3.45,.88Z"/><text class="cls-8" transform="translate(89.26 72.71)"><tspan x="0" y="0">anc</tspan><tspan class="cls-9" x="90.79" y="0">A</tspan></text><text class="cls-8" transform="translate(1.75 162.66)"><tspan x="0" y="0">ancAB</tspan></text><rect class="cls-10" x="63.94" y="423.55" width="131.92" height="64.13"/><text class="cls-8" transform="translate(1.75 470.45)"><tspan x="0" y="0">ancFamily</tspan></text><g id="_1cBJsU"><path d="M629.76,213.73c-.38-.04-.61,.06-.67,.42-.83,1.29-2.01,2.4-2.17,4.04-.48,1.15-.75,.83,.09,2.04-2.59-.82-.42-5.91,.35-7.6,.92-2.72,4.33-4.66,2.72-7.58,.06-.48-.01-.53-.48-.35-19.56,8.37-16.87-9.14-22.19-5.93-1.02-.03-2.02,.86-2.99,.41-.19-.14-.39,0-.58,.07-.44,.17-.88,.27-1.28-.12-.14-.13-.28-.12-.3,.08-.52,.94-2-.23-2.81,.31-.36,.11-1.81,.45-.98-.34-4.21,1.19-8.77-.45-12.93-.32,1.11,.33-.29,1.11-.27,1.87-.46,0-.38,.75-.95,.64-.27-.05-.08,.27-.06,.3,.27,2.16-3.14,2.21-4.66,2.43-.64-.08-1.72,.26-1.97-.53-.05-.14-.02-.33-.24-.37-.08,.19,.05,.41-.09,.6-.27-.06-.44-.92-.62-.18-1.54,.32-3.79-.02-5.4-.46,2.73-.82-.35-.71-.37-1.77,.52-.53,1.41,.46,2.1,.37,1.42,.19-1.28-1.77-1.24-2.36,.02-.26,.26-.45,.39-.15,.71,.85,1.78,1.81,2.81,2.03,.11-.96-.55-2.05-.73-3.14,.7,.18,.09,.88,.77,1,.77,.57,1.19,1.72,1.94,2.4,.07,.08,.19,.18,.28,.08,.92-.56,2.02-.69,3.04-1.1,.4-.09,.49-.46,.6-.79,.4-1.27,.55-1.36-1-1.73-.84-.24-1.67-.57-2.48-.84-.1-.64-.61-.42-.99-.51-.61-.11-3.59-1.49-1.9-1.69-4.5-1.46-6.41-6.25-1.76-9.47,1.01-.99,1.5-2.5,3.21-2.41,.38-.11,.36-.68,.9-.61,.78-.32,1.57-.91,2.42-.84-.01-.53,.37-.31,.6-.33,.95-.3,.72-1.85,.53-2.66-.68-1.83-2.31-3.09-3.49-4.61-.75-1.12-1.51,.21-2.28,.14-.24-.58,.95-.77,.75-1.39-.9-.63-2.36-.43-3.58-.47,2-1.21,.6-.57,.18-1.6,4.13-.56,8.24,1.1,11.4,3.97,4.04,7.69,.48,5.14,9.74,4.3,4.52-1.6,9.77-2.88,14.53-1.27,2.33-3.04,3.51-9.7,8.87-10.09,4.2-.75,8.47,1.54,11.88,2.64,.27-.56-.15-1.25,.38-1.7,1.09-1.12-.76-2.66-1.28-3.67-1.31-2.87-4.7-8.75-1.4-10.87,.18,.16,.01,.32-.12,.43-.51,.59,.33,1.84,.53,2.43-.27,.33,.2,.7-.08,1.04-.06,.07,.12,.2,.22,.27,.67,.42,.21,1.64,1.26,1.73,.45-.36-.33-1.33-.36-1.89-.79-1.76-.32-3.56-.11-5.35,.42-1.79,1.02,4.78,1.6,5.24,.09,.62,1.03,1.11,.96,1.68-.45,.41,.05,.35,.19,.39,.16,.05,.22,.13,.1,.21-.47,.57,.88,.74,1.01,1.36,.08-.38,.12-.74-.01-1.11,.64-.71-.04-1.98,.93-2.41,.71-.22,.47-1.4,1.31-1.23,.67,.13,.2,1.36,.09,1.83-.23,1.29-.03,2.62,.54,3.8,3.07,8.07-2.48,20.78-12.52,16.06-.25-.08-.42-.04-.36,.27,.29,2.07-.1,4.19-.18,6.28-1.43,3.67,2.15,7.31,1.16,11.24,5.26-.39,10.47-3.1,13.11,4.71,1.84,4.8,.78,10.15-.23,14.93-.15,.68,.84,2,.14,2.48-.69,.04-.78-1.18-1.26-1.58-1.08-1.21-.45-3.07-1.1-4.25-1.42,1.47-2.1,3.63-3.21,5.36,.28,.59-.3,.96-.36,1.46-.16,.63,.11,1.43-.36,1.94-1.31-2.47,.37-5.25,.75-7.59Z"/></g><g id="z7AOf1"><g><path class="cls-10" d="M607.05,545.05c1.34-.93,1.86,1.19,2.64,1.9,2.36,2.38,5.78,7.37,9.41,4.5,2.53-2.64,9.54-6.13,8.12-10.35,5.86-.2,10.92,2.51,15.58,5.79,5.68,4.09,11.91,4.4,6.6-3.87-.36-1.48-3.01-2.8-.77-3.96,11.27-8.89,1.36-10.85-7.52-7.38-6.16,2.17-12.54,.46-18.76-.63,3.01-2.67-.09-5.86-2.61-7.45-3.49-2.27-7.24,1.43-10.41,2.79-8.24,2.45-17.74,.62-26.18,3.59-4.14,1.74-19.89,3.03-19.64,7.72-1.58-1.14-1.62,.95-.9,1.86,8.54,8.33,22.54,7.8,33.72,7.54,1.63-.19,1.06,2.57,1.94,3.55,2.28,4.6,11.02-1.76,8.79-5.6Z"/><path d="M607.05,545.05c2.26,3.84-6.53,10.19-8.79,5.6-.87-.98-.32-3.74-1.94-3.55-11.18,.27-25.18,.79-33.72-7.53-.68-.9-.72-3.01,.9-1.86-.29-3.77,7.41-4.23,10.27-5.31,7.68-2.04,15.39-4.22,23.36-4.66,4.01-.68,8.57,.7,12.18-1.34,3.18-1.35,6.93-5.05,10.41-2.79,2.51,1.6,5.63,4.78,2.6,7.45,6.22,1.08,12.6,2.8,18.76,.63,8.88-3.46,18.8-1.52,7.52,7.38-2.25,1.15,.41,2.48,.77,3.96,5.3,8.25-.9,7.98-6.6,3.87-4.65-3.29-9.72-5.99-15.58-5.79,1.43,4.21-5.59,7.71-8.12,10.35-3.63,2.87-7.05-2.13-9.41-4.5-.78-.71-1.29-2.83-2.64-1.9Z"/></g></g><path d="M560.92,471.39c.78-2.35,.42-.93,4.07-2.68,8.91-3.52,16.81-6.41,26.88-6.52,13.06-.49,5.59,2.19,12.1-7.68,1.12-1.28,1.16-1.56,1.91-.91,1.63,1.09,1.51,1.2,3.5,2.77,1.03,.85,1.39,1,1.97,1.47,.77,.85,1.89,2.48,2.64,3.26-.36,.45-2.68,.86-2.7,1.72,4.49,.58,11.01,1.23,14.44,1.95,.85,.33,4.46,1.11,6.22,.48,1.17-.49,3.77-1.05,3.88,.66-.27,.63-3.98-.46-2.27,.84,1.8,.37,5.1,1.36,6.75,1.2,3.3-.64,8.08-7.33,11.24-8.9,5.86-2.71,2.31-.42,2.15,2.45,.06,.55,.25,2.65,.3,3.29,1.02,3.14,.74,8,.6,11.18-.11,1.09-.53,1.58-.78,2.45,.27,1.3,.32,2.46,.48,3.65,.67,1.67,2.06,2.56-.18,2.15-8.14-2.96-10.81-13.16-21.04-8.37,1.14,1.17,4.87-.86,1.67,1.91-1.66,2.32-4.37,4.6-6.81,6.04-.97,1.45-1.34,1.45-2.51,.18-.54-.06-2.46-4.37-3.29-4.54-.62,.86-2.02,1.24-2.87,.9-1.76-.29-1.62,.43-6.28,.72-2.04,.12-3.8,.09-3.82,.36,4.21,2.61,2.73,3.23,1.31,7.28-1.42-1.03-3.29-4.72-3.68-5.81-.09-.61-1.14-.13-1.6-.2-13.11,1.46-23.71-.1-37.3-4.05-5.54-1.35-4.18-1.56-5.57-1.88-.5,.06-1.72-.84-1.95-1.32-.26-1.03,1.41-.34,2-.53,1.95,.1,2.66-.28,4.24-.54-.09-.59-3.15-2.16-3.41-2.15-.59-.51-2.41,.31-2.32-.81Z"/><path d="M575.52,99.54c-.32-.95,.46-1.92,.97-2.64-.49-.47-.35-1.47,.18-1.93,.1-.49-.25-1.1,.03-1.82,.77-1.06-.18-2.66,.43-3.67,.23-.17,.73,2.21,1.2,2.27,.83,.11,.35-.42,.05-1.35-.2-.4-.38-2.14-.03-2.48,.5,.27,.59,3.14,1.82,3.07,.44-.35-.29-3.67,.26-4.23,.78,.23,.41,4.4,1.36,3.41,.19-.5-.19-1.96,.36-2.31-.14,1.47,.56,4.19,2.12,.99,1.43-1.66-.48,2.4,1.95,.84,.66-.08,.34,.22,.33,.65,.95,.79,.63,1.27-.73,2.18-1.11,.62-1.33,.76-.26,.93,2.5,.87,3.84,3.16,5.69,5.65,4.73,8.65,13.43,11.22,21.95,8.4,5.71-6.18,5.59-2.24,10.58-5.1,2.17-.86,4.65-1.8,5.11,.88,.71-.11,1.65,.44,1.79,1.14,.96,2.11-.65,.33-1.57,1.31,.71,1.18-.53,.12-1.24,.66-.08,.51-.39,1.43-.61,1.86,.07,.44,.66,2.41,.28,2.58-.24,.08-.61-1.26-1.3-1.27-1.16,.13-1.27,1.94-.17,2.43,.17,1.1,.16,2.2,.04,3.3-.44-.66-.87-1.32-1.31-1.98,.44,1.57,.79,4.26,.34,5.68-.59-.32-.7-.67-.69,.46-.03,3.33-1.33-.36-1.78,3.33-.37,1.38-.63,1.79-1.61,1.09-1.36,1.84-.71,3.35-4.42,2.93,1.69,8.62-16.35,6.84-14.66,18.85,.3,.38,.38,.7-.29,.67-.86,.44,1.46,4.25,1.35,4.22-.25,.3-1.47-.83-1.91-1-.37,1.25-3.91,1.5-4.5,1.61-.12-.36,2.1-1.52,2.17-1.49-1,.34-5.22,2-2.04-.07,3.47-1.56,3.21-4.36,3.68-8.78-1.46,.87-3.06,4.99-3.04,6.59,1.65,1.11-1.59,.29-.47,2.55,.08,.62,.84,2.01,1.81,2.16-.74,.68-1.62-.74-2.43-1.03-.81,2.45-.85,1.49-3.48,1.85-.52-.15-2.95,.97-3.07,.89-.35-.47,1.23-1.52,1.34-1.42-1.3,.03-3.52,.87-4.83,.68,1.51-1.74,4.91-1.27,7.1-2.59,.74-2.8,3.55-4.95,2.37-7.42-.46-.77-3.24-2-3.37-3.27,.29-3.32,1.01-6.01-2.4-8.1-1.55-2.99-4.04-2.64-6.23-4.93-4.39-3.22-6.64-11.25-3.83-17.14-.07-.3,.27-5.81,.3-6.11-.69,.49-2.27,.51-1.99-.61,.08-.69,.72-.88,.7-1.5-2.33-1.52,1.17-4.02-3.42-1.88Z"/><path d="M621.49,84.76c-2.65,.03-4.76-.33-6.86,1.3-1.03,.4-1.56-.2-2.44-.22-.95,.31-2.06,.56-1.93-.93,.55-.89,2.99-.93,3.66-1.59,.62-.66,2.12-1.75,2.82-2.37,.58-5.75-2.89-10.66-4.59-16.25-.46-.46-.59-1.05-.99-1.66-.52-.19-1.23-.85-1.1-1.51,.23-.93-1.15-3.42-1.46-4.02-.56-1.23-.91-2.67-1.57-4.36-.72,1.28-2.72,4.19-4.13,5.57-1.33,1.24-2.07,1.86-2.58,3.87,1.72,6.12-3.97,10.35-6.73,16.44-.59,.87-1.45,2.23-1.68,3.66-.5,1.9-.36,2.05-1.41,2.39-1.1,.23-1.58-.96-3.2-1.64-2.3-.67-2.93-.19-4.46-1.75-2.19-.44-2.95-2.41-3.3-4.42,.61-.46,.74,.32,1.23,.64,.81,.02,1.77,.12,2.51,.68,.64,.25,.97,.04,2.03-.04,2.96-.23,3.45,1.14,4.54-1.07,2.65-6.09,4.32-10.72,5.43-16.73-.65-1.62,.46-1.8,.87-3.08,.7-2.42,2.27-7.39,2.76-8.9-.02-.18,2.51-5.03,3.53-6.15,.17-.18-.29-.97-.26-1-.61-1.92-.77-4.46-.54-6.44,.26,.18,.17,.27-.18,.61-1.11,1.25-3.48,3.67-5.05,5.44-.13,.65-.09,1.16-.43,1.47-.8,.64-1.38,1.7-1.15,2.79-.12,.16,1,1.32,.3,1.31-.68-.31-.26,.7-1.2-.22-.55-.64,.53,1.13-.48,.76-.15,.05-.46-.4-.46-.51-1.04,1.75-1.62-2.49-1.35-3.11-.07-.78,.13-.9,.72-1.45,.7-1.08,1.57-1.75,2.38-2.81,1.15-1.32,1.78-4.02,3.02-5.79,.52-.92,2.86-2.89,2.93-3.3,.27-.7-.08-.82,.07-2.07,.16-1.3,.58-1.43,.49-2.32-.08-.87-.5-.86-.64-1.75-.14-2.37,.94-2.89,2.01-4.29,.77-1.67,.81-2.18,1.65-3.49,.16-.89-.28-1.55-.38-2.52-.73-.09-1.69,.38-2.18-.13-.32-.33,.14-1-.14-1.28-.41-.17-.78-.03-.79-.7-.32-.56-.38-.53-.02-1.01,.04-.14,.07-.4-.06-.54-2.23,.11-.2-1.49-.38-2.67-.69-.61-.58-2.52-.3-3.38,.48-.49,.15-.94-.04-1.37,.82-1.52,5.26-3.32,7.02-2.8,4.65,2.49,3.11,2.97,5.26,8.28,.46,1.3,2.46,5.32,2.25,7.13-1.24,1.65-2.59,1.45-.61,3.2,.59,.82,.38,1.37,.52,2.22,.38,1.3,1.27,1.97,1.77,3.4,.46,2.22,2.04,4.84,2.69,6.64-.14,1.2,.42,.89,1.16,2.88,2.06,4.46,1.61,7.33,2.03,10.61,1.89,.55,1.83,2.61,2.91,3.72,.4,.38,.91,.84,1.26,1.01,.34,.07,.67,.07,.62,.41-.02,.4-.67,.23-.4,.56,.15,.44-.84,.51-.97,.62,.52,.31,.04,.79-.47,.82-.36,.14-.38,.04-.56,.08,.67,.44-.45,.8-.86,.72-.37,.02-.88-.59-1.28-.45,.1,.33-.18,.81-.66,.5-.03-.02-.07-.06-.21-.36-.18-.4-.17-.44-.26-.56-.5-.26-.32-.67-.39-1.2-.03-.32-.6-.7-.65-1.14-.16-.56,.08-1.06-.29-1.47-.31-.3-.4-.79-.39-1.14,.09,.04-.62-1.7-.6-1.69,0-2.48-1.27-5.92-2.15-7.83-1.96-4.68,.11-3.63-4.21-7.51-.22,2.06-1.18,5.69-.53,7.75,.5,1.38,1.93,3.33,1.86,5.4,.24,.96-.72,2.33-.79,3.14,.39,1.05,1.43,4.4,1.53,5.21,.4,2.23,1.2,5.02,1.34,6.87,.3,3.41-.26,1.64,.35,3.66,4.31,4.08,3.03,9.91,4.39,15.38,.13,.91,.76,3.27,1.26,4.14,1.03,1.56,2.11,3.54-.47,3.74Z"/><g><path class="cls-13" d="M196.43,80.85c3.84,4.7,7.69,9.4,11.53,14.11,6.12,7.49,12.25,14.98,18.37,22.46,1.4,1.71,2.8,3.42,4.19,5.13,.77,.94,2.38,.8,3.18,0,.93-.93,.77-2.24,0-3.18-3.84-4.7-7.69-9.4-11.53-14.11-6.12-7.49-12.25-14.98-18.37-22.46-1.4-1.71-2.8-3.42-4.19-5.13-.77-.94-2.38-.8-3.18,0-.93,.93-.77,2.24,0,3.18h0Z"/><path class="cls-13" d="M230.85,120.92c1.93,0,1.93-3,0-3s-1.93,3,0,3h0Z"/><path class="cls-13" d="M233.82,118.47c-3.05-4.29-4.78-9.26-5-14.36-.05-1.21-1-2.25-2.25-2.25-1.18,0-2.3,1.03-2.25,2.25,.25,5.94,2.17,11.77,5.61,16.63,.7,.99,1.96,1.46,3.08,.81,.98-.57,1.51-2.08,.81-3.08h0Z"/><path class="cls-13" d="M232.35,119.2c-4.05-4.33-9.37-7.44-15.13-8.86-1.14-.28-2.49,.36-2.77,1.57s.35,2.47,1.57,2.77c1.31,.32,2.59,.73,3.84,1.23,.04,.01,.42,.17,.26,.11-.16-.07,.38,.17,.37,.16,.28,.13,.56,.26,.83,.39,.62,.31,1.23,.63,1.83,.98,.56,.33,1.12,.68,1.66,1.05,.29,.19,.57,.39,.85,.6,.12,.09,.25,.18,.37,.28-.19-.14,.02,.02,.09,.07,1.08,.87,2.09,1.81,3.04,2.82,.81,.86,2.38,.88,3.18,0,.85-.92,.86-2.26,0-3.18h0Z"/></g><g><path class="cls-13" d="M143.38,174.64c3.84,4.7,7.69,9.4,11.53,14.11,6.12,7.49,12.25,14.98,18.37,22.46,1.4,1.71,2.8,3.42,4.19,5.13,.77,.94,2.38,.8,3.18,0,.93-.93,.77-2.24,0-3.18-3.84-4.7-7.69-9.4-11.53-14.11-6.12-7.49-12.25-14.98-18.37-22.46-1.4-1.71-2.8-3.42-4.19-5.13-.77-.94-2.38-.8-3.18,0-.93,.93-.77,2.24,0,3.18h0Z"/><path class="cls-13" d="M177.8,214.7c1.93,0,1.93-3,0-3s-1.93,3,0,3h0Z"/><path class="cls-13" d="M180.78,212.25c-3.05-4.29-4.78-9.26-5-14.36-.05-1.21-1-2.25-2.25-2.25-1.18,0-2.3,1.03-2.25,2.25,.25,5.94,2.17,11.77,5.61,16.63,.7,.99,1.96,1.46,3.08,.81,.98-.57,1.51-2.08,.81-3.08h0Z"/><path class="cls-13" d="M179.3,212.98c-4.05-4.33-9.37-7.44-15.13-8.86-1.14-.28-2.49,.36-2.77,1.57s.35,2.47,1.57,2.77c1.31,.32,2.59,.73,3.84,1.23,.04,.01,.42,.17,.26,.11-.16-.07,.38,.17,.37,.16,.28,.13,.56,.26,.83,.39,.62,.31,1.23,.63,1.83,.98,.56,.33,1.12,.68,1.66,1.05,.29,.19,.57,.39,.85,.6,.12,.09,.25,.18,.37,.28-.19-.14,.02,.02,.09,.07,1.08,.87,2.09,1.81,3.04,2.82,.81,.86,2.38,.88,3.18,0,.85-.92,.86-2.26,0-3.18h0Z"/></g><g><path class="cls-13" d="M99.9,420.3c2.66-4.74,5.33-9.48,7.99-14.21,4.22-7.51,8.44-15.02,12.66-22.52,.97-1.73,1.94-3.45,2.91-5.18,1.42-2.53-2.46-4.8-3.89-2.27-2.66,4.74-5.33,9.48-7.99,14.21-4.22,7.51-8.44,15.02-12.66,22.52-.97,1.73-1.94,3.45-2.91,5.18-1.42,2.53,2.46,4.8,3.89,2.27h0Z"/><path class="cls-13" d="M120.54,380.49c1.93,0,1.93-3,0-3s-1.93,3,0,3h0Z"/><path class="cls-13" d="M118.4,376.83c-.37,.56-.75,1.1-1.15,1.64s.28-.34-.14,.18c-.08,.1-.17,.21-.25,.31-.21,.26-.43,.51-.65,.76-.91,1.02-1.89,1.98-2.93,2.87-.25,.22-.52,.42-.77,.63-.28,.23,.41-.3-.1,.08-.13,.1-.27,.2-.4,.3-.54,.39-1.09,.76-1.66,1.12-1.16,.72-2.38,1.36-3.63,1.91-1.08,.48-1.41,2.14-.81,3.08,.72,1.12,1.92,1.32,3.08,.81,5.44-2.39,10.06-6.44,13.3-11.4,.65-.99,.23-2.53-.81-3.08-1.12-.59-2.39-.25-3.08,.81h0Z"/><path class="cls-13" d="M119.92,377.44c-2.56,5.38-3.64,11.39-2.86,17.31,.16,1.2,.92,2.25,2.25,2.25,1.09,0,2.41-1.04,2.25-2.25-.68-5.16,.02-10.35,2.25-15.04,.52-1.1,.3-2.43-.81-3.08-.98-.57-2.55-.3-3.08,.81h0Z"/></g><text class="cls-8" transform="translate(674.92 486)"><tspan x="0" y="0">-</tspan></text><text class="cls-8" transform="translate(674.92 555.59)"><tspan x="0" y="0">-</tspan></text><g id="_1cBJsU-2"><path d="M629.76,435.73c-.38-.04-.61,.06-.67,.42-.83,1.29-2.01,2.4-2.17,4.04-.48,1.15-.75,.83,.09,2.04-2.59-.82-.42-5.91,.35-7.6,.92-2.72,4.33-4.66,2.72-7.58,.06-.48-.01-.53-.48-.35-19.56,8.37-16.87-9.14-22.19-5.93-1.02-.03-2.02,.86-2.99,.41-.19-.14-.39,0-.58,.07-.44,.17-.88,.27-1.28-.12-.14-.13-.28-.12-.3,.08-.52,.94-2-.23-2.81,.31-.36,.11-1.81,.45-.98-.34-4.21,1.19-8.77-.45-12.93-.32,1.11,.33-.29,1.11-.27,1.87-.46,0-.38,.75-.95,.64-.27-.05-.08,.27-.06,.3,.27,2.16-3.14,2.21-4.66,2.43-.64-.08-1.72,.26-1.97-.53-.05-.14-.02-.33-.24-.37-.08,.19,.05,.41-.09,.6-.27-.06-.44-.92-.62-.18-1.54,.32-3.79-.02-5.4-.46,2.73-.82-.35-.71-.37-1.77,.52-.53,1.41,.46,2.1,.37,1.42,.19-1.28-1.77-1.24-2.36,.02-.26,.26-.45,.39-.15,.71,.85,1.78,1.81,2.81,2.03,.11-.96-.55-2.05-.73-3.14,.7,.18,.09,.88,.77,1,.77,.57,1.19,1.72,1.94,2.4,.07,.08,.19,.18,.28,.08,.92-.56,2.02-.69,3.04-1.1,.4-.09,.49-.46,.6-.79,.4-1.27,.55-1.36-1-1.73-.84-.24-1.67-.57-2.48-.84-.1-.64-.61-.42-.99-.51-.61-.11-3.59-1.49-1.9-1.69-4.5-1.46-6.41-6.25-1.76-9.47,1.01-.99,1.5-2.5,3.21-2.41,.38-.11,.36-.68,.9-.61,.78-.32,1.57-.91,2.42-.84-.01-.53,.37-.31,.6-.33,.95-.3,.72-1.85,.53-2.66-.68-1.83-2.31-3.09-3.49-4.61-.75-1.12-1.51,.21-2.28,.14-.24-.58,.95-.77,.75-1.39-.9-.63-2.36-.43-3.58-.47,2-1.21,.6-.57,.18-1.6,4.13-.56,8.24,1.1,11.4,3.97,4.04,7.69,.48,5.14,9.74,4.3,4.52-1.6,9.77-2.88,14.53-1.27,2.33-3.04,3.51-9.7,8.87-10.09,4.2-.75,8.47,1.54,11.88,2.64,.27-.56-.15-1.25,.38-1.7,1.09-1.12-.76-2.66-1.28-3.67-1.31-2.87-4.7-8.75-1.4-10.87,.18,.16,.01,.32-.12,.43-.51,.59,.33,1.84,.53,2.43-.27,.33,.2,.7-.08,1.04-.06,.07,.12,.2,.22,.27,.67,.42,.21,1.64,1.26,1.73,.45-.36-.33-1.33-.36-1.89-.79-1.76-.32-3.56-.11-5.35,.42-1.79,1.02,4.78,1.6,5.24,.09,.62,1.03,1.11,.96,1.68-.45,.41,.05,.35,.19,.39,.16,.05,.22,.13,.1,.21-.47,.57,.88,.74,1.01,1.36,.08-.38,.12-.74-.01-1.11,.64-.71-.04-1.98,.93-2.41,.71-.22,.47-1.4,1.31-1.23,.67,.13,.2,1.36,.09,1.83-.23,1.29-.03,2.62,.54,3.8,3.07,8.07-2.48,20.78-12.52,16.06-.25-.08-.42-.04-.36,.27,.29,2.07-.1,4.19-.18,6.28-1.43,3.67,2.15,7.31,1.16,11.24,5.26-.39,10.47-3.1,13.11,4.71,1.84,4.8,.78,10.15-.23,14.93-.15,.68,.84,2,.14,2.48-.69,.04-.78-1.18-1.26-1.58-1.08-1.21-.45-3.07-1.1-4.25-1.42,1.47-2.1,3.63-3.21,5.36,.28,.59-.3,.96-.36,1.46-.16,.63,.11,1.43-.36,1.94-1.31-2.47,.37-5.25,.75-7.59Z"/></g><path d="M575.52,321.54c-.32-.95,.46-1.92,.97-2.64-.49-.47-.35-1.47,.18-1.93,.1-.49-.25-1.1,.03-1.82,.77-1.06-.18-2.66,.43-3.67,.23-.17,.73,2.21,1.2,2.27,.83,.11,.35-.42,.05-1.35-.2-.4-.38-2.14-.03-2.48,.5,.27,.59,3.14,1.82,3.07,.44-.35-.29-3.67,.26-4.23,.78,.23,.41,4.4,1.36,3.41,.19-.5-.19-1.96,.36-2.31-.14,1.47,.56,4.19,2.12,.99,1.43-1.66-.48,2.4,1.95,.84,.66-.08,.34,.22,.33,.65,.95,.79,.63,1.27-.73,2.18-1.11,.62-1.33,.76-.26,.93,2.5,.87,3.84,3.16,5.69,5.65,4.73,8.65,13.43,11.22,21.95,8.4,5.71-6.18,5.59-2.24,10.58-5.1,2.17-.86,4.65-1.8,5.11,.88,.71-.11,1.65,.44,1.79,1.14,.96,2.11-.65,.33-1.57,1.31,.71,1.18-.53,.12-1.24,.66-.08,.51-.39,1.43-.61,1.86,.07,.44,.66,2.41,.28,2.58-.24,.08-.61-1.26-1.3-1.27-1.16,.13-1.27,1.94-.17,2.43,.17,1.1,.16,2.2,.04,3.3-.44-.66-.87-1.32-1.31-1.98,.44,1.57,.79,4.26,.34,5.68-.59-.32-.7-.67-.69,.46-.03,3.33-1.33-.36-1.78,3.33-.37,1.38-.63,1.79-1.61,1.09-1.36,1.84-.71,3.35-4.42,2.93,1.69,8.62-16.35,6.84-14.66,18.85,.3,.38,.38,.7-.29,.67-.86,.44,1.46,4.25,1.35,4.22-.25,.3-1.47-.83-1.91-1-.37,1.25-3.91,1.5-4.5,1.61-.12-.36,2.1-1.52,2.17-1.49-1,.34-5.22,2-2.04-.07,3.47-1.56,3.21-4.36,3.68-8.78-1.46,.87-3.06,4.99-3.04,6.59,1.65,1.11-1.59,.29-.47,2.55,.08,.62,.84,2.01,1.81,2.16-.74,.68-1.62-.74-2.43-1.03-.81,2.45-.85,1.49-3.48,1.85-.52-.15-2.95,.97-3.07,.89-.35-.47,1.23-1.52,1.34-1.42-1.3,.03-3.52,.87-4.83,.68,1.51-1.74,4.91-1.27,7.1-2.59,.74-2.8,3.55-4.95,2.37-7.42-.46-.77-3.24-2-3.37-3.27,.29-3.32,1.01-6.01-2.4-8.1-1.55-2.99-4.04-2.64-6.23-4.93-4.39-3.22-6.64-11.25-3.83-17.14-.07-.3,.27-5.81,.3-6.11-.69,.49-2.27,.51-1.99-.61,.08-.69,.72-.88,.7-1.5-2.33-1.52,1.17-4.02-3.42-1.88Z"/><path d="M621.49,306.76c-2.65,.03-4.76-.33-6.86,1.3-1.03,.4-1.56-.2-2.44-.22-.95,.31-2.06,.56-1.93-.93,.55-.89,2.99-.93,3.66-1.59,.62-.66,2.12-1.75,2.82-2.37,.58-5.75-2.89-10.66-4.59-16.25-.46-.46-.59-1.05-.99-1.66-.52-.19-1.23-.85-1.1-1.51,.23-.93-1.15-3.42-1.46-4.02-.56-1.23-.91-2.67-1.57-4.36-.72,1.28-2.72,4.19-4.13,5.57-1.33,1.24-2.07,1.86-2.58,3.87,1.72,6.12-3.97,10.35-6.73,16.44-.59,.87-1.45,2.23-1.68,3.66-.5,1.9-.36,2.05-1.41,2.39-1.1,.23-1.58-.96-3.2-1.64-2.3-.67-2.93-.19-4.46-1.75-2.19-.44-2.95-2.41-3.3-4.42,.61-.46,.74,.32,1.23,.64,.81,.02,1.77,.12,2.51,.68,.64,.25,.97,.04,2.03-.04,2.96-.23,3.45,1.14,4.54-1.07,2.65-6.09,4.32-10.72,5.43-16.73-.65-1.62,.46-1.8,.87-3.08,.7-2.42,2.27-7.39,2.76-8.9-.02-.18,2.51-5.03,3.53-6.15,.17-.18-.29-.97-.26-1-.61-1.92-.77-4.46-.54-6.44,.26,.18,.17,.27-.18,.61-1.11,1.25-3.48,3.67-5.05,5.44-.13,.65-.09,1.16-.43,1.47-.8,.64-1.38,1.7-1.15,2.79-.12,.16,1,1.32,.3,1.31-.68-.31-.26,.7-1.2-.22-.55-.64,.53,1.13-.48,.76-.15,.05-.46-.4-.46-.51-1.04,1.75-1.62-2.49-1.35-3.11-.07-.78,.13-.9,.72-1.45,.7-1.08,1.57-1.75,2.38-2.81,1.15-1.32,1.78-4.02,3.02-5.79,.52-.92,2.86-2.89,2.93-3.3,.27-.7-.08-.82,.07-2.07,.16-1.3,.58-1.43,.49-2.32-.08-.87-.5-.86-.64-1.75-.14-2.37,.94-2.89,2.01-4.29,.77-1.67,.81-2.18,1.65-3.49,.16-.89-.28-1.55-.38-2.52-.73-.09-1.69,.38-2.18-.13-.32-.33,.14-1-.14-1.28-.41-.17-.78-.03-.79-.7-.32-.56-.38-.53-.02-1.01,.04-.14,.07-.4-.06-.54-2.23,.11-.2-1.49-.38-2.67-.69-.61-.58-2.52-.3-3.38,.48-.49,.15-.94-.04-1.37,.82-1.52,5.26-3.32,7.02-2.8,4.65,2.49,3.11,2.97,5.26,8.28,.46,1.3,2.46,5.32,2.25,7.13-1.24,1.65-2.59,1.45-.61,3.2,.59,.82,.38,1.37,.52,2.22,.38,1.3,1.27,1.97,1.77,3.4,.46,2.22,2.04,4.84,2.69,6.64-.14,1.2,.42,.89,1.16,2.88,2.06,4.46,1.61,7.33,2.03,10.61,1.89,.55,1.83,2.61,2.91,3.72,.4,.38,.91,.84,1.26,1.01,.34,.07,.67,.07,.62,.41-.02,.4-.67,.23-.4,.56,.15,.44-.84,.51-.97,.62,.52,.31,.04,.79-.47,.82-.36,.14-.38,.04-.56,.08,.67,.44-.45,.8-.86,.72-.37,.02-.88-.59-1.28-.45,.1,.33-.18,.81-.66,.5-.03-.02-.07-.06-.21-.36-.18-.4-.17-.44-.26-.56-.5-.26-.32-.67-.39-1.2-.03-.32-.6-.7-.65-1.14-.16-.56,.08-1.06-.29-1.47-.31-.3-.4-.79-.39-1.14,.09,.04-.62-1.7-.6-1.69,0-2.48-1.27-5.92-2.15-7.83-1.96-4.68,.11-3.63-4.21-7.51-.22,2.06-1.18,5.69-.53,7.75,.5,1.38,1.93,3.33,1.86,5.4,.24,.96-.72,2.33-.79,3.14,.39,1.05,1.43,4.4,1.53,5.21,.4,2.23,1.2,5.02,1.34,6.87,.3,3.41-.26,1.64,.35,3.66,4.31,4.08,3.03,9.91,4.39,15.38,.13,.91,.76,3.27,1.26,4.14,1.03,1.56,2.11,3.54-.47,3.74Z"/></svg>