<?xml version="1.0" encoding="UTF-8"?><svg id="Layer_1" xmlns="http://www.w3.org/2000/svg" viewBox="0 0 1142.62 782.14"><defs><style>.cls-1{stroke-width:3.01px;}.cls-1,.cls-2,.cls-3,.cls-4,.cls-5,.cls-6,.cls-7{fill:none;stroke-linecap:round;}.cls-1,.cls-2,.cls-5,.cls-6,.cls-7{stroke-miterlimit:10;}.cls-1,.cls-5{stroke:#000;}.cls-8{letter-spacing:-.06em;}.cls-8,.cls-9{font-family:ArialMT, Arial;font-size:56.31px;}.cls-2,.cls-3{stroke-dasharray:0 0 10.06 6.03;}.cls-2,.cls-3,.cls-4,.cls-6,.cls-7{stroke:#969696;stroke-width:4px;}.cls-10{fill:#fff;}.cls-11{fill:#da7f27;}.cls-12{fill:#19698a;}.cls-3,.cls-4{stroke-linejoin:round;}.cls-5{stroke-width:2.7px;}.cls-7{stroke-dasharray:0 0 10.04 6.03;}.cls-13{fill:#969696;opacity:.5;}</style></defs><rect class="cls-13" x="482.91" y="136.45" width="192.29" height="351.65"/><text class="cls-9" transform="translate(295.38 187.13)"><tspan x="0" y="0">human</tspan></text><text class="cls-9" transform="translate(276.63 257.35)"><tspan x="0" y="0">chicken</tspan></text><text class="cls-9" transform="translate(370.53 327.57)"><tspan x="0" y="0">frog</tspan></text><text class="cls-9" transform="translate(286.03 397.79)"><tspan x="0" y="0">salmon</tspan></text><text class="cls-9" transform="translate(239.07 468.01)"><tspan x="0" y="0">zebrafish</tspan></text><text class="cls-9" transform="translate(329.86 538.23)"><tspan x="0" y="0">shark</tspan></text><text class="cls-9" transform="translate(389.33 608.45)"><tspan x="0" y="0">ray</tspan></text><text class="cls-9" transform="translate(267.28 678.67)"><tspan x="0" y="0">lamprey</tspan></text><text class="cls-8" transform="translate(513.62 112.81)"><tspan x="0" y="0">A</tspan></text><text class="cls-9" transform="translate(608.82 112.81)"><tspan x="0" y="0">B</tspan></text><path d="M877.98,310.84v3.4c-1.41,.03-2.56,.32-3.45,.88-.89,.56-1.48,1.31-1.77,2.26s-.45,159.65-.47,161.97-.07,3.85-.16,4.59c-.16,1.18-.47,2.12-.92,2.83s-1,1.27-1.66,1.69-1.5,.75-2.53,.97c-.7,.15-1.83,.23-3.41,.23h-1.54v-3.27h.85c1.91,0,3.17-.26,3.79-.78s.93-1.69,.93-3.51c0-3.48,.08-162.74,.25-163.67,.29-1.54,.88-2.78,1.76-3.7,.88-.92,2.13-1.64,3.74-2.16-2.11-.76-3.59-1.78-4.45-3.03s-1.29-160.44-1.29-163.43c0-2.71-.05-4.33-.14-4.86-.13-.93-.49-1.58-1.09-1.95s-1.76-.55-3.51-.55h-.85v-3.27h1.54c1.8,0,3.1,.11,3.9,.33,1.17,.31,2.14,.82,2.91,1.54s1.27,1.63,1.5,2.73,.35,2.9,.37,5.4,.17,161.29,.47,162.24,.88,1.71,1.77,2.26,2.04,.85,3.45,.88Z"/><g id="_1cBJsU"><path d="M356.65,339.31c-.38-.04-.61,.06-.67,.42-.83,1.29-2.01,2.4-2.17,4.04-.48,1.15-.75,.83,.09,2.04-2.59-.82-.42-5.91,.35-7.6,.92-2.72,4.33-4.66,2.72-7.58,.06-.48-.01-.53-.48-.35-19.56,8.37-16.87-9.14-22.19-5.93-1.02-.03-2.02,.86-2.99,.41-.19-.14-.39,0-.58,.07-.44,.17-.88,.27-1.28-.12-.14-.13-.28-.12-.3,.08-.52,.94-2-.23-2.81,.31-.36,.11-1.81,.45-.98-.34-4.21,1.19-8.77-.45-12.93-.32,1.11,.33-.29,1.11-.27,1.87-.46,0-.38,.75-.95,.64-.27-.05-.08,.27-.06,.3,.27,2.16-3.14,2.21-4.66,2.43-.64-.08-1.72,.26-1.97-.53-.05-.14-.02-.33-.24-.37-.08,.19,.05,.41-.09,.6-.27-.06-.44-.92-.62-.18-1.54,.32-3.79-.02-5.4-.46,2.73-.82-.35-.71-.37-1.77,.52-.53,1.41,.46,2.1,.37,1.42,.19-1.28-1.77-1.24-2.36,.02-.26,.26-.45,.39-.15,.71,.85,1.78,1.81,2.81,2.03,.11-.96-.55-2.05-.73-3.14,.7,.18,.09,.88,.77,1,.77,.57,1.19,1.72,1.94,2.4,.07,.08,.19,.18,.28,.08,.92-.56,2.02-.69,3.04-1.1,.4-.09,.49-.46,.6-.79,.4-1.27,.55-1.36-1-1.73-.84-.24-1.67-.57-2.48-.84-.1-.64-.61-.42-.99-.51-.61-.11-3.59-1.49-1.9-1.69-4.5-1.46-6.41-6.25-1.76-9.47,1.01-.99,1.5-2.5,3.21-2.41,.38-.11,.36-.68,.9-.61,.78-.32,1.57-.91,2.42-.84-.01-.53,.37-.31,.6-.33,.95-.3,.72-1.85,.53-2.66-.68-1.83-2.31-3.09-3.49-4.61-.75-1.12-1.51,.21-2.28,.14-.24-.58,.95-.77,.75-1.39-.9-.63-2.36-.43-3.58-.47,2-1.21,.6-.57,.18-1.6,4.13-.56,8.24,1.1,11.4,3.97,4.04,7.69,.48,5.14,9.74,4.3,4.52-1.6,9.77-2.88,14.53-1.27,2.33-3.04,3.51-9.7,8.87-10.09,4.2-.75,8.47,1.54,11.88,2.64,.27-.56-.15-1.25,.38-1.7,1.09-1.12-.76-2.66-1.28-3.67-1.31-2.87-4.7-8.75-1.4-10.87,.18,.16,.01,.32-.12,.43-.51,.59,.33,1.84,.53,2.43-.27,.33,.2,.7-.08,1.04-.06,.07,.12,.2,.22,.27,.67,.42,.21,1.64,1.26,1.73,.45-.36-.33-1.33-.36-1.89-.79-1.76-.32-3.56-.11-5.35,.42-1.79,1.02,4.78,1.6,5.24,.09,.62,1.03,1.11,.96,1.68-.45,.41,.05,.35,.19,.39,.16,.05,.22,.13,.1,.21-.47,.57,.88,.74,1.01,1.36,.08-.38,.12-.74-.01-1.11,.64-.71-.04-1.98,.93-2.41,.71-.22,.47-1.4,1.31-1.23,.67,.13,.2,1.36,.09,1.83-.23,1.29-.03,2.62,.54,3.8,3.07,8.07-2.48,20.78-12.52,16.06-.25-.08-.42-.04-.36,.27,.29,2.07-.1,4.19-.18,6.28-1.43,3.67,2.15,7.31,1.16,11.24,5.26-.39,10.47-3.1,13.11,4.71,1.84,4.8,.78,10.15-.23,14.93-.15,.68,.84,2,.14,2.48-.69,.04-.78-1.18-1.26-1.58-1.08-1.21-.45-3.07-1.1-4.25-1.42,1.47-2.1,3.63-3.21,5.36,.28,.59-.3,.96-.36,1.46-.16,.63,.11,1.43-.36,1.94-1.31-2.47,.37-5.25,.75-7.59Z"/></g><g id="z7AOf1"><g><path class="cls-10" d="M180.68,460.44c.54-.37,.97-.34,1.34,.14,.44,.58,.85,1.19,1.3,1.76,.44,.55,.87,1.12,1.38,1.6,.91,.86,1.93,1.6,2.82,2.48,1.57,1.56,3.46,1.81,5.21,.42,1.11-.87,2.2-1.79,3.2-2.78,1-.99,2.5-1.37,3.22-2.69,.28-.52,.62-1.01,.97-1.49,.71-.99,1.67-1.91,.73-3.39,.39-.02,.63-.07,.86-.04,.97,.13,1.95,.28,2.92,.43,1.06,.17,2.15,.23,3.16,.57,1.21,.4,2.39,.96,3.5,1.61,1.75,1.01,3.41,2.18,5.15,3.23,1.27,.77,2.54,1.54,3.89,2.14,1.23,.54,2.51,1.16,3.94,.49,.77-.36,1.09-.81,.83-1.63-.42-1.34-.88-2.68-1.39-3.99-.13-.33-.64-.56-.68-.87-.1-.72-.56-1.14-1.02-1.56-1.02-.95-.73-1.85,.26-2.4,.85-.47,1.29-1.28,2.03-1.79,.35-.24,.82-.38,1.04-.7,.64-.93,1.24-1.91,1.74-2.92,.44-.89,.17-2.37-.48-2.74-.62-.36-1.31-.67-2.01-.83-1.62-.37-3.23-.1-4.82,.29-1.68,.42-3.35,.88-5.03,1.29-1.55,.38-3.09,.81-4.67,1.04-1.86,.27-3.74,.04-5.6-.27-2.07-.35-4.16-.61-6.23-.93-.74-.11-1.46-.3-2.26-.46,.15-.22,.23-.42,.38-.54,1.01-.84,1.11-1.85,.63-3-.18-.44-.22-1-.53-1.3-.97-.93-1.99-1.84-3.09-2.62-.91-.64-2.04-.93-3.14-.69-.97,.22-1.9,.66-2.8,1.11-1.51,.75-3,1.55-4.48,2.37-1.32,.73-2.59,1.23-4.24,1.12-2.63-.17-5.3,.1-7.94,.23-4.74,.23-9.39,1.16-13.99,2.24-3.14,.74-6.26,1.58-9.37,2.42-3.1,.84-6.34,1.28-9.11,3.1-.45,.3-.98,.56-1.3,.96-.15,.19,.12,.7,.2,1.06,0,.04-.03,.08-.06,.18-.12-.06-.24-.12-.35-.17-.68-.34-1.03-.17-1,.59,.02,.49,.15,1.07,.45,1.44,.52,.65,1.14,1.27,1.83,1.74,1.41,.97,2.86,1.89,4.34,2.73,.76,.43,1.62,.7,2.47,.96,.87,.26,1.76,.49,2.66,.62,2.19,.31,4.4,.56,6.6,.82,3.15,.38,6.3,.89,9.46,1.06,2.1,.12,4.24-.23,6.35-.4,.81-.06,.82-.03,1.02,.77,.23,.95,.5,1.91,.92,2.78,.73,1.5,1.82,1.97,3.43,1.48,1.4-.43,2.67-1.12,3.79-2.12,.83-.74,1.49-1.55,1.75-2.63,.19-.77,.58-1.59-.19-2.33Z"/><path d="M180.68,460.44c2.26,3.84-6.53,10.19-8.79,5.6-.87-.98-.32-3.74-1.94-3.55-11.18,.27-25.18,.79-33.72-7.53-.68-.9-.72-3.01,.9-1.86-.29-3.77,7.41-4.23,10.27-5.31,7.68-2.04,15.39-4.22,23.36-4.66,4.01-.68,8.57,.7,12.18-1.34,3.18-1.35,6.93-5.05,10.41-2.79,2.51,1.6,5.63,4.78,2.6,7.45,6.22,1.08,12.6,2.8,18.76,.63,8.88-3.46,18.8-1.52,7.52,7.38-2.25,1.15,.41,2.48,.77,3.96,5.3,8.25-.9,7.98-6.6,3.87-4.65-3.29-9.72-5.99-15.58-5.79,1.43,4.21-5.59,7.71-8.12,10.35-3.63,2.87-7.05-2.13-9.41-4.5-.78-.71-1.29-2.83-2.64-1.9Z"/></g></g><path d="M182.12,383.18c.78-2.35,.42-.93,4.07-2.68,8.91-3.52,16.81-6.41,26.88-6.52,13.06-.49,5.59,2.19,12.1-7.68,1.12-1.28,1.16-1.56,1.91-.91,1.63,1.09,1.51,1.2,3.5,2.77,1.03,.85,1.39,1,1.97,1.47,.77,.85,1.89,2.48,2.64,3.26-.36,.45-2.68,.86-2.7,1.72,4.49,.58,11.01,1.23,14.44,1.95,.85,.33,4.46,1.11,6.22,.48,1.17-.49,3.77-1.05,3.88,.66-.27,.63-3.98-.46-2.27,.84,1.8,.37,5.1,1.36,6.75,1.2,3.3-.64,8.08-7.33,11.24-8.9,5.86-2.71,2.31-.42,2.15,2.45,.06,.55,.25,2.65,.3,3.29,1.02,3.14,.74,8,.6,11.18-.11,1.09-.53,1.58-.78,2.45,.27,1.3,.32,2.46,.48,3.65,.67,1.67,2.06,2.56-.18,2.15-8.14-2.96-10.81-13.16-21.04-8.37,1.14,1.17,4.87-.86,1.67,1.91-1.66,2.32-4.37,4.6-6.81,6.04-.97,1.45-1.34,1.45-2.51,.18-.54-.06-2.46-4.37-3.29-4.54-.62,.86-2.02,1.24-2.87,.9-1.76-.29-1.62,.43-6.28,.72-2.04,.12-3.8,.09-3.82,.36,4.21,2.61,2.73,3.23,1.31,7.28-1.42-1.03-3.29-4.72-3.68-5.81-.09-.61-1.14-.13-1.6-.2-13.11,1.46-23.71-.1-37.3-4.05-5.54-1.35-4.18-1.56-5.57-1.88-.5,.06-1.72-.84-1.95-1.32-.26-1.03,1.41-.34,2-.53,1.95,.1,2.66-.28,4.24-.54-.09-.59-3.15-2.16-3.41-2.15-.59-.51-2.41,.31-2.32-.81Z"/><path d="M216.71,225.56c-.26-.77,.37-1.55,.78-2.13-.39-.38-.28-1.19,.14-1.55,.08-.39-.21-.89,.03-1.47,.62-.85-.15-2.15,.35-2.96,.19-.14,.59,1.79,.97,1.84,.94,.31-.73-2.44,.02-3.09,.41,.22,.48,2.54,1.47,2.48,.35-.28-.23-2.96,.21-3.42,.63,.19,.33,3.55,1.09,2.75,.15-.4-.15-1.58,.29-1.87,.07-.13-.06,1.99,.5,2.04,.56-.02,.98-.74,1.2-1.24,1.14-1.32-.36,1.95,1.58,.68,.48-.08,.29,.19,.26,.52,.77,.64,.51,1.02-.59,1.76-.53,.33-.81,.43-.79,.55,2.31,.61,3.57,2.52,5.17,4.76,2.89,3.76,2.77,4.99,6.4,6.21,3.36,1.67,8,1.96,11.32,.57,4.43-4.87,4.55-1.86,8.55-4.12,1.76-.71,3.76-1.44,4.12,.71,.56-.09,1.35,.38,1.45,.92,1.11,1.95-1.92-.13-1.06,1.49-.07,.17-.93-.21-1.21,.1-.06,.41-.31,1.15-.49,1.5,.06,.36,.53,1.95,.22,2.09-.2,.07-.49-1.02-1.05-1.03-.94,.1-1.03,1.57-.13,1.96,.14,.89,.13,1.77,.04,2.67-.35-.53-.7-1.07-1.06-1.6,.35,1.27,.64,3.44,.28,4.59-.48-.26-.56-.54-.56,.37,0,2.63-1.1-.23-1.44,2.69-.3,1.11-.51,1.45-1.3,.88-1.07,1.47-.63,2.72-3.57,2.36,1.25,6.97-13.39,5.79-11.84,15.22,.7,.99-1.09-.19-.03,2.23,1.34,2.39,.94,1.94-.66,.91-.3,1.01-3.16,1.22-3.64,1.3-.1-.29,1.69-1.23,1.75-1.2-.8,.25-4.26,1.67-1.65-.06,1.57-.92,1.7-.7,2.27-2.5,.41-1.2,.26-1.26,.72-4,.28-1.25-.64-.11-.86,.27-.41,.68-1.85,3.68-1.61,4.47,.17,.03,.43,.25,.37,.48-.07,.25-.56,.13-.8,.4-.29,.78,.18,2.25,1.18,2.79,.63,.11,.21,.33-.32,.23-.35-.06-.81-.82-1.31-.93-.6,1.91-.77,1.24-2.81,1.49-.43-.12-2.38,.78-2.48,.72-.29-.38,.99-1.23,1.08-1.15-1.05,.02-2.84,.7-3.9,.55,1.22-1.41,3.96-1.02,5.73-2.09,.6-2.26,2.86-3.99,1.91-5.99-.37-.62-2.62-1.62-2.72-2.64,.28-2.51,.71-5.06-1.94-6.54-1.22-2.38-3.29-2.16-5.03-3.98-3.5-2.48-5.37-9.21-3.09-13.84-.05-.24,.22-4.69,.24-4.94-.56,.39-1.83,.41-1.6-.49,.07-.55,.58-.71,.56-1.21-1.85-1.24,.89-3.24-2.76-1.52Z"/><path d="M280.71,205.74c-2.22-.28-3.85,.35-5.7,1.04-.82-.32-1.39-.16-2.2-.06-1-.84,.23-1.5,1.17-1.52,6.76-2.39,1.09-9.46-.14-14.22-.44-.64-.7-1.21-1.37-1.74-.38-.55,.01-1.09-.41-1.84-.13-.33,0,.38-.17-.13-.97-3-.4-2.12-1.82-4.78-4.24,6.32-4.29,3.35-5.5,12-1.49,2.61-4.32,5.87-5.51,9.33-.41,2.9-1.44,2.37-3.48,.94-2.42-.34-6.35-2.16-5.38-4.62,1.06,.76,2.38,1.21,3.92,1.02,2.94,.45,3.33-.24,4.07-2.4,1.4-4.21,2.87-6.88,3.19-10.95,1.44-4.2,1.89-7.34,4.25-11.36,.26-.69,1-1.35,1.07-1.96-.51-1.27-.98-4.46-.46-5.07-1.5,2.15-6.15,5.2-4.75,8.38-.36,0-.35-.03-.59,.15,.06,.19-.84-.78-.5-.23,.34,.64-.53,.66-.62,.12-1.09,1.1-1.16-2.26-.93-2.86,2.01-1.93,3.12-4.12,4.44-6.81,2.22-2.09,2.23-2.97,2.57-5.65-1.93-3.3,3.03-5.19,2.05-8.29-.11-1.42-2.15,.5-1.81-1.61-.52,0-.62-.56-.79-.94,.5-.56,.07-.83-.53-.79-.37-.66,.58-1.16,.41-1.88-.5-.45-.43-1.85-.22-2.49-.19-3.17,6.34-4.15,7.53-1.18,.58,1.9,2.81,6.65,3.13,9.44-.33,.81-1.59,.86-1.1,1.63,2.19,3.77,3.2,7.88,5.17,11.85,1.53,3.26,1.17,5.41,1.49,7.8,.98,.31,1.55,1.45,1.75,2.33,.16,.7,2.23,1.17,1.57,1.68-.34,.04,0,.12-.12,.36-.09,.19-.63,.21-.69,.28,.78,.67-1.12,.5-.6,.82-.19,.98-1.66-.34-1.71,.21-.69,1.59-2.6-5.44-2.61-6.07-.07-2.13-1.43-4.6-2.03-6.3-.06-1.85-1.16-2.96-2.59-4.27-1.18,4-.04,5.87,.98,9.66-.78,1.99-.02,4.3,.54,6.14,.72,2.45,.94,5.82,1.24,7.74,3.17,3,2.23,7.28,3.23,11.3-.35,1.81,3.55,5.35,.58,5.79Z"/><text class="cls-9" transform="translate(702.45 112.81)"><tspan x="0" y="0">C</tspan></text><text class="cls-9" transform="translate(797.64 112.81)"><tspan x="0" y="0">D</tspan></text><g><path class="cls-11" d="M800.23,580.82c3.41,3.41,6.82,6.82,10.23,10.23,5.44,5.44,10.89,10.89,16.33,16.33,1.26,1.26,2.53,2.53,3.79,3.79,3.31,3.31,8.45-1.83,5.14-5.14-3.41-3.41-6.82-6.82-10.23-10.23-5.44-5.44-10.89-10.89-16.33-16.33-1.26-1.26-2.53-2.53-3.79-3.79-3.31-3.31-8.45,1.83-5.14,5.14h0Z"/><path class="cls-11" d="M830.58,575.68c-3.41,3.41-6.82,6.82-10.23,10.23-5.44,5.44-10.89,10.89-16.33,16.33-1.26,1.26-2.53,2.53-3.79,3.79-3.31,3.31,1.83,8.45,5.14,5.14,3.41-3.41,6.82-6.82,10.23-10.23l16.33-16.33c1.26-1.26,2.53-2.53,3.79-3.79,3.31-3.31-1.83-8.45-5.14-5.14h0Z"/></g><g><path class="cls-11" d="M800.23,651.04c3.41,3.41,6.82,6.82,10.23,10.23l16.33,16.33c1.26,1.26,2.53,2.53,3.79,3.79,3.31,3.31,8.45-1.83,5.14-5.14-3.41-3.41-6.82-6.82-10.23-10.23l-16.33-16.33c-1.26-1.26-2.53-2.53-3.79-3.79-3.31-3.31-8.45,1.83-5.14,5.14h0Z"/><path class="cls-11" d="M830.58,645.9c-3.41,3.41-6.82,6.82-10.23,10.23-5.44,5.44-10.89,10.89-16.33,16.33-1.26,1.26-2.53,2.53-3.79,3.79-3.31,3.31,1.83,8.45,5.14,5.14,3.41-3.41,6.82-6.82,10.23-10.23,5.44-5.44,10.89-10.89,16.33-16.33,1.26-1.26,2.53-2.53,3.79-3.79,3.31-3.31-1.83-8.45-5.14-5.14h0Z"/></g><g><path class="cls-11" d="M800.23,510.6c3.41,3.41,6.82,6.82,10.23,10.23,5.44,5.44,10.89,10.89,16.33,16.33,1.26,1.26,2.53,2.53,3.79,3.79,3.31,3.31,8.45-1.83,5.14-5.14-3.41-3.41-6.82-6.82-10.23-10.23-5.44-5.44-10.89-10.89-16.33-16.33-1.26-1.26-2.53-2.53-3.79-3.79-3.31-3.31-8.45,1.83-5.14,5.14h0Z"/><path class="cls-11" d="M830.58,505.46c-3.41,3.41-6.82,6.82-10.23,10.23-5.44,5.44-10.89,10.89-16.33,16.33-1.26,1.26-2.53,2.53-3.79,3.79-3.31,3.31,1.83,8.45,5.14,5.14,3.41-3.41,6.82-6.82,10.23-10.23l16.33-16.33c1.26-1.26,2.53-2.53,3.79-3.79,3.31-3.31-1.83-8.45-5.14-5.14h0Z"/></g><g><path class="cls-11" d="M800.23,440.38c3.41,3.41,6.82,6.82,10.23,10.23,5.44,5.44,10.89,10.89,16.33,16.33,1.26,1.26,2.53,2.53,3.79,3.79,3.31,3.31,8.45-1.83,5.14-5.14-3.41-3.41-6.82-6.82-10.23-10.23-5.44-5.44-10.89-10.89-16.33-16.33-1.26-1.26-2.53-2.53-3.79-3.79-3.31-3.31-8.45,1.83-5.14,5.14h0Z"/><path class="cls-11" d="M830.58,435.24c-3.41,3.41-6.82,6.82-10.23,10.23-5.44,5.44-10.89,10.89-16.33,16.33-1.26,1.26-2.53,2.53-3.79,3.79-3.31,3.31,1.83,8.45,5.14,5.14,3.41-3.41,6.82-6.82,10.23-10.23,5.44-5.44,10.89-10.89,16.33-16.33,1.26-1.26,2.53-2.53,3.79-3.79,3.31-3.31-1.83-8.45-5.14-5.14h0Z"/></g><g><path class="cls-11" d="M800.23,370.16c3.41,3.41,6.82,6.82,10.23,10.23,5.44,5.44,10.89,10.89,16.33,16.33,1.26,1.26,2.53,2.53,3.79,3.79,3.31,3.31,8.45-1.83,5.14-5.14-3.41-3.41-6.82-6.82-10.23-10.23l-16.33-16.33c-1.26-1.26-2.53-2.53-3.79-3.79-3.31-3.31-8.45,1.83-5.14,5.14h0Z"/><path class="cls-11" d="M830.58,365.02c-3.41,3.41-6.82,6.82-10.23,10.23-5.44,5.44-10.89,10.89-16.33,16.33-1.26,1.26-2.53,2.53-3.79,3.79-3.31,3.31,1.83,8.45,5.14,5.14,3.41-3.41,6.82-6.82,10.23-10.23,5.44-5.44,10.89-10.89,16.33-16.33,1.26-1.26,2.53-2.53,3.79-3.79,3.31-3.31-1.83-8.45-5.14-5.14h0Z"/></g><g><path class="cls-11" d="M800.23,299.94c3.41,3.41,6.82,6.82,10.23,10.23,5.44,5.44,10.89,10.89,16.33,16.33,1.26,1.26,2.53,2.53,3.79,3.79,3.31,3.31,8.45-1.83,5.14-5.14-3.41-3.41-6.82-6.82-10.23-10.23l-16.33-16.33c-1.26-1.26-2.53-2.53-3.79-3.79-3.31-3.31-8.45,1.83-5.14,5.14h0Z"/><path class="cls-11" d="M830.58,294.8c-3.41,3.41-6.82,6.82-10.23,10.23-5.44,5.44-10.89,10.89-16.33,16.33-1.26,1.26-2.53,2.53-3.79,3.79-3.31,3.31,1.83,8.45,5.14,5.14,3.41-3.41,6.82-6.82,10.23-10.23l16.33-16.33c1.26-1.26,2.53-2.53,3.79-3.79,3.31-3.31-1.83-8.45-5.14-5.14h0Z"/></g><g><path class="cls-11" d="M800.23,229.73c3.41,3.41,6.82,6.82,10.23,10.23l16.33,16.33c1.26,1.26,2.53,2.53,3.79,3.79,3.31,3.31,8.45-1.83,5.14-5.14-3.41-3.41-6.82-6.82-10.23-10.23l-16.33-16.33c-1.26-1.26-2.53-2.53-3.79-3.79-3.31-3.31-8.45,1.83-5.14,5.14h0Z"/><path class="cls-11" d="M830.58,224.58c-3.41,3.41-6.82,6.82-10.23,10.23-5.44,5.44-10.89,10.89-16.33,16.33-1.26,1.26-2.53,2.53-3.79,3.79-3.31,3.31,1.83,8.45,5.14,5.14,3.41-3.41,6.82-6.82,10.23-10.23l16.33-16.33c1.26-1.26,2.53-2.53,3.79-3.79,3.31-3.31-1.83-8.45-5.14-5.14h0Z"/></g><g><path class="cls-12" d="M606.02,180.46c3.63,3.45,7.27,6.91,10.9,10.36,.52,.5,1.05,1,1.57,1.5,1.38,1.31,3.79,1.47,5.14,0s1.47-3.74,0-5.14c-3.63-3.45-7.27-6.91-10.9-10.36-.52-.5-1.05-1-1.57-1.5-1.38-1.31-3.79-1.47-5.14,0s-1.47,3.74,0,5.14h0Z"/><path class="cls-12" d="M643.48,152.64c-2.87,3.96-5.74,7.92-8.6,11.87-4.6,6.35-9.2,12.7-13.8,19.04-1.05,1.45-2.1,2.9-3.15,4.35-1.15,1.59-.27,4.05,1.3,4.97,1.84,1.07,3.82,.29,4.97-1.3,2.87-3.96,5.74-7.92,8.6-11.87,4.6-6.35,9.2-12.7,13.8-19.04,1.05-1.45,2.1-2.9,3.15-4.35,1.15-1.59,.27-4.05-1.3-4.97-1.84-1.07-3.82-.29-4.97,1.3h0Z"/></g><g id="_5uQ2NP.tif"><path d="M228.61,526.98c-5.58,3.98,4.6,5.26,7.17,6.51-4.92,7.43,2.31,4.68,5.76,1.59,6.1-1.26,12.89,1.61,19.32,.15,7.6,2.38,14.24,9.66,22.53,9.48-6.11-2.74-11.52-6.46-16.81-10.6,44.09-17.5,19.13-5.08,43.46,4.46-8.42-12.02-2.64-19.29,5.93-28.7,.42-.62,.17-1.06-.59-1-7.4,2.13-14.35,6.53-19.49,12.31-.52,.63-1.12,.78-1.91,.66-7.87-1.98-18.49-3.29-24.74-8.09-1.21-3.67-1.32-7.47-.71-11.27-1.74-4.06-7.89,7.49-9.04,9.14-10.12,.48-20.63-.33-30.34,4.33-2.9,1.92-13.6,2.92-9.74,7.9,2.16,2.83,5.86,3.33,9.19,3.13Z"/></g><g id="LaiyPI.tif"><path d="M380.02,585.12c-13.15,.34-25.94,4.39-39.05,5.74,4.58-2.61,9.14-4.83,13.02-8.13-11.24,4.98-19.73,10.73-32.65,7.95-3.52-9.09-13.83-14.17-21.28-20.3-4.62-1.82-21.89,16.05-26.26,19.47-.56,.57-.61,1.51,.03,1.85,2.24,1.18,2.5,3.64,3.66,5.5,3.48,4.65,9.39,19.14,14.87,19.71,8.05-.94,12.96-7.83,18.84-12.61,5.58-1.31,6.49-3.55,9.1-8.35,19.85-2.17,40.39-4.98,59.76-10.49-.02-.11-.04-.22-.05-.34Z"/></g><g id="ASzZvE.tif"><path d="M194.91,668.86c15,2.28,31.52,1.11,44.9,9.2,11.69,5.32-.74,9.77-7.21,6.52-14.07,.09-27.98,1.38-41.94-1.75-5.69-1.29-12.24-1.73-16.59-6.05-4.05-4.45-4.61-11.28,.6-15.32,12.96-6,29.5-11.55,43.61-7.11,12.89,.33,19.83-14.21,24.45-12.17,3.26,1.97,6.37,4.72,10.43,4.44,2.63-.29,6.58-6.15,8.74-4.44,.44,.54,.85,1.18,.2,1.8-2.35,2.49-5.14,4.05-8.21,5.4-4.81,4.87-11.87,5.65-17.26,9.59-12.62,7.25-27.73,7.25-41.73,9.64v.23Z"/></g><g><polyline class="cls-1" points="239.07 172.52 102.46 172.52 102.46 242.33 199.65 242.33"/><polyline class="cls-1" points="102.06 207.22 77.1 207.22 77.1 312.55 284.69 312.55"/><polyline class="cls-1" points="169.15 382.98 88.49 382.98 88.49 452.78 127.41 452.78"/><polyline class="cls-1" points="203.03 523.41 88.49 523.41 88.49 593.22 256.12 593.22"/><polyline class="cls-1" points="77.1 265.44 52.15 265.44 52.15 417.88 88.29 417.88"/><polyline class="cls-1" points="51.7 342.66 26.74 342.66 26.74 558.32 88.29 558.32"/><polyline class="cls-1" points="26.46 447.99 1.5 447.99 1.5 663.65 156.73 663.65"/></g><g><path class="cls-12" d="M796.39,180.46c3.63,3.45,7.27,6.91,10.9,10.36,.52,.5,1.05,1,1.57,1.5,1.38,1.31,3.79,1.47,5.14,0,1.3-1.42,1.47-3.74,0-5.14-3.63-3.45-7.27-6.91-10.9-10.36-.52-.5-1.05-1-1.57-1.5-1.38-1.31-3.79-1.47-5.14,0-1.3,1.42-1.47,3.74,0,5.14h0Z"/><path class="cls-12" d="M833.85,152.64c-2.87,3.96-5.74,7.92-8.6,11.87-4.6,6.35-9.2,12.7-13.8,19.04-1.05,1.45-2.1,2.9-3.15,4.35-1.15,1.59-.27,4.05,1.3,4.97,1.84,1.07,3.82,.29,4.97-1.3,2.87-3.96,5.74-7.92,8.6-11.87,4.6-6.35,9.2-12.7,13.8-19.04,1.05-1.45,2.1-2.9,3.15-4.35,1.15-1.59,.27-4.05-1.3-4.97-1.84-1.07-3.82-.29-4.97,1.3h0Z"/></g><g><path class="cls-12" d="M701.2,180.46c3.63,3.45,7.27,6.91,10.9,10.36,.52,.5,1.05,1,1.57,1.5,1.38,1.31,3.79,1.47,5.14,0s1.47-3.74,0-5.14c-3.63-3.45-7.27-6.91-10.9-10.36-.52-.5-1.05-1-1.57-1.5-1.38-1.31-3.79-1.47-5.14,0s-1.47,3.74,0,5.14h0Z"/><path class="cls-12" d="M738.66,152.64c-2.87,3.96-5.74,7.92-8.6,11.87-4.6,6.35-9.2,12.7-13.8,19.04-1.05,1.45-2.1,2.9-3.15,4.35-1.15,1.59-.27,4.05,1.3,4.97,1.84,1.07,3.82,.29,4.97-1.3,2.87-3.96,5.74-7.92,8.6-11.87l13.8-19.04c1.05-1.45,2.1-2.9,3.15-4.35,1.15-1.59,.27-4.05-1.3-4.97-1.84-1.07-3.82-.29-4.97,1.3h0Z"/></g><g><path class="cls-12" d="M510.83,180.46c3.63,3.45,7.27,6.91,10.9,10.36,.52,.5,1.05,1,1.57,1.5,1.38,1.31,3.79,1.47,5.14,0s1.47-3.74,0-5.14c-3.63-3.45-7.27-6.91-10.9-10.36-.52-.5-1.05-1-1.57-1.5-1.38-1.31-3.79-1.47-5.14,0s-1.47,3.74,0,5.14h0Z"/><path class="cls-12" d="M548.29,152.64c-2.87,3.96-5.74,7.92-8.6,11.87l-13.8,19.04c-1.05,1.45-2.1,2.9-3.15,4.35-1.15,1.59-.27,4.05,1.3,4.97,1.84,1.07,3.82,.29,4.97-1.3,2.87-3.96,5.74-7.92,8.6-11.87,4.6-6.35,9.2-12.7,13.8-19.04,1.05-1.45,2.1-2.9,3.15-4.35,1.15-1.59,.27-4.05-1.3-4.97-1.84-1.07-3.82-.29-4.97,1.3h0Z"/></g><g><path class="cls-12" d="M701.2,250.68c3.63,3.45,7.27,6.91,10.9,10.36,.52,.5,1.05,1,1.57,1.5,1.38,1.31,3.79,1.47,5.14,0s1.47-3.74,0-5.14c-3.63-3.45-7.27-6.91-10.9-10.36-.52-.5-1.05-1-1.57-1.5-1.38-1.31-3.79-1.47-5.14,0s-1.47,3.74,0,5.14h0Z"/><path class="cls-12" d="M738.66,222.86c-2.87,3.96-5.74,7.92-8.6,11.87-4.6,6.35-9.2,12.7-13.8,19.04-1.05,1.45-2.1,2.9-3.15,4.35-1.15,1.59-.27,4.05,1.3,4.97,1.84,1.07,3.82,.29,4.97-1.3,2.87-3.96,5.74-7.92,8.6-11.87l13.8-19.04c1.05-1.45,2.1-2.9,3.15-4.35,1.15-1.59,.27-4.05-1.3-4.97-1.84-1.07-3.82-.29-4.97,1.3h0Z"/></g><g><path class="cls-12" d="M510.83,250.68c3.63,3.45,7.27,6.91,10.9,10.36,.52,.5,1.05,1,1.57,1.5,1.38,1.31,3.79,1.47,5.14,0s1.47-3.74,0-5.14c-3.63-3.45-7.27-6.91-10.9-10.36-.52-.5-1.05-1-1.57-1.5-1.38-1.31-3.79-1.47-5.14,0s-1.47,3.74,0,5.14h0Z"/><path class="cls-12" d="M548.29,222.86c-2.87,3.96-5.74,7.92-8.6,11.87-4.6,6.35-9.2,12.7-13.8,19.04-1.05,1.45-2.1,2.9-3.15,4.35-1.15,1.59-.27,4.05,1.3,4.97,1.84,1.07,3.82,.29,4.97-1.3,2.87-3.96,5.74-7.92,8.6-11.87,4.6-6.35,9.2-12.7,13.8-19.04,1.05-1.45,2.1-2.9,3.15-4.35,1.15-1.59,.27-4.05-1.3-4.97-1.84-1.07-3.82-.29-4.97,1.3h0Z"/></g><g><path class="cls-12" d="M606.02,320.9c3.63,3.45,7.27,6.91,10.9,10.36,.52,.5,1.05,1,1.57,1.5,1.38,1.31,3.79,1.47,5.14,0s1.47-3.74,0-5.14c-3.63-3.45-7.27-6.91-10.9-10.36-.52-.5-1.05-1-1.57-1.5-1.38-1.31-3.79-1.47-5.14,0s-1.47,3.74,0,5.14h0Z"/><path class="cls-12" d="M643.48,293.08c-2.87,3.96-5.74,7.92-8.6,11.87l-13.8,19.04c-1.05,1.45-2.1,2.9-3.15,4.35-1.15,1.59-.27,4.05,1.3,4.97,1.84,1.07,3.82,.29,4.97-1.3,2.87-3.96,5.74-7.92,8.6-11.87,4.6-6.35,9.2-12.7,13.8-19.04,1.05-1.45,2.1-2.9,3.15-4.35,1.15-1.59,.27-4.05-1.3-4.97-1.84-1.07-3.82-.29-4.97,1.3h0Z"/></g><g><path class="cls-12" d="M701.2,320.9c3.63,3.45,7.27,6.91,10.9,10.36,.52,.5,1.05,1,1.57,1.5,1.38,1.31,3.79,1.47,5.14,0s1.47-3.74,0-5.14c-3.63-3.45-7.27-6.91-10.9-10.36-.52-.5-1.05-1-1.57-1.5-1.38-1.31-3.79-1.47-5.14,0s-1.47,3.74,0,5.14h0Z"/><path class="cls-12" d="M738.66,293.08c-2.87,3.96-5.74,7.92-8.6,11.87-4.6,6.35-9.2,12.7-13.8,19.04-1.05,1.45-2.1,2.9-3.15,4.35-1.15,1.59-.27,4.05,1.3,4.97,1.84,1.07,3.82,.29,4.97-1.3,2.87-3.96,5.74-7.92,8.6-11.87l13.8-19.04c1.05-1.45,2.1-2.9,3.15-4.35,1.15-1.59,.27-4.05-1.3-4.97-1.84-1.07-3.82-.29-4.97,1.3h0Z"/></g><g><path class="cls-12" d="M510.83,320.9c3.63,3.45,7.27,6.91,10.9,10.36,.52,.5,1.05,1,1.57,1.5,1.38,1.31,3.79,1.47,5.14,0s1.47-3.74,0-5.14c-3.63-3.45-7.27-6.91-10.9-10.36-.52-.5-1.05-1-1.57-1.5-1.38-1.31-3.79-1.47-5.14,0s-1.47,3.74,0,5.14h0Z"/><path class="cls-12" d="M548.29,293.08c-2.87,3.96-5.74,7.92-8.6,11.87l-13.8,19.04c-1.05,1.45-2.1,2.9-3.15,4.35-1.15,1.59-.27,4.05,1.3,4.97,1.84,1.07,3.82,.29,4.97-1.3,2.87-3.96,5.74-7.92,8.6-11.87,4.6-6.35,9.2-12.7,13.8-19.04,1.05-1.45,2.1-2.9,3.15-4.35,1.15-1.59,.27-4.05-1.3-4.97-1.84-1.07-3.82-.29-4.97,1.3h0Z"/></g><g><path class="cls-12" d="M558.42,395.12c3.63,3.45,7.27,6.91,10.9,10.36,.52,.5,1.05,1,1.57,1.5,1.38,1.31,3.79,1.47,5.14,0s1.47-3.74,0-5.14c-3.63-3.45-7.27-6.91-10.9-10.36-.52-.5-1.05-1-1.57-1.5-1.38-1.31-3.79-1.47-5.14,0s-1.47,3.74,0,5.14h0Z"/><path class="cls-12" d="M595.88,367.3c-2.87,3.96-5.74,7.92-8.6,11.87-4.6,6.35-9.2,12.7-13.8,19.04-1.05,1.45-2.1,2.9-3.15,4.35-1.15,1.59-.27,4.05,1.3,4.97,1.84,1.07,3.82,.29,4.97-1.3,2.87-3.96,5.74-7.92,8.6-11.87,4.6-6.35,9.2-12.7,13.8-19.04,1.05-1.45,2.1-2.9,3.15-4.35,1.15-1.59,.27-4.05-1.3-4.97-1.84-1.07-3.82-.29-4.97,1.3h0Z"/></g><g><path class="cls-12" d="M701.2,391.12c3.63,3.45,7.27,6.91,10.9,10.36,.52,.5,1.05,1,1.57,1.5,1.38,1.31,3.79,1.47,5.14,0s1.47-3.74,0-5.14c-3.63-3.45-7.27-6.91-10.9-10.36-.52-.5-1.05-1-1.57-1.5-1.38-1.31-3.79-1.47-5.14,0s-1.47,3.74,0,5.14h0Z"/><path class="cls-12" d="M738.66,363.3c-2.87,3.96-5.74,7.92-8.6,11.87-4.6,6.35-9.2,12.7-13.8,19.04-1.05,1.45-2.1,2.9-3.15,4.35-1.15,1.59-.27,4.05,1.3,4.97,1.84,1.07,3.82,.29,4.97-1.3,2.87-3.96,5.74-7.92,8.6-11.87l13.8-19.04c1.05-1.45,2.1-2.9,3.15-4.35,1.15-1.59,.27-4.05-1.3-4.97-1.84-1.07-3.82-.29-4.97,1.3h0Z"/></g><g><path class="cls-11" d="M705.04,651.04c3.41,3.41,6.82,6.82,10.23,10.23,5.44,5.44,10.89,10.89,16.33,16.33,1.26,1.26,2.53,2.53,3.79,3.79,3.31,3.31,8.45-1.83,5.14-5.14-3.41-3.41-6.82-6.82-10.23-10.23l-16.33-16.33-3.79-3.79c-3.31-3.31-8.45,1.83-5.14,5.14h0Z"/><path class="cls-11" d="M735.39,645.9c-3.41,3.41-6.82,6.82-10.23,10.23-5.44,5.44-10.89,10.89-16.33,16.33l-3.79,3.79c-3.31,3.31,1.83,8.45,5.14,5.14s6.82-6.82,10.23-10.23c5.44-5.44,10.89-10.89,16.33-16.33,1.26-1.26,2.53-2.53,3.79-3.79,3.31-3.31-1.83-8.45-5.14-5.14h0Z"/></g><g><path class="cls-11" d="M609.85,580.82c3.41,3.41,6.82,6.82,10.23,10.23,5.44,5.44,10.89,10.89,16.33,16.33l3.79,3.79c3.31,3.31,8.45-1.83,5.14-5.14s-6.82-6.82-10.23-10.23c-5.44-5.44-10.89-10.89-16.33-16.33l-3.79-3.79c-3.31-3.31-8.45,1.83-5.14,5.14h0Z"/><path class="cls-11" d="M640.21,575.68l-10.23,10.23-16.33,16.33-3.79,3.79c-3.31,3.31,1.83,8.45,5.14,5.14l10.23-10.23,16.33-16.33,3.79-3.79c3.31-3.31-1.83-8.45-5.14-5.14h0Z"/></g><g><path class="cls-11" d="M609.85,651.04c3.41,3.41,6.82,6.82,10.23,10.23l16.33,16.33,3.79,3.79c3.31,3.31,8.45-1.83,5.14-5.14s-6.82-6.82-10.23-10.23c-5.44-5.44-10.89-10.89-16.33-16.33l-3.79-3.79c-3.31-3.31-8.45,1.83-5.14,5.14h0Z"/><path class="cls-11" d="M640.21,645.9l-10.23,10.23c-5.44,5.44-10.89,10.89-16.33,16.33l-3.79,3.79c-3.31,3.31,1.83,8.45,5.14,5.14l10.23-10.23c5.44-5.44,10.89-10.89,16.33-16.33l3.79-3.79c3.31-3.31-1.83-8.45-5.14-5.14h0Z"/></g><g><path class="cls-11" d="M609.85,510.6c3.41,3.41,6.82,6.82,10.23,10.23,5.44,5.44,10.89,10.89,16.33,16.33l3.79,3.79c3.31,3.31,8.45-1.83,5.14-5.14l-10.23-10.23c-5.44-5.44-10.89-10.89-16.33-16.33l-3.79-3.79c-3.31-3.31-8.45,1.83-5.14,5.14h0Z"/><path class="cls-11" d="M640.21,505.46l-10.23,10.23-16.33,16.33-3.79,3.79c-3.31,3.31,1.83,8.45,5.14,5.14l10.23-10.23,16.33-16.33,3.79-3.79c3.31-3.31-1.83-8.45-5.14-5.14h0Z"/></g><g><path class="cls-11" d="M514.67,580.82l10.23,10.23c5.44,5.44,10.89,10.89,16.33,16.33l3.79,3.79c3.31,3.31,8.45-1.83,5.14-5.14l-10.23-10.23c-5.44-5.44-10.89-10.89-16.33-16.33l-3.79-3.79c-3.31-3.31-8.45,1.83-5.14,5.14h0Z"/><path class="cls-11" d="M545.02,575.68l-10.23,10.23-16.33,16.33-3.79,3.79c-3.31,3.31,1.83,8.45,5.14,5.14l10.23-10.23,16.33-16.33,3.79-3.79c3.31-3.31-1.83-8.45-5.14-5.14h0Z"/></g><g><path class="cls-11" d="M514.67,651.04c3.41,3.41,6.82,6.82,10.23,10.23l16.33,16.33,3.79,3.79c3.31,3.31,8.45-1.83,5.14-5.14s-6.82-6.82-10.23-10.23c-5.44-5.44-10.89-10.89-16.33-16.33l-3.79-3.79c-3.31-3.31-8.45,1.83-5.14,5.14h0Z"/><path class="cls-11" d="M545.02,645.9l-10.23,10.23c-5.44,5.44-10.89,10.89-16.33,16.33l-3.79,3.79c-3.31,3.31,1.83,8.45,5.14,5.14l10.23-10.23c5.44-5.44,10.89-10.89,16.33-16.33l3.79-3.79c3.31-3.31-1.83-8.45-5.14-5.14h0Z"/></g><g><path class="cls-11" d="M514.67,510.6l10.23,10.23c5.44,5.44,10.89,10.89,16.33,16.33l3.79,3.79c3.31,3.31,8.45-1.83,5.14-5.14l-10.23-10.23c-5.44-5.44-10.89-10.89-16.33-16.33l-3.79-3.79c-3.31-3.31-8.45,1.83-5.14,5.14h0Z"/><path class="cls-11" d="M545.02,505.46l-10.23,10.23-16.33,16.33-3.79,3.79c-3.31,3.31,1.83,8.45,5.14,5.14l10.23-10.23,16.33-16.33,3.79-3.79c3.31-3.31-1.83-8.45-5.14-5.14h0Z"/></g><g><polyline class="cls-5" points="532.41 62.06 532.41 31.79 627.6 31.79 627.6 62.06"/><polyline class="cls-5" points="722.79 62.06 722.79 31.79 817.97 31.79 817.97 62.06"/><polyline class="cls-5" points="580.01 31.63 580.01 1.35 770.38 1.35 770.38 31.63"/></g><g><path class="cls-12" d="M558.42,461.33c3.63,3.45,7.27,6.91,10.9,10.36,.52,.5,1.05,1,1.57,1.5,1.38,1.31,3.79,1.47,5.14,0s1.47-3.74,0-5.14c-3.63-3.45-7.27-6.91-10.9-10.36-.52-.5-1.05-1-1.57-1.5-1.38-1.31-3.79-1.47-5.14,0s-1.47,3.74,0,5.14h0Z"/><path class="cls-12" d="M595.88,433.52c-2.87,3.96-5.74,7.92-8.6,11.87-4.6,6.35-9.2,12.7-13.8,19.04-1.05,1.45-2.1,2.9-3.15,4.35-1.15,1.59-.27,4.05,1.3,4.97,1.84,1.07,3.82,.29,4.97-1.3,2.87-3.96,5.74-7.92,8.6-11.87,4.6-6.35,9.2-12.7,13.8-19.04,1.05-1.45,2.1-2.9,3.15-4.35,1.15-1.59,.27-4.05-1.3-4.97-1.84-1.07-3.82-.29-4.97,1.3h0Z"/></g><g><path class="cls-12" d="M701.2,461.33c3.63,3.45,7.27,6.91,10.9,10.36,.52,.5,1.05,1,1.57,1.5,1.38,1.31,3.79,1.47,5.14,0s1.47-3.74,0-5.14c-3.63-3.45-7.27-6.91-10.9-10.36-.52-.5-1.05-1-1.57-1.5-1.38-1.31-3.79-1.47-5.14,0s-1.47,3.74,0,5.14h0Z"/><path class="cls-12" d="M738.66,433.52c-2.87,3.96-5.74,7.92-8.6,11.87-4.6,6.35-9.2,12.7-13.8,19.04-1.05,1.45-2.1,2.9-3.15,4.35-1.15,1.59-.27,4.05,1.3,4.97,1.84,1.07,3.82,.29,4.97-1.3,2.87-3.96,5.74-7.92,8.6-11.87l13.8-19.04c1.05-1.45,2.1-2.9,3.15-4.35,1.15-1.59,.27-4.05-1.3-4.97-1.84-1.07-3.82-.29-4.97,1.3h0Z"/></g><path d="M582.26,360.99h-4.48c-.04-1.41-.42-2.56-1.15-3.45s-1.73-1.48-2.98-1.77-36.88-.45-39.94-.47-5.08-.07-6.05-.16c-1.56-.16-2.8-.47-3.73-.92s-1.67-1-2.23-1.66-.99-1.5-1.28-2.53c-.2-.7-.3-1.83-.3-3.41v-1.54s4.32,0,4.32,0v.85c0,1.91,.34,3.17,1.03,3.79s2.23,.93,4.63,.93c4.58,0,40.95,.08,42.18,.25,2.03,.29,3.66,.88,4.88,1.76s2.17,2.13,2.85,3.74c1.01-2.11,2.34-3.59,4-4.45,1.66-.86,37.92-1.29,41.86-1.29,3.57,0,5.71-.05,6.41-.14,1.23-.13,2.09-.49,2.57-1.09s.73-1.76,.73-3.51v-.85s4.32,0,4.32,0v1.54c0,1.8-.15,3.1-.44,3.9-.4,1.17-1.08,2.14-2.03,2.91s-2.15,1.27-3.6,1.5-3.82,.35-7.12,.37c-3.3,.02-39.04,.17-40.3,.47s-2.25,.88-2.98,1.77-1.12,2.04-1.15,3.45Z"/><text class="cls-9" transform="translate(885.98 306.57)"><tspan x="0" y="0">taxonomic</tspan><tspan x="0" y="47">scope</tspan></text><g><line class="cls-6" x1="853.08" y1="488.1" x2="848.08" y2="488.1"/><line class="cls-7" x1="842.05" y1="488.1" x2="491.49" y2="488.1"/><line class="cls-6" x1="488.48" y1="488.1" x2="483.48" y2="488.1"/></g><g><line class="cls-6" x1="853.08" y1="136.45" x2="848.08" y2="136.45"/><line class="cls-7" x1="842.05" y1="136.45" x2="491.49" y2="136.45"/><line class="cls-6" x1="488.48" y1="136.45" x2="483.48" y2="136.45"/></g><path d="M581.72,722.7h-3.4c-.03-1.41-.32-2.56-.88-3.45-.56-.89-1.31-1.48-2.26-1.77s-79.65-.45-81.97-.47-3.85-.07-4.59-.16c-1.18-.16-2.12-.47-2.83-.92s-1.27-1-1.69-1.66-.75-1.5-.97-2.53c-.15-.7-.23-1.83-.23-3.41v-1.54h3.27v.85c0,1.91,.26,3.17,.78,3.79s1.69,.93,3.51,.93c3.48,0,82.74,.08,83.67,.25,1.54,.29,2.78,.88,3.7,1.76s1.64,2.13,2.16,3.74c.76-2.11,1.78-3.59,3.03-4.45s80.44-1.29,83.43-1.29c2.71,0,4.33-.05,4.86-.14,.93-.13,1.58-.49,1.95-1.09s.55-1.76,.55-3.51v-.85h3.27v1.54c0,1.8-.11,3.1-.33,3.9-.31,1.17-.82,2.14-1.54,2.91s-1.63,1.27-2.73,1.5-2.9,.35-5.4,.37-81.29,.17-82.24,.47-1.71,.88-2.26,1.77-.85,2.04-.88,3.45Z"/><text class="cls-9" transform="translate(472 763.85)"><tspan x="0" y="0">paralogs</tspan></text><g><path class="cls-12" d="M606.02,250.68c3.63,3.45,7.27,6.91,10.9,10.36,.52,.5,1.05,1,1.57,1.5,1.38,1.31,3.79,1.47,5.14,0s1.47-3.74,0-5.14c-3.63-3.45-7.27-6.91-10.9-10.36-.52-.5-1.05-1-1.57-1.5-1.38-1.31-3.79-1.47-5.14,0s-1.47,3.74,0,5.14h0Z"/><path class="cls-12" d="M643.48,222.86c-2.87,3.96-5.74,7.92-8.6,11.87-4.6,6.35-9.2,12.7-13.8,19.04-1.05,1.45-2.1,2.9-3.15,4.35-1.15,1.59-.27,4.05,1.3,4.97,1.84,1.07,3.82,.29,4.97-1.3,2.87-3.96,5.74-7.92,8.6-11.87,4.6-6.35,9.2-12.7,13.8-19.04,1.05-1.45,2.1-2.9,3.15-4.35,1.15-1.59,.27-4.05-1.3-4.97-1.84-1.07-3.82-.29-4.97,1.3h0Z"/></g><g><line class="cls-6" x1="483.48" y1="699.64" x2="483.48" y2="694.64"/><line class="cls-2" x1="483.48" y1="688.61" x2="483.48" y2="144.47"/><line class="cls-6" x1="483.48" y1="141.45" x2="483.48" y2="136.45"/></g><g><line class="cls-4" x1="675.19" y1="699.64" x2="675.19" y2="694.64"/><line class="cls-3" x1="675.19" y1="688.61" x2="675.19" y2="144.47"/><line class="cls-4" x1="675.19" y1="141.45" x2="675.19" y2="136.45"/></g><g><path class="cls-12" d="M701.2,531.55c3.63,3.45,7.27,6.91,10.9,10.36,.52,.5,1.05,1,1.57,1.5,1.38,1.31,3.79,1.47,5.14,0s1.47-3.74,0-5.14c-3.63-3.45-7.27-6.91-10.9-10.36-.52-.5-1.05-1-1.57-1.5-1.38-1.31-3.79-1.47-5.14,0s-1.47,3.74,0,5.14h0Z"/><path class="cls-12" d="M738.66,503.74c-2.87,3.96-5.74,7.92-8.6,11.87-4.6,6.35-9.2,12.7-13.8,19.04-1.05,1.45-2.1,2.9-3.15,4.35-1.15,1.59-.27,4.05,1.3,4.97,1.84,1.07,3.82,.29,4.97-1.3,2.87-3.96,5.74-7.92,8.6-11.87,4.6-6.35,9.2-12.7,13.8-19.04,1.05-1.45,2.1-2.9,3.15-4.35,1.15-1.59,.27-4.05-1.3-4.97-1.84-1.07-3.82-.29-4.97,1.3h0Z"/></g><g><path class="cls-12" d="M701.2,601.77c3.63,3.45,7.27,6.91,10.9,10.36,.52,.5,1.05,1,1.57,1.5,1.38,1.31,3.79,1.47,5.14,0s1.47-3.74,0-5.14c-3.63-3.45-7.27-6.91-10.9-10.36-.52-.5-1.05-1-1.57-1.5-1.38-1.31-3.79-1.47-5.14,0s-1.47,3.74,0,5.14h0Z"/><path class="cls-12" d="M738.66,573.96c-2.87,3.96-5.74,7.92-8.6,11.87-4.6,6.35-9.2,12.7-13.8,19.04-1.05,1.45-2.1,2.9-3.15,4.35-1.15,1.59-.27,4.05,1.3,4.97,1.84,1.07,3.82,.29,4.97-1.3,2.87-3.96,5.74-7.92,8.6-11.87,4.6-6.35,9.2-12.7,13.8-19.04,1.05-1.45,2.1-2.9,3.15-4.35,1.15-1.59,.27-4.05-1.3-4.97-1.84-1.07-3.82-.29-4.97,1.3h0Z"/></g></svg>