<?xml version="1.0" encoding="UTF-8"?><svg id="Layer_1" xmlns="http://www.w3.org/2000/svg" viewBox="0 0 729.9 248.08"><defs><style>.cls-1{font-family:ArialNarrow-Italic, 'Arial Narrow';font-style:italic;}.cls-1,.cls-2,.cls-3{font-size:17.66px;}.cls-4{letter-spacing:-.06em;}.cls-4,.cls-5,.cls-6,.cls-7{font-size:17.41px;}.cls-4,.cls-5,.cls-6,.cls-7,.cls-8,.cls-9,.cls-10,.cls-3{font-family:ArialMT, Arial;}.cls-4,.cls-11{fill:#da7e27;}.cls-12{font-size:22.48px;}.cls-12,.cls-13,.cls-2{font-family:Arial-BoldMT, Arial;font-weight:700;}.cls-14{stroke-width:3.16px;}.cls-14,.cls-15,.cls-16,.cls-17{fill:none;stroke-linecap:round;}.cls-14,.cls-16{stroke:#272727;stroke-dasharray:0 0 5 4;}.cls-14,.cls-16,.cls-18{stroke-miterlimit:10;}.cls-5,.cls-19{fill:#7a8335;}.cls-6,.cls-20{fill:#762a8b;}.cls-7,.cls-21{fill:#1a6a8a;}.cls-15{stroke:#7a8335;}.cls-15,.cls-16,.cls-17{stroke-width:3px;}.cls-15,.cls-17{stroke-linejoin:round;}.cls-8{font-size:23.55px;}.cls-22{fill:#99aa3a;}.cls-23{fill:#db7e27;}.cls-24{fill:#c5d72d;}.cls-25{fill:#166b8a;}.cls-26{fill:#272727;}.cls-27{fill:#772a8b;}.cls-9{font-size:23.21px;}.cls-13,.cls-10{font-size:20.23px;}.cls-28{letter-spacing:-.02em;}.cls-29{letter-spacing:-.06em;}.cls-18{fill:#fff;stroke:#fff;}.cls-2{fill:#7f4a1e;}.cls-17{stroke:#000;}</style></defs><text class="cls-8" transform="translate(631.96 20.21)"><tspan x="0" y="0">branch </tspan><tspan x="-9.16" y="28.25">supports</tspan></text><g><path d="m606.02,125.75h10.88c.81,0,1.5-.69,1.5-1.5s-.69-1.5-1.5-1.5h-10.88c-.81,0-1.5.69-1.5,1.5s.69,1.5,1.5,1.5h0Z"/><path d="m619.12,143.26v-38.03c0-1.93-3-1.93-3,0v38.03c0,1.93,3,1.93,3,0h0Z"/><path d="m617.76,106.73h27.19c1.93,0,1.93-3,0-3h-27.19c-1.93,0-1.93,3,0,3h0Z"/><path d="m646.45,125.62v-40.78c0-1.93-3-1.93-3,0v40.78c0,1.93,3,1.93,3,0h0Z"/><path class="cls-21" d="m644.95,127.12h54.11c1.93,0,1.93-3,0-3h-54.11c-1.93,0-1.93,3,0,3h0Z"/><path class="cls-11" d="m644.95,86.34h54.11c1.93,0,1.93-3,0-3h-54.11c-1.93,0-1.93,3,0,3h0Z"/><text class="cls-9" transform="translate(616.66 168.88)"><tspan x="0" y="0">vs</tspan></text><text class="cls-6" transform="translate(619.49 100.69)"><tspan x="0" y="0">98</tspan></text><text class="cls-6" transform="translate(628.74 212.91)"><tspan x="0" y="0">2</tspan></text><path class="cls-19" d="m617.62,144.76h81.57c1.93,0,1.93-3,0-3h-81.57c-1.93,0-1.93,3,0,3h0Z"/><path d="m606.81,200.19h10.88c.81,0,1.5-.69,1.5-1.5s-.69-1.5-1.5-1.5h-10.88c-.81,0-1.5.69-1.5,1.5s.69,1.5,1.5,1.5h0Z"/><path d="m618.48,219.21h27.19c1.93,0,1.93-3,0-3h-27.19c-1.93,0-1.93,3,0,3h0Z"/><path d="m644.17,197.32v40.78c0,1.93,3,1.93,3,0v-40.78c0-1.93-3-1.93-3,0h0Z"/><path class="cls-21" d="m645.67,198.82h54.11c1.93,0,1.93-3,0-3h-54.11c-1.93,0-1.93,3,0,3h0Z"/><path class="cls-19" d="m645.67,239.6h54.11c1.93,0,1.93-3,0-3h-54.11c-1.93,0-1.93,3,0,3h0Z"/><ellipse class="cls-20" cx="645.67" cy="217.71" rx="5.78" ry="5.36"/><path d="m619.26,217.71v-38.03c0-1.93-3-1.93-3,0v38.03c0,1.93,3,1.93,3,0h0Z"/><path class="cls-11" d="m618.48,181.18h81.57c1.93,0,1.93-3,0-3h-81.57c-1.93,0-1.93,3,0,3h0Z"/><text class="cls-4" transform="translate(705.28 89.02)"><tspan x="0" y="0">A</tspan></text><text class="cls-7" transform="translate(705.7 128.84)"><tspan x="0" y="0">B</tspan></text><text class="cls-5" transform="translate(705.7 147.57)"><tspan x="0" y="0">out</tspan></text><text class="cls-4" transform="translate(705.02 183.87)"><tspan x="0" y="0">A</tspan></text><text class="cls-7" transform="translate(705.44 202.98)"><tspan x="0" y="0">B</tspan></text><text class="cls-5" transform="translate(705.44 242.42)"><tspan x="0" y="0">out</tspan></text><ellipse class="cls-20" cx="644.67" cy="104.81" rx="5.78" ry="5.36"/></g><g><line class="cls-17" x1="307.06" y1="196.13" x2="314.91" y2="196.13"/><line class="cls-15" x1="316.14" y1="236.5" x2="423.08" y2="236.5"/><line class="cls-17" x1="317.12" y1="155.76" x2="324.97" y2="155.76"/><path class="cls-21" d="m327.43,194.53h13.73c1.93,0,1.93-3,0-3h-13.73c-1.93,0-1.93,3,0,3h0Z"/><path class="cls-11" d="m326.94,120h28.45c1.93,0,1.93-3,0-3h-28.45c-1.93,0-1.93,3,0,3h0Z"/><path class="cls-21" d="m343.15,211.32v-36.3c0-1.93-3-1.93-3,0v36.3c0,1.93,3,1.93,3,0h0Z"/><path class="cls-21" d="m341.65,213.16h81.43c1.93,0,1.93-3,0-3h-81.43c-1.93,0-1.93,3,0,3h0Z"/><path class="cls-21" d="m341.65,175.89h59.84c1.93,0,1.93-3,0-3h-59.84c-1.93,0-1.93,3,0,3h0Z"/><path class="cls-21" d="m402.01,186.79v-24.53c0-1.93-3-1.93-3,0v24.53c0,1.93,3,1.93,3,0h0Z"/><path class="cls-21" d="m400.51,188.32h22.25c1.93,0,1.93-3,0-3h-22.25c-1.93,0-1.93,3,0,3h0Z"/><path class="cls-21" d="m400.83,163.47h22.25c1.93,0,1.93-3,0-3h-22.25c-1.93,0-1.93,3,0,3h0Z"/><path class="cls-11" d="m356.89,135.78v-36.3c0-1.93-3-1.93-3,0v36.3c0,1.93,3,1.93,3,0h0Z"/><path class="cls-11" d="m355.39,138.63h67.69c1.93,0,1.93-3,0-3h-67.69c-1.93,0-1.93,3,0,3h0Z"/><path class="cls-11" d="m355.39,101.37h22.56c1.93,0,1.93-3,0-3h-22.56c-1.93,0-1.93,3,0,3h0Z"/><path class="cls-11" d="m379.45,111.5v-23.55c0-1.93-3-1.93-3,0v23.55c0,1.93,3,1.93,3,0h0Z"/><path class="cls-11" d="m377.95,112.81h44.9c1.93,0,1.93-3,0-3h-44.9c-1.93,0-1.93,3,0,3h0Z"/><path class="cls-11" d="m378.17,88.94h44.9c1.93,0,1.93-3,0-3h-44.9c-1.93,0-1.93,3,0,3h0Z"/><text class="cls-1" transform="translate(329.72 169.71)"><tspan x="0" y="0">ancAB</tspan></text><text class="cls-1" transform="translate(358.34 132.51)"><tspan x="0" y="0">anc</tspan><tspan class="cls-29" x="23.35" y="0">A</tspan></text><circle class="cls-22" cx="342.09" cy="190.52" r="4.91"/><circle class="cls-22" cx="400.96" cy="174.39" r="4.91"/><circle class="cls-22" cx="354.85" cy="118.5" r="4.91"/><circle class="cls-22" cx="378.39" cy="99.87" r="4.91"/><line class="cls-17" x1="326.94" y1="192.68" x2="326.94" y2="119.1"/><circle class="cls-20" cx="326.79" cy="155.22" r="4.91"/><line class="cls-17" x1="316.14" y1="236.59" x2="316.14" y2="156.14"/><path class="cls-16" d="m315.25,146.03c-7.21-10.38-11.69-12.06-14.5-11.45-3.06.66-3.97,4-9,9-4.01,3.99-8.08,6.48-11,8"/><text class="cls-3" transform="translate(459.16 90.26)"><tspan x="0" y="0">...SMK...</tspan></text><text class="cls-3" transform="translate(458.87 114.21)"><tspan x="0" y="0">...SME...</tspan></text><text class="cls-3" transform="translate(459.85 140.12)"><tspan x="0" y="0">...SLR...</tspan></text><text class="cls-3" transform="translate(459.16 165.06)"><tspan x="0" y="0">...SLH...</tspan></text><text class="cls-3" transform="translate(458.87 189.99)"><tspan x="0" y="0">...SLH...</tspan></text><text class="cls-3" transform="translate(459.85 214.92)"><tspan x="0" y="0">...SLH...</tspan></text><text class="cls-3" transform="translate(458.37 239.86)"><tspan x="0" y="0">...SQE...</tspan></text><text class="cls-2" transform="translate(216.71 159.07)"><tspan x="0" y="0">...SLE...</tspan></text><text class="cls-2" transform="translate(216.22 209.88)"><tspan x="0" y="0">...SLH...</tspan></text><g><path class="cls-26" d="m320.92,149.31c-4.67-4.46-10.58-7.54-16.93-8.74-.8-.15-1.62.22-1.85,1.05-.2.73.25,1.69,1.05,1.85,5.86,1.11,11.29,3.85,15.61,7.97,1.4,1.33,3.52-.78,2.12-2.12h0Z"/><path class="cls-26" d="m321.03,148.2c-3.48-4.37-5.24-9.65-5.78-15.16-.08-.81-.63-1.5-1.5-1.5-.75,0-1.58.69-1.5,1.5.3,3.11.86,6.2,1.97,9.13s2.71,5.67,4.69,8.15c.51.63,1.59.53,2.12,0,.63-.63.51-1.49,0-2.12h0Z"/></g><path class="cls-25" d="m99.83,95.31h13.37v87.32h-13.37v-87.32Zm5.95,71.46h41.58v15.85h-41.58v-15.85Z"/><path class="cls-27" d="m59.18,202.27c-3.44-1.04-6.67-2.56-9.7-4.56-3.03-2-5.73-4.41-8.12-7.23l6.59-16.75c2.9,3.41,6.26,6.04,10.06,7.9,3.8,1.85,7.71,2.78,11.72,2.78,4.63,0,8.23-1.12,10.79-3.37,2.56-2.25,3.84-5.42,3.84-9.53v-.07c0-2.87-.57-5.14-1.71-6.82-1.14-1.68-2.63-2.92-4.46-3.71-1.83-.79-4.18-1.51-7.05-2.15-.1-.05-.2-.07-.29-.07s-.18-.02-.29-.07l-1.14-.22c-5.05-1.14-9.23-2.56-12.55-4.26-3.32-1.7-6.14-4.69-8.45-8.97-2.32-4.27-3.47-10.34-3.47-18.2v-.07c0-6.97,1.09-12.92,3.27-17.87,2.18-4.94,5.34-8.71,9.49-11.31,4.15-2.59,9.16-3.89,15.04-3.89,2.7,0,5.45.44,8.27,1.33s5.57,2.18,8.27,3.86c2.7,1.68,5.25,3.71,7.67,6.08l-6.02,17.2c-2.9-2.87-5.94-5.09-9.1-6.67-3.16-1.58-6.2-2.37-9.1-2.37-4.36,0-7.73,1.03-10.11,3.08-2.39,2.05-3.58,4.93-3.58,8.64v.07c0,3.11.62,5.57,1.87,7.38,1.25,1.8,2.78,3.13,4.62,3.97,1.83.84,4.41,1.73,7.73,2.67.14.05.28.09.42.11.14.03.28.06.42.11.21.05.41.11.6.19.19.07.39.14.6.19,4.77,1.33,8.75,2.95,11.95,4.86,3.2,1.9,5.87,4.97,8.01,9.19,2.14,4.23,3.21,10,3.21,17.31v.15c0,6.87-1.12,12.75-3.37,17.64-2.25,4.89-5.52,8.63-9.83,11.19-4.3,2.57-9.48,3.86-15.53,3.86-3.6,0-7.11-.52-10.55-1.56Z"/><path class="cls-21" d="m149.02,177.41h11.95v25.3h-11.95v-25.3Zm7.19,15.41l25.42-15.41h15.04l-38.93,21.61-1.53-6.19Zm10.55-2.92l10.29-2.59,22.28,15.4h-14.17l-18.4-12.8Z"/><path class="cls-11" d="m133.64,182.86h13.48v20.24h-9.3v-15.71l.37.89-10.38,12.57h-9.03l-10.38-12.29.37-1.17v15.71h-9.3v-20.24h13.48l10.34,13.64,10.34-13.64Z"/><path class="cls-23" d="m149.25,149.53h11.76v26.04h-11.76v-26.04Zm4.68,10.84h21.71c1.2,0,2.26-.13,3.18-.38.92-.25,1.62-.61,2.12-1.07s.77-1,.79-1.61c0-.61-.25-1.15-.75-1.61-.5-.46-1.21-.82-2.12-1.07s-1.99-.38-3.22-.38h-21.71v-4.72h22.66c3.43,0,6.45.32,9.05.97,2.6.64,4.62,1.55,6.05,2.73,1.43,1.18,2.15,2.54,2.15,4.09s-.71,2.91-2.15,4.09c-1.43,1.18-3.45,2.08-6.07,2.73-2.62.64-5.63.97-9.03.97h-22.66v-4.72Zm13.13,3.92l12.57-.82,16.82,12.1h-14.25l-15.15-11.27Z"/><path class="cls-24" d="m148.5,94.29h12.82v54.21h-12.82v-54.21Zm4.63,0h40.95v9.84h-40.95v-9.84Zm0,22.37h35.81v9.84h-35.81v-9.84Zm0,22h40.95v9.84h-40.95v-9.84Z"/><text class="cls-10" transform="translate(60.33 231.99)"><tspan x="0" y="0" xml:space="preserve">5        6       7</tspan></text><text class="cls-12" transform="translate(19.94 232.51)"><tspan x="0" y="0">N</tspan></text><text class="cls-12" transform="translate(0 151.32)"><tspan x="0" y="0">P</tspan><tspan class="cls-28" x="14.99" y="0">P</tspan></text><text class="cls-12" transform="translate(195.23 232.4)"><tspan x="0" y="0">C</tspan></text><text class="cls-13" transform="translate(38.33 231.82)"><tspan x="0" y="0">...</tspan></text><text class="cls-13" transform="translate(176.45 232.59)"><tspan x="0" y="0">...</tspan></text><path class="cls-16" d="m283.72,101.52c10.19.8,18.43.47,24.16,0,10.02-.82,15.26-3.28,22.43-1.46,6.28,1.6,10.48,5.32,12.94,8.02"/><g><path class="cls-26" d="m350.02,112c-5.38-3.59-11.75-5.54-18.22-5.63-1.93-.03-1.93,2.97,0,3,5.97.08,11.75,1.91,16.71,5.22,1.61,1.07,3.11-1.52,1.51-2.59h0Z"/><path class="cls-26" d="m350.24,111.12c-4.32-3.82-7.01-8.72-8.53-14.24-.51-1.86-3.41-1.07-2.89.8,1.65,5.99,4.61,11.42,9.3,15.57.61.54,1.52.6,2.12,0,.55-.55.61-1.58,0-2.12h0Z"/></g><path class="cls-11" d="m442.78,99.07c-.08,0-.21.01-.37.01-.23,0-.43,0-.43,0-.18,0-.26-.02-.4,0-.07,0-.14.02-.2.04-.11.03-.18.06-.2.07-.13.06-.15.1-.32.2-.08.04-.12.07-.18.09-.12.04-.23.04-.27.04-.06,0-.1,0-.15-.02-.09-.02-.1-.06-.18-.08-.06-.01-.12-.01-.14-.01-.06,0-.1.01-.13.02-.07.02-.09.04-.14.06-.04.01-.1.02-.18,0-.03-.02-.07-.06-.1-.12-.02-.04-.08-.15-.04-.24.02-.06.08-.1.17-.14.03-.02.12-.06.24-.09.1-.02.13,0,.23-.04.04-.01.06-.02.13-.05.26-.12.28-.11.36-.17.06-.05.04-.05.17-.16.03-.02.06-.05.2-.17.19-.15.25-.19.38-.3.05-.04.09-.08.12-.1,0-.05.02-.12.02-.2,0-.04,0-.14,0-.33,0-.26-.03-.46-.04-.52,0,0-.02-.18-.05-.34-.07-.33-.18-.58-.33-.92-.05-.12-.23-.55-.42-1.03-.16-.43-.25-.65-.27-.77,0,0-.1-.39-.24-.71-.04-.09-.07-.15-.08-.16-.07-.1-.09-.1-.14-.19-.02-.03,0-.02-.08-.18-.04-.09-.05-.11-.08-.14-.05-.04-.07-.02-.13-.07-.04-.03-.07-.07-.13-.15-.03-.04-.04-.06-.05-.08-.03-.06-.02-.11-.01-.16,0,0,0-.12-.02-.28-.01-.07-.04-.13-.08-.24-.06-.14-.11-.24-.14-.3-.14-.28-.17-.33-.21-.41-.09-.18-.11-.27-.22-.59-.06-.18-.15-.43-.26-.74-.18.3-.47.76-.84,1.22-.18.22-.27.34-.42.49-.22.22-.3.25-.44.44-.06.08-.13.22-.27.49-.03.06-.07.14-.07.25,0,.09.03.16.03.17.05.13.14.96-.27,1.94-.38.91-.7.79-1.37,2.04-.25.47-.23.53-.46.89-.15.24-.38.56-.48.96-.01.04-.02.08-.04.16-.11.46-.14.56-.23.64-.08.07-.17.09-.2.09-.34.07-.48-.29-.98-.5-.51-.21-.79-.02-1.08-.3-.05-.05-.13-.14-.28-.23-.21-.12-.26-.07-.41-.16-.28-.16-.4-.51-.51-.84-.03-.09-.05-.18-.05-.18-.02-.06-.03-.12-.03-.17.03-.02.08-.05.13-.04.11.02.12.16.24.23.1.06.16,0,.33.01.2.02.26.13.44.2.2.08.3.01.62-.01.69-.05.94.18,1.19-.02.05-.04.1-.13.2-.3.16-.29.25-.53.31-.67.29-.78.24-.59.35-.9.2-.55.34-1.01.48-1.49.11-.35.12-.4.2-.65.07-.21.12-.42.19-.62.03-.08.07-.19.09-.34,0-.09,0-.09.01-.19.02-.14.05-.19.03-.27,0-.01,0-.03-.03-.11-.01-.06-.02-.07-.02-.07,0-.03-.01-.08-.01-.14,0-.1.04-.18.05-.2.02-.03.04-.05.07-.1.06-.07.08-.07.11-.11.03-.04.05-.1.09-.22.03-.09.04-.14.04-.14,0-.03.05-.17.13-.45.09-.3.22-.7.27-.83.32-.95.23-.88.41-1.31,0,0,.25-.6.63-1.17.16-.23.24-.52.45-.71,0,0,.02-.01.02-.03,0-.01,0-.02-.01-.04,0-.02,0-.02-.01-.04-.03-.09-.07-.2-.07-.2-.1-.32-.15-.6-.17-.81,0-.1,0-.03-.01-.61,0-.38-.02-.55.02-.55.02,0,.04.03.05.06,0,.03-.02.05-.1.13-.01.01-.05.05-.09.09-.07.08-.08.11-.27.29-.16.15-.08.1-.59.64-.14.15-.21.23-.24.26-.09.09-.17.19-.27.28-.02.02-.07.05-.09.12-.01.03-.01.04-.02.11-.02.18-.03.21-.04.24-.02.04-.04.06-.07.1-.05.06-.08.08-.13.13-.03.03-.1.1-.15.19-.04.08-.05.14-.06.22-.02.11-.03.2,0,.31.01.05.04.15.14.26.03.06.04.11.01.13-.02.01-.04.01-.06,0-.06,0-.09-.04-.11-.03-.02.01,0,.04-.03.06-.02.02-.05.02-.05.02-.02,0-.06,0-.18-.12-.03-.03-.06-.06-.06-.05,0,0,.01.03.03.08.02.04.03.07.03.1,0,.02,0,.08-.04.1-.03.02-.07,0-.11,0-.02,0-.08-.02-.11-.08-.02-.04-.02-.08-.03-.08,0,0,0,0-.02.03-.02.05-.03.08-.04.09-.02.02-.06.01-.07.01-.02,0-.04-.01-.05-.03-.05-.03-.07-.07-.09-.09-.02-.03-.05-.08-.08-.16-.03-.06-.04-.11-.05-.15-.01-.05-.03-.13-.03-.22.02-.19.02-.34.02-.44,0-.11,0-.17.03-.24.04-.09.09-.09.19-.2.1-.12.07-.14.17-.25.1-.11.13-.09.23-.21.07-.08.06-.1.16-.22.07-.09.1-.1.17-.19,0,0,.07-.09.15-.21.17-.26.29-.65.51-1.09.09-.18.15-.3.26-.47.12-.17.23-.28.39-.46.38-.4.44-.39.51-.55.08-.21-.03-.25.02-.63.05-.4.18-.44.15-.71-.03-.27-.15-.26-.2-.54-.06-.39.15-.73.23-.86.17-.27.22-.18.39-.45.22-.37.17-.61.38-.85.03-.03.1-.11.13-.22.02-.09.01-.16,0-.23-.01-.11-.04-.13-.07-.3,0-.02-.01-.07-.02-.13,0-.05-.02-.08-.02-.11-.01,0-.03,0-.06,0-.06,0-.11,0-.19.02-.16.03-.17.03-.18.03-.08,0-.13-.02-.15-.03-.03-.01-.06-.03-.09-.05-.1-.1.04-.31-.04-.39-.06-.06-.15,0-.21-.07-.03-.04,0-.06-.03-.14-.04-.11-.09-.12-.09-.18,0-.06.06-.06.08-.13.01-.04.02-.12-.02-.16-.07-.07-.21.04-.29-.03-.05-.05-.03-.15-.02-.21.03-.15.11-.17.17-.36.02-.07.04-.14.02-.21-.02-.08-.07-.1-.12-.17-.05-.08-.04-.2-.03-.46.01-.22.02-.33.06-.41.04-.08.09-.12.08-.19,0-.11-.1-.15-.1-.23,0-.06.05-.14.27-.24.15-.14.43-.36.84-.5.44-.15.83-.14,1.04-.12.56.24.84.55,1,.78.31.45.17.68.62,1.75.04.1.16.37.32.77.08.21.19.47.29.83.09.32.13.48.08.58-.12.29-.52.35-.5.56,0,.03.02.06.05.12.08.16.17.18.27.3.08.11.11.22.13.3.04.18,0,.21.03.38.03.11.06.18.14.31.07.14.1.16.19.3.06.09.15.24.22.44.07.2.05.24.14.48.02.05.02.06.11.26.2.47.22.52.33.75.03.07.06.13.09.2.1.19.17.25.15.34,0,.05-.04.08-.03.14.01.06.05.1.06.11.04.04.13.24.32.63.31.64.42,1.24.42,1.24.09.51.2,1.69.18,1.88,0,.02-.01.1.03.13.02.01.03.01.05.01.05,0,.1.04.17.11.12.11.17.16.23.23.09.12.16.21.21.35.04.13.02.17.08.27.02.04.07.08.16.17.08.08.15.14.22.19.09.07.13.1.17.12.08.02.14,0,.18.06.02.03.02.06.01.07,0,.05-.04.08-.08.1-.03.01-.06,0-.07.02,0,.01.02.02.03.06,0,0,0,.04,0,.07,0,.02-.02.03-.05.04-.05.02-.09.03-.13.04-.08.02-.11.02-.11.03,0,.01.04.02.06.06,0,0,.02.03.01.06,0,.02-.02.04-.02.05-.02.02-.04.03-.07.04-.04.02-.08.03-.13.04-.08.02-.1.02-.11.02-.03,0-.06,0-.06,0,0,.01.05.03.06.07,0,.03-.02.07-.05.1-.03,0-.06.02-.11.03-.07.02-.12.02-.17.02-.06,0-.1-.03-.17-.07-.04-.02-.08-.05-.14-.07-.05-.02-.07-.01-.08,0,0,.01,0,.03,0,.07,0,.01,0,.04-.01.06-.03.05-.13.06-.19.02-.01,0-.02-.02-.06-.11-.06-.12-.05-.13-.08-.17-.05-.06-.08-.04-.1-.09-.02-.04,0-.05,0-.17,0-.06,0-.08,0-.1,0-.04-.04-.11-.12-.18-.03-.05-.06-.11-.08-.17-.02-.06-.02-.13-.02-.18,0-.1,0-.14-.02-.19-.01-.03-.03-.05-.05-.08-.04-.06-.05-.06-.07-.1-.02-.04-.02-.07-.03-.11-.01-.07-.01-.11-.01-.14,0-.06-.01-.08-.09-.26-.06-.15-.09-.23-.1-.25-.04-.14-.03-.25-.03-.29.02-.35-.19-.96-.29-1.25-.12-.36-.28-.72-.34-.85-.12-.28-.16-.35-.21-.52-.03-.1-.09-.34-.14-.64-.02-.13-.02-.17-.05-.23-.08-.19-.24-.29-.34-.36-.15-.1-.34-.27-.55-.54,0,.06,0,.16-.02.28-.04.31-.09.39-.16.73-.04.18-.04.36-.04.72,0,.42.03.56.06.65.02.08.02.1.16.36.1.17.28.52.35.87.02.09.05.24.05.43,0,.14,0,.3-.07.49-.08.23-.19.3-.18.47,0,.05.02.07.07.21.03.08.07.2.15.44.13.42.22.79.25.95.04.18.02.13.09.42.11.54.14.6.21.97.07.36.1.54.11.72.03.68.03.73.03.73,0,.08-.01.24.08.39.05.07.09.11.14.15.2.18.31.38.46.65.11.19.17.35.19.42.08.22.12.4.15.55.08.4.07.57.12,1.07.03.27.07.52.14,1.02.05.32.08.54.14.85.05.23.12.58.23.91.07.2.14.33.15.36.07.14.14.25.14.25.07.11.11.16.16.26.04.08.06.14.08.19,0,.03,0,.08-.02.14-.03.09-.08.15-.1.16-.06.07-.13.09-.2.11-.05.02-.12.03-.2.04Z"/><path class="cls-25" d="m442.78,174.85c-.08,0-.21.01-.37.01-.23,0-.43,0-.43,0-.18,0-.26-.02-.4,0-.07,0-.14.02-.2.04-.11.03-.18.06-.2.07-.13.06-.15.1-.32.2-.08.04-.12.07-.18.09-.12.04-.23.04-.27.04-.06,0-.1,0-.15-.02-.09-.02-.1-.06-.18-.08-.06-.01-.12-.01-.14-.01-.06,0-.1.01-.13.02-.07.02-.09.04-.14.06-.04.01-.1.02-.18,0-.03-.02-.07-.06-.1-.12-.02-.04-.08-.15-.04-.24.02-.06.08-.1.17-.14.03-.02.12-.06.24-.09.1-.02.13,0,.23-.04.04-.01.06-.02.13-.05.26-.12.28-.11.36-.17.06-.05.04-.05.17-.16.03-.02.06-.05.2-.17.19-.15.25-.19.38-.3.05-.04.09-.08.12-.1,0-.05.02-.12.02-.2,0-.04,0-.14,0-.33,0-.26-.03-.46-.04-.52,0,0-.02-.18-.05-.34-.07-.33-.18-.58-.33-.92-.05-.12-.23-.55-.42-1.03-.16-.43-.25-.65-.27-.77,0,0-.1-.39-.24-.71-.04-.09-.07-.15-.08-.16-.07-.1-.09-.1-.14-.19-.02-.03,0-.02-.08-.18-.04-.09-.05-.11-.08-.14-.05-.04-.07-.02-.13-.07-.04-.03-.07-.07-.13-.15-.03-.04-.04-.06-.05-.08-.03-.06-.02-.11-.01-.16,0,0,0-.12-.02-.28-.01-.07-.04-.13-.08-.24-.06-.14-.11-.24-.14-.3-.14-.28-.17-.33-.21-.41-.09-.18-.11-.27-.22-.59-.06-.18-.15-.43-.26-.74-.18.3-.47.76-.84,1.22-.18.22-.27.34-.42.49-.22.22-.3.25-.44.44-.06.08-.13.22-.27.49-.03.06-.07.14-.07.25,0,.09.03.16.03.17.05.13.14.96-.27,1.94-.38.91-.7.79-1.37,2.04-.25.47-.23.53-.46.89-.15.24-.38.56-.48.96-.01.04-.02.08-.04.16-.11.46-.14.56-.23.64-.08.07-.17.09-.2.09-.34.07-.48-.29-.98-.5-.51-.21-.79-.02-1.08-.3-.05-.05-.13-.14-.28-.23-.21-.12-.26-.07-.41-.16-.28-.16-.4-.51-.51-.84-.03-.09-.05-.18-.05-.18-.02-.06-.03-.12-.03-.17.03-.02.08-.05.13-.04.11.02.12.16.24.23.1.06.16,0,.33.01.2.02.26.13.44.2.2.08.3.01.62-.01.69-.05.94.18,1.19-.02.05-.04.1-.13.2-.3.16-.29.25-.53.31-.67.29-.78.24-.59.35-.9.2-.55.34-1.01.48-1.49.11-.35.12-.4.2-.65.07-.21.12-.42.19-.62.03-.08.07-.19.09-.34,0-.09,0-.09.01-.19.02-.14.05-.19.03-.27,0-.01,0-.03-.03-.11-.01-.06-.02-.07-.02-.07,0-.03-.01-.08-.01-.14,0-.1.04-.18.05-.2.02-.03.04-.05.07-.1.06-.07.08-.07.11-.11.03-.04.05-.1.09-.22.03-.09.04-.14.04-.14,0-.03.05-.17.13-.45.09-.3.22-.7.27-.83.32-.95.23-.88.41-1.31,0,0,.25-.6.63-1.17.16-.23.24-.52.45-.71,0,0,.02-.01.02-.03,0-.01,0-.02-.01-.04,0-.02,0-.02-.01-.04-.03-.09-.07-.2-.07-.2-.1-.32-.15-.6-.17-.81,0-.1,0-.03-.01-.61,0-.38-.02-.55.02-.55.02,0,.04.03.05.06,0,.03-.02.05-.1.13-.01.01-.05.05-.09.09-.07.08-.08.11-.27.29-.16.15-.08.1-.59.64-.14.15-.21.23-.24.26-.09.09-.17.19-.27.28-.02.02-.07.05-.09.12-.01.03-.01.04-.02.11-.02.18-.03.21-.04.24-.02.04-.04.06-.07.1-.05.06-.08.08-.13.13-.03.03-.1.1-.15.19-.04.08-.05.14-.06.22-.02.11-.03.2,0,.31.01.05.04.15.14.26.03.06.04.11.01.13-.02.01-.04.01-.06,0-.06,0-.09-.04-.11-.03-.02.01,0,.04-.03.06-.02.02-.05.02-.05.02-.02,0-.06,0-.18-.12-.03-.03-.06-.06-.06-.05,0,0,.01.03.03.08.02.04.03.07.03.1,0,.02,0,.08-.04.1-.03.02-.07,0-.11,0-.02,0-.08-.02-.11-.08-.02-.04-.02-.08-.03-.08,0,0,0,0-.02.03-.02.05-.03.08-.04.09-.02.02-.06.01-.07.01-.02,0-.04-.01-.05-.03-.05-.03-.07-.07-.09-.09-.02-.03-.05-.08-.08-.16-.03-.06-.04-.11-.05-.15-.01-.05-.03-.13-.03-.22.02-.19.02-.34.02-.44,0-.11,0-.17.03-.24.04-.09.09-.09.19-.2.1-.12.07-.14.17-.25.1-.11.13-.09.23-.21.07-.08.06-.1.16-.22.07-.09.1-.1.17-.19,0,0,.07-.09.15-.21.17-.26.29-.65.51-1.09.09-.18.15-.3.26-.47.12-.17.23-.28.39-.46.38-.4.44-.39.51-.55.08-.21-.03-.25.02-.63.05-.4.18-.44.15-.71-.03-.27-.15-.26-.2-.54-.06-.39.15-.73.23-.86.17-.27.22-.18.39-.45.22-.37.17-.61.38-.85.03-.03.1-.11.13-.22.02-.09.01-.16,0-.23-.01-.11-.04-.13-.07-.3,0-.02-.01-.07-.02-.13,0-.05-.02-.08-.02-.11-.01,0-.03,0-.06,0-.06,0-.11,0-.19.02-.16.03-.17.03-.18.03-.08,0-.13-.02-.15-.03-.03-.01-.06-.03-.09-.05-.1-.1.04-.31-.04-.39-.06-.06-.15,0-.21-.07-.03-.04,0-.06-.03-.14-.04-.11-.09-.12-.09-.18,0-.06.06-.06.08-.13.01-.04.02-.12-.02-.16-.07-.07-.21.04-.29-.03-.05-.05-.03-.15-.02-.21.03-.15.11-.17.17-.36.02-.07.04-.14.02-.21-.02-.08-.07-.1-.12-.17-.05-.08-.04-.2-.03-.46.01-.22.02-.33.06-.41.04-.08.09-.12.08-.19,0-.11-.1-.15-.1-.23,0-.06.05-.14.27-.24.15-.14.43-.36.84-.5.44-.15.83-.14,1.04-.12.56.24.84.55,1,.78.31.45.17.68.62,1.75.04.1.16.37.32.77.08.21.19.47.29.83.09.32.13.48.08.58-.12.29-.52.35-.5.56,0,.03.02.06.05.12.08.16.17.18.27.3.08.11.11.22.13.3.04.18,0,.21.03.38.03.11.06.18.14.31.07.14.1.16.19.3.06.09.15.24.22.44.07.2.05.24.14.48.02.05.02.06.11.26.2.47.22.52.33.75.03.07.06.13.09.2.1.19.17.25.15.34,0,.05-.04.08-.03.14.01.06.05.1.06.11.04.04.13.24.32.63.31.64.42,1.24.42,1.24.09.51.2,1.69.18,1.88,0,.02-.01.1.03.13.02.01.03.01.05.01.05,0,.1.04.17.11.12.11.17.16.23.23.09.12.16.21.21.35.04.13.02.17.08.27.02.04.07.08.16.17.08.08.15.14.22.19.09.07.13.1.17.12.08.02.14,0,.18.06.02.03.02.06.01.07,0,.05-.04.08-.08.1-.03.01-.06,0-.07.02,0,.01.02.02.03.06,0,0,0,.04,0,.07,0,.02-.02.03-.05.04-.05.02-.09.03-.13.04-.08.02-.11.02-.11.03,0,.01.04.02.06.06,0,0,.02.03.01.06,0,.02-.02.04-.02.05-.02.02-.04.03-.07.04-.04.02-.08.03-.13.04-.08.02-.1.02-.11.02-.03,0-.06,0-.06,0,0,.01.05.03.06.07,0,.03-.02.07-.05.1-.03,0-.06.02-.11.03-.07.02-.12.02-.17.02-.06,0-.1-.03-.17-.07-.04-.02-.08-.05-.14-.07-.05-.02-.07-.01-.08,0,0,.01,0,.03,0,.07,0,.01,0,.04-.01.06-.03.05-.13.06-.19.02-.01,0-.02-.02-.06-.11-.06-.12-.05-.13-.08-.17-.05-.06-.08-.04-.1-.09-.02-.04,0-.05,0-.17,0-.06,0-.08,0-.1,0-.04-.04-.11-.12-.18-.03-.05-.06-.11-.08-.17-.02-.06-.02-.13-.02-.18,0-.1,0-.14-.02-.19-.01-.03-.03-.05-.05-.08-.04-.06-.05-.06-.07-.1-.02-.04-.02-.07-.03-.11-.01-.07-.01-.11-.01-.14,0-.06-.01-.08-.09-.26-.06-.15-.09-.23-.1-.25-.04-.14-.03-.25-.03-.29.02-.35-.19-.96-.29-1.25-.12-.36-.28-.72-.34-.85-.12-.28-.16-.35-.21-.52-.03-.1-.09-.34-.14-.64-.02-.13-.02-.17-.05-.23-.08-.19-.24-.29-.34-.36-.15-.1-.34-.27-.55-.54,0,.06,0,.16-.02.28-.04.31-.09.39-.16.73-.04.18-.04.36-.04.72,0,.42.03.56.06.65.02.08.02.1.16.36.1.17.28.52.35.87.02.09.05.24.05.43,0,.14,0,.3-.07.49-.08.23-.19.3-.18.47,0,.05.02.07.07.21.03.08.07.2.15.44.13.42.22.79.25.95.04.18.02.13.09.42.11.54.14.6.21.97.07.36.1.54.11.72.03.68.03.73.03.73,0,.08-.01.24.08.39.05.07.09.11.14.15.2.18.31.38.46.65.11.19.17.35.19.42.08.22.12.4.15.55.08.4.07.57.12,1.07.03.27.07.52.14,1.02.05.32.08.54.14.85.05.23.12.58.23.91.07.2.14.33.15.36.07.14.14.25.14.25.07.11.11.16.16.26.04.08.06.14.08.19,0,.03,0,.08-.02.14-.03.09-.08.15-.1.16-.06.07-.13.09-.2.11-.05.02-.12.03-.2.04Z"/><g id="z7AOf1"><g><path class="cls-19" d="m438.93,237.68c.13-.09.24-.09.33.04.11.15.21.3.32.44.11.14.22.28.34.4.23.21.48.4.7.62.39.39.86.45,1.3.11.28-.22.55-.45.8-.69.25-.25.62-.34.8-.67.07-.13.16-.25.24-.37.18-.25.42-.48.18-.85.1,0,.16-.02.21-.01.24.03.49.07.73.11.26.04.54.06.79.14.3.1.6.24.88.4.44.25.85.54,1.29.81.32.19.64.38.97.53.31.14.63.29.98.12.19-.09.27-.2.21-.41-.1-.34-.22-.67-.35-1-.03-.08-.16-.14-.17-.22-.03-.18-.14-.28-.26-.39-.25-.24-.18-.46.06-.6.21-.12.32-.32.51-.45.09-.06.21-.09.26-.17.16-.23.31-.48.43-.73.11-.22.04-.59-.12-.68-.16-.09-.33-.17-.5-.21-.41-.09-.81-.02-1.2.07-.42.1-.84.22-1.26.32-.39.09-.77.2-1.17.26-.47.07-.93.01-1.4-.07-.52-.09-1.04-.15-1.56-.23-.18-.03-.36-.07-.57-.12.04-.05.06-.1.09-.13.25-.21.28-.46.16-.75-.04-.11-.06-.25-.13-.32-.24-.23-.5-.46-.77-.65-.23-.16-.51-.23-.78-.17-.24.05-.47.17-.7.28-.38.19-.75.39-1.12.59-.33.18-.65.31-1.06.28-.66-.04-1.32.02-1.98.06-1.19.06-2.34.29-3.5.56-.78.18-1.56.39-2.34.6-.77.21-1.58.32-2.28.78-.11.07-.24.14-.32.24-.04.05.03.17.05.26,0,0,0,.02-.02.04-.03-.01-.06-.03-.09-.04-.17-.08-.26-.04-.25.15,0,.12.04.27.11.36.13.16.29.32.46.43.35.24.71.47,1.08.68.19.11.41.17.62.24.22.07.44.12.67.15.55.08,1.1.14,1.65.21.79.09,1.57.22,2.36.27.53.03,1.06-.06,1.59-.1.2-.02.21,0,.25.19.06.24.12.48.23.69.18.38.45.49.86.37.35-.11.67-.28.95-.53.21-.18.37-.39.44-.66.05-.19.14-.4-.05-.58Z"/><path class="cls-19" d="m438.93,237.68c.19.19.09.39.05.58-.06.27-.23.47-.44.66-.28.25-.6.42-.95.53-.4.12-.67,0-.86-.37-.11-.22-.17-.46-.23-.69-.05-.2-.05-.21-.25-.19-.53.04-1.06.13-1.59.1-.79-.04-1.58-.17-2.36-.27-.55-.07-1.1-.13-1.65-.21-.22-.03-.45-.09-.67-.15-.21-.06-.43-.13-.62-.24-.37-.21-.73-.44-1.08-.68-.17-.12-.33-.27-.46-.43-.07-.09-.11-.24-.11-.36,0-.19.08-.23.25-.15.03.01.06.03.09.04,0-.02.02-.03.02-.04-.02-.09-.09-.22-.05-.26.08-.1.21-.17.32-.24.69-.46,1.5-.57,2.28-.78.78-.21,1.56-.42,2.34-.6,1.15-.27,2.31-.5,3.5-.56.66-.03,1.33-.1,1.98-.06.41.03.73-.1,1.06-.28.37-.2.74-.4,1.12-.59.22-.11.46-.22.7-.28.27-.06.56.01.78.17.27.19.53.42.77.65.08.07.09.22.13.32.12.29.09.54-.16.75-.04.03-.06.08-.09.13.2.04.38.09.57.12.52.08,1.04.14,1.56.23.46.08.93.13,1.4.07.39-.06.78-.16,1.17-.26.42-.1.84-.22,1.26-.32.4-.1.8-.17,1.2-.07.17.04.35.12.5.21.16.09.23.46.12.68-.13.25-.27.5-.43.73-.05.08-.17.11-.26.17-.19.13-.29.33-.51.45-.25.14-.32.36-.06.6.11.11.23.21.26.39.01.08.14.13.17.22.13.33.24.66.35,1,.06.2-.02.32-.21.41-.36.17-.68.01-.98-.12-.34-.15-.66-.34-.97-.53-.43-.26-.85-.55-1.29-.81-.28-.16-.57-.3-.88-.4-.25-.08-.52-.1-.79-.14-.24-.04-.49-.08-.73-.11-.06,0-.12,0-.21.01.23.37,0,.6-.18.85-.09.12-.17.24-.24.37-.18.33-.55.42-.8.67-.25.25-.52.48-.8.69-.44.35-.91.28-1.3-.11-.22-.22-.48-.41-.7-.62-.13-.12-.24-.26-.34-.4-.11-.14-.21-.29-.32-.44-.09-.12-.2-.13-.33-.04Z"/></g></g><path class="cls-11" d="m429.54,107.21s-.02-.07-.01-.19c0-.1.01-.17.04-.26.03-.08.04-.13.09-.18.05-.07.09-.07.16-.17.04-.05.06-.08.06-.12,0-.06-.06-.07-.1-.14-.03-.06-.01-.12.01-.25.01-.07.02-.11.05-.15.04-.07.08-.07.1-.12.02-.04.03-.1-.02-.21,0-.1-.01-.25.03-.42.05-.18.1-.19.13-.33.04-.21-.06-.27-.06-.56,0-.16.03-.37.08-.38.04,0,.1.15.22.46.07.19.1.3.2.33.04.01.11.02.14-.02.06-.06-.04-.18-.13-.45-.03-.11-.08-.29-.08-.49,0-.15.02-.36.07-.37.04,0,.09.16.19.49.07.22.09.32.18.42.01.02.17.19.25.15.05-.02.05-.1.03-.53-.01-.25-.02-.38-.01-.56,0-.14.02-.37.07-.38.04,0,.08.1.1.16.11.28.07.46.15.8.03.12.07.31.13.31.04,0,.07-.07.09-.09.09-.18-.02-.3.01-.54.02-.15.09-.27.11-.26.03,0-.04.29.06.63.06.22.13.24.16.25.05.01.1-.02.19-.08.05-.03.12-.08.19-.17.08-.12.05-.16.14-.28.05-.07.15-.17.19-.15.05.02-.03.17.02.38.02.07.05.19.13.21.09.02.15-.12.33-.14.03,0,.12-.02.15.03.03.05-.06.12-.03.2.02.06.1.05.15.11.07.1,0,.26-.01.3-.02.04-.07.14-.39.34-.23.14-.35.19-.34.24,0,.05.15.07.25.08.28.05.46.21.77.48.42.37.76.84,1.2,1.48.66.94.67.97.84,1.18.44.56.85.97,1.12,1.22.18.05.46.13.8.26.58.23.66.33,1.05.44.28.08.57.1,1.14.13.46.03.79.02,1.13,0,.57-.01.78-.05.98-.1.17-.04.36-.1.57-.23.22-.14.3-.26.52-.49.28-.28.45-.45.69-.59.46-.27.99-.29,1.21-.3.3-.01.37.03.59-.03.27-.08.3-.18.66-.36.33-.16.59-.21.75-.25.34-.07.53-.1.7,0,.05.03.24.15.27.35.02.09,0,.15.05.2.06.05.13,0,.23,0,.21.02.34.29.39.39.02.04.15.31.07.38-.07.06-.21-.08-.44-.03-.03,0-.16.03-.17.1-.02.08.11.14.09.19-.03.07-.4-.09-.52.04-.04.05,0,.08-.03.22-.04.22-.16.26-.18.43-.01.11.03.13.08.33.06.24.08.54.01.57-.08.03-.21-.44-.45-.44-.14,0-.29.16-.32.32-.04.2.06.41.26.52.02.18.04.36.06.55-.01.2-.03.4-.04.6-.15-.23-.3-.46-.45-.69.07.27.12.51.14.7.02.19.03.37.04.74,0,.34,0,.52-.06.54-.06.02-.14-.14-.2-.12-.05.02-.03.12-.04.28,0,.21-.02.5-.14.56-.09.04-.16-.08-.25-.05-.12.04-.11.26-.22.65-.08.26-.15.5-.28.52-.12.02-.16-.15-.28-.14-.22.02-.15.64-.56.9-.14.09-.39.17-.66.14-.17-.02-.26-.07-.32-.02-.1.09.07.3.06.62-.01.29-.17.5-.42.82-.1.14-.26.32-.48.5-.29.18-.58.36-.88.54-.28.06-.56.12-.84.18-1.28.78-2.1,1.71-2.37,2.41-.15.37-.36,1.21-.16,1.48.01.02.11.15.07.21-.03.04-.12-.01-.17.03-.11.07-.04.4.09.73.19.46.43.69.38.74-.04.04-.3-.05-.48-.22-.06-.06-.13-.14-.19-.12-.04.01-.05.07-.08.12-.08.14-.25.19-.43.25-.14.04-.19.04-.4.07-.44.07-.62.16-.65.11-.03-.05.2-.22.36-.32.21-.13.4-.19.4-.2,0,0-.24.09-.48.17-.38.13-.65.22-.67.18-.03-.06.41-.35.44-.37.36-.23.47-.23.64-.38.14-.13.21-.32.34-.7.18-.52.11-.54.31-1.72.01-.08.04-.23,0-.25-.08-.04-.32.31-.36.37-.2.29-.23.45-.45.99-.14.34-.36.85-.24.93.02.02.07.01.11.06.03.04.06.1.05.15-.03.11-.24.06-.34.17-.1.11-.04.3.02.51.05.16.17.58.49.69.07.02.14.04.14.06,0,.03-.15.08-.28.04-.15-.04-.17-.16-.38-.3-.08-.05-.14-.08-.19-.1-.03.05-.08.12-.11.21-.06.16-.02.24-.08.31-.06.07-.15.07-.36.08-.04,0-.41.02-.66.04-.12.01-.3.04-.52.11-.34.11-.5.25-.54.2-.04-.04.03-.19.12-.3.15-.16.34-.18.34-.2,0-.01-.15.03-.33.06-.19.03-.21.02-.37.04-.24.04-.26.07-.49.11-.1.02-.46.08-.48.02-.02-.06.29-.24.59-.36.45-.18.67-.12,1.18-.26.18-.05.42-.13.69-.27.21-.51.38-.87.51-1.11.02-.04.09-.17.21-.44.18-.38.24-.49.23-.65,0-.18-.09-.31-.14-.39-.22-.35-.49-.3-.89-.71-.22-.23-.27-.37-.28-.43-.03-.14-.01-.25.02-.48.05-.29.09-.31.11-.49.03-.23-.02-.41-.09-.68-.07-.27-.12-.46-.26-.65-.19-.28-.31-.21-.61-.51-.36-.36-.3-.58-.64-.8-.17-.11-.25-.11-.47-.19-.43-.16-.69-.4-1.05-.72-.3-.26-1.08-.99-1.49-2.16-.09-.25-.14-.46-.17-.6-.11-.47-.23-1.02-.11-1.64.02-.1.09-.33.23-.8.15-.51.18-.56.21-.75.01-.11,0-.13.02-.83,0-.32,0-.48,0-.52.04-.43.14-.74.08-.77-.02,0-.03.02-.1.05-.14.07-.28.06-.33.05-.09-.01-.19-.02-.24-.1-.05-.07-.03-.15-.02-.21.02-.1.06-.17.09-.21.05-.07.07-.08.11-.14.03-.06.06-.11.04-.16-.02-.08-.12-.07-.2-.16-.09-.09-.1-.21-.1-.29,0-.08,0-.22.01-.34,0-.05.01-.1-.01-.13-.04-.04-.11-.04-.17-.03-.08,0-.13.03-.3.11-.19.08-.16.06-.22.09-.13.06-.17.1-.2.09Z"/><path class="cls-25" d="m429.54,180.99s-.02-.07-.01-.19c0-.1.01-.17.04-.26.03-.08.04-.13.09-.18.05-.07.09-.07.16-.17.04-.05.06-.08.06-.12,0-.06-.06-.07-.1-.14-.03-.06-.01-.12.01-.25.01-.07.02-.11.05-.15.04-.07.08-.07.1-.12.02-.04.03-.1-.02-.21,0-.1-.01-.25.03-.42.05-.18.1-.19.13-.33.04-.21-.06-.27-.06-.56,0-.16.03-.37.08-.38.04,0,.1.15.22.46.07.19.1.3.2.33.04.01.11.02.14-.02.06-.06-.04-.18-.13-.45-.03-.11-.08-.29-.08-.49,0-.15.02-.36.07-.37.04,0,.09.16.19.49.07.22.09.32.18.42.01.02.17.19.25.15.05-.02.05-.1.03-.53-.01-.25-.02-.38-.01-.56,0-.14.02-.37.07-.38.04,0,.08.1.1.16.11.28.07.46.15.8.03.12.07.31.13.31.04,0,.07-.07.09-.09.09-.18-.02-.3.01-.54.02-.15.09-.27.11-.26.03,0-.04.29.06.63.06.22.13.24.16.25.05.01.1-.02.19-.08.05-.03.12-.08.19-.17.08-.12.05-.16.14-.28.05-.07.15-.17.19-.15.05.02-.03.17.02.38.02.07.05.19.13.21.09.02.15-.12.33-.14.03,0,.12-.02.15.03.03.05-.06.12-.03.2.02.06.1.05.15.11.07.1,0,.26-.01.3-.02.04-.07.14-.39.34-.23.14-.35.19-.34.24,0,.05.15.07.25.08.28.05.46.21.77.48.42.37.76.84,1.2,1.48.66.94.67.97.84,1.18.44.56.85.97,1.12,1.22.18.05.46.13.8.26.58.23.66.33,1.05.44.28.08.57.1,1.14.13.46.03.79.02,1.13,0,.57-.01.78-.05.98-.1.17-.04.36-.1.57-.23.22-.14.3-.26.52-.49.28-.28.45-.45.69-.59.46-.27.99-.29,1.21-.3.3-.01.37.03.59-.03.27-.08.3-.18.66-.36.33-.16.59-.21.75-.25.34-.07.53-.1.7,0,.05.03.24.15.27.35.02.09,0,.15.05.2.06.05.13,0,.23,0,.21.02.34.29.39.39.02.04.15.31.07.38-.07.06-.21-.08-.44-.03-.03,0-.16.03-.17.1-.02.08.11.14.09.19-.03.07-.4-.09-.52.04-.04.05,0,.08-.03.22-.04.22-.16.26-.18.43-.01.11.03.13.08.33.06.24.08.54.01.57-.08.03-.21-.44-.45-.44-.14,0-.29.16-.32.32-.04.2.06.41.26.52.02.18.04.36.06.55-.01.2-.03.4-.04.6-.15-.23-.3-.46-.45-.69.07.27.12.51.14.7.02.19.03.37.04.74,0,.34,0,.52-.06.54-.06.02-.14-.14-.2-.12-.05.02-.03.12-.04.28,0,.21-.02.5-.14.56-.09.04-.16-.08-.25-.05-.12.04-.11.26-.22.65-.08.26-.15.5-.28.52-.12.02-.16-.15-.28-.14-.22.02-.15.64-.56.9-.14.09-.39.17-.66.14-.17-.02-.26-.07-.32-.02-.1.09.07.3.06.62-.01.29-.17.5-.42.82-.1.14-.26.32-.48.5-.29.18-.58.36-.88.54-.28.06-.56.12-.84.18-1.28.78-2.1,1.71-2.37,2.41-.15.37-.36,1.21-.16,1.48.01.02.11.15.07.21-.03.04-.12-.01-.17.03-.11.07-.04.4.09.73.19.46.43.69.38.74-.04.04-.3-.05-.48-.22-.06-.06-.13-.14-.19-.12-.04.01-.05.07-.08.12-.08.14-.25.19-.43.25-.14.04-.19.04-.4.07-.44.07-.62.16-.65.11-.03-.05.2-.22.36-.32.21-.13.4-.19.4-.2,0,0-.24.09-.48.17-.38.13-.65.22-.67.18-.03-.06.41-.35.44-.37.36-.23.47-.23.64-.38.14-.13.21-.32.34-.7.18-.52.11-.54.31-1.72.01-.08.04-.23,0-.25-.08-.04-.32.31-.36.37-.2.29-.23.45-.45.99-.14.34-.36.85-.24.93.02.02.07.01.11.06.03.04.06.1.05.15-.03.11-.24.06-.34.17-.1.11-.04.3.02.51.05.16.17.58.49.69.07.02.14.04.14.06,0,.03-.15.08-.28.04-.15-.04-.17-.16-.38-.3-.08-.05-.14-.08-.19-.1-.03.05-.08.12-.11.21-.06.16-.02.24-.08.31-.06.07-.15.07-.36.08-.04,0-.41.02-.66.04-.12.01-.3.04-.52.11-.34.11-.5.25-.54.2-.04-.04.03-.19.12-.3.15-.16.34-.18.34-.2,0-.01-.15.03-.33.06-.19.03-.21.02-.37.04-.24.04-.26.07-.49.11-.1.02-.46.08-.48.02-.02-.06.29-.24.59-.36.45-.18.67-.12,1.18-.26.18-.05.42-.13.69-.27.21-.51.38-.87.51-1.11.02-.04.09-.17.21-.44.18-.38.24-.49.23-.65,0-.18-.09-.31-.14-.39-.22-.35-.49-.3-.89-.71-.22-.23-.27-.37-.28-.43-.03-.14-.01-.25.02-.48.05-.29.09-.31.11-.49.03-.23-.02-.41-.09-.68-.07-.27-.12-.46-.26-.65-.19-.28-.31-.21-.61-.51-.36-.36-.3-.58-.64-.8-.17-.11-.25-.11-.47-.19-.43-.16-.69-.4-1.05-.72-.3-.26-1.08-.99-1.49-2.16-.09-.25-.14-.46-.17-.6-.11-.47-.23-1.02-.11-1.64.02-.1.09-.33.23-.8.15-.51.18-.56.21-.75.01-.11,0-.13.02-.83,0-.32,0-.48,0-.52.04-.43.14-.74.08-.77-.02,0-.03.02-.1.05-.14.07-.28.06-.33.05-.09-.01-.19-.02-.24-.1-.05-.07-.03-.15-.02-.21.02-.1.06-.17.09-.21.05-.07.07-.08.11-.14.03-.06.06-.11.04-.16-.02-.08-.12-.07-.2-.16-.09-.09-.1-.21-.1-.29,0-.08,0-.22.01-.34,0-.05.01-.1-.01-.13-.04-.04-.11-.04-.17-.03-.08,0-.13.03-.3.11-.19.08-.16.06-.22.09-.13.06-.17.1-.2.09Z"/><g id="_1cBJsU"><path class="cls-11" d="m447.25,145.35c-.11-.01-.19.02-.21.13-.02.11-.12.16-.18.24-.23.3-.43.61-.48.99-.01.08-.04.16-.11.21-.08.06-.06.1-.01.17.05.07.09.15.15.24-.2-.01-.35-.2-.32-.36,0-.03.02-.06,0-.08-.16-.3-.03-.58.05-.86.04-.15.09-.29.11-.45.02-.11.05-.23.14-.31.07-.07.07-.17.11-.25.21-.47.49-.9.81-1.3.12-.15.15-.32.19-.49.02-.07,0-.14-.06-.2-.09-.09-.13-.19-.11-.33.02-.15,0-.16-.15-.11-.54.2-1.06.42-1.63.54-.53.11-1.07.16-1.62.1-.22-.02-.45,0-.66-.11-.43-.22-.81-.5-1.13-.87-.36-.42-.65-.88-.95-1.34-.05-.08-.07-.17-.1-.25-.05-.15-.1-.16-.23-.08-.14.09-.28.19-.44.2-.23.02-.44.1-.66.16-.08.02-.17.03-.25-.03-.06-.04-.12,0-.18.02-.13.05-.27.08-.39-.04-.04-.04-.09-.04-.09.03-.01.09-.06.1-.13.1-.14,0-.28.02-.42-.03-.11-.05-.21-.01-.31.03-.08.03-.16.05-.25.04-.09-.01-.22.02-.05-.15-.12.02-.21.02-.27.06-.22.12-.45.08-.68.06-.17-.02-.33.04-.5.02-.29-.04-.58-.1-.87-.11-.21,0-.41-.07-.63-.03-.05,0-.11,0-.16,0-.25-.06-.5-.07-.76-.1-.03,0-.08-.02-.08.03,0,.04.04.04.06.04.09,0,.09.04.06.11-.05.15-.2.25-.21.42-.14,0-.12.23-.29.2-.08-.02-.02.08-.02.09.07.1.06.17-.04.26-.16.16-.32.31-.54.39-.08.03-.15.01-.22,0-.21,0-.41.07-.62.08-.16,0-.31,0-.47-.02-.07,0-.11-.08-.13-.14-.02-.04,0-.1-.07-.11-.03.06.02.13-.03.18-.04,0-.05-.04-.06-.07-.05-.07-.09-.14-.13.01-.01.06-.07.06-.12.05-.43-.03-.86-.07-1.29-.1-.09,0-.15-.09-.24-.09.08-.03.17-.07.25-.1.04-.01.09-.01.09-.06,0-.05-.05-.05-.08-.07-.1-.06-.21-.12-.31-.18-.05-.03-.11-.06-.07-.13.03-.06.09-.07.15-.05.16.07.32.13.49.16.05,0,.12.04.14-.02.02-.05-.04-.08-.07-.11-.14-.17-.27-.33-.41-.5-.02-.03-.05-.05-.04-.09,0-.03.02-.07.04-.09.04-.03.06.02.08.04.18.26.45.41.7.57.05.03.1.08.16.05.06-.04,0-.11,0-.16-.07-.26-.14-.52-.22-.8.11.03.12.1.12.16,0,.07,0,.13.11.14.08.01.14.12.18.2.11.2.27.36.41.53.02.03.06.06.09.02.13-.15.33-.1.49-.18.14-.07.29-.12.44-.16.12-.03.15-.14.18-.24.12-.39.17-.41-.3-.53-.25-.06-.47-.18-.72-.24-.01,0-.04-.01-.04-.02-.03-.19-.19-.13-.3-.15-.27-.06-.5-.21-.72-.38-.02-.02-.05-.04-.04-.07,0-.04.04-.03.07-.04.02,0,.04,0,.06,0,.02,0,.04-.01.05-.02,0-.01,0-.03,0-.03-.18.01-.3-.05-.39-.21-.02-.04-.08-.1-.15-.06-.03.02-.06,0-.08-.02-.31-.22-.57-.48-.69-.86-.12-.4-.05-.77.19-1.11.17-.23.36-.45.59-.61.14-.09.18-.2.26-.32.16-.26.41-.41.72-.42.04,0,.06-.02.07-.05.03-.1.11-.13.2-.13.09,0,.15-.07.22-.11.13-.07.28-.15.44-.14.03,0,.07.03.07,0,0-.16.11-.1.18-.1.07,0,.11-.03.14-.1.09-.24.1-.47.02-.71-.07-.24-.21-.42-.38-.61-.23-.26-.45-.54-.69-.8-.15-.17-.27-.18-.46-.05-.04.03-.08.06-.12.08-.04.02-.08.06-.11,0-.03-.04,0-.09.02-.12.04-.05.09-.09.14-.13.06-.05.09-.11.07-.18-.02-.07-.09-.08-.15-.08-.3-.03-.6-.09-.94-.06.11-.07.18-.13.27-.17.08-.04.07-.08,0-.12-.06-.03-.12-.06-.18-.1-.03-.02-.07-.05-.04-.09.02-.04.05-.05.1-.04.07.02.15.07.21.04.25-.11.48,0,.71.04.32.05.65.04.97.16.25.1.46.23.68.37.28.19.5.48.81.63.07.04.11.11.15.17.07.15.12.31.2.46.06.12.02.28.12.39.14.16.19.36.27.55.04.1.13.1.21.08.26-.1.55-.08.81-.17.07-.03.14,0,.21-.01.34-.05.68-.07,1.01-.14.17-.04.35-.07.5-.18.04-.03.08-.07.14-.07.39-.01.74-.21,1.13-.24.37-.03.73-.11,1.1-.1.18,0,.36,0,.54-.02.15-.02.29.04.44.07.2.05.39.11.59.16.12.03.19-.02.21-.14.11-.64.47-1.15.78-1.69.2-.35.47-.64.79-.89.28-.21.57-.32.92-.36.69-.08,1.36.02,2.02.2.52.14,1.01.36,1.48.64.06.04.1.04.13-.04.03-.08.04-.17.03-.26,0-.1,0-.19.09-.26.13-.11.13-.19.07-.36-.1-.29-.31-.51-.46-.76-.23-.37-.4-.76-.52-1.17-.09-.32-.21-.63-.29-.95-.11-.42,0-.8.23-1.15.04-.06.1-.09.16-.04.05.05,0,.1-.04.13-.03.03-.07.05-.06.09.06.19.04.4.19.56.02.03.05.06.03.09-.08.1.06.21-.02.32-.02.02.04.06.07.08.1.07.15.17.13.29-.01.08.18.24.26.24.07,0,.05-.05.04-.09-.05-.16-.1-.32-.15-.48-.1-.29-.16-.58-.14-.88,0-.18.06-.35.1-.52.02-.08.03-.15.01-.23,0-.04-.03-.11.04-.12.07,0,.08.06.08.11,0,.11.01.22.03.33.04.23.14.44.16.68.02.21.07.42.17.6.07.12.11.27.25.36.05.03.07.13.05.15-.14.13.02.11.06.12.05.01.07.04.03.06-.1.07-.03.12.03.15.11.07.21.14.28.26,0-.1.06-.2,0-.3,0-.01-.01-.03,0-.04.15-.17.07-.4.14-.59.03-.08.09-.11.15-.15.11-.06.18-.14.2-.26.02-.12.13-.11.2-.11.08,0,.11.07.1.15-.02.14,0,.28-.07.41-.05.11,0,.23-.02.34-.04.3.07.55.18.82.16.37.23.77.17,1.17-.02.12.05.22.06.34.04.39-.04.76-.12,1.13-.15.69-.48,1.3-.9,1.85-.23.31-.57.48-.94.59-.55.16-1.1.11-1.64-.05-.15-.04-.31-.09-.46-.13-.08-.02-.13-.01-.11.08.05.26.04.51.02.77-.04.38-.02.76-.07,1.14-.02.13-.05.25-.11.36-.11.2-.07.37.03.54.07.12.09.25.13.38.14.54.32,1.08.35,1.64,0,.17-.05.33-.04.5,0,.12.03.14.15.1.35-.12.69-.24,1.05-.31.53-.1,1.05-.1,1.56.1.32.13.58.34.77.63.19.29.36.59.47.91.2.62.41,1.25.27,1.91-.08.37.03.74-.04,1.11-.05.28-.04.57-.19.83-.07.12-.05.26-.06.39,0,.11,0,.22-.06.32-.04.06,0,.14.03.19.1.16.05.33.08.49,0,.05-.02.06-.07.07-.05,0-.09.02-.12-.04-.08-.15-.16-.3-.26-.44-.22-.3-.23-.64-.26-.98,0-.08,0-.16-.02-.24,0-.03-.02-.07-.06-.07-.03,0-.06.02-.07.05-.1.3-.39.46-.51.76-.06.14-.09.3-.17.44-.07.12-.11.24-.2.35-.01.01-.03.04-.03.04.08.18-.09.29-.11.45-.02.16-.03.32-.04.49,0,.04-.03.07-.07.1-.12-.16-.13-.36-.14-.54-.03-.49.11-.95.29-1.4.03-.08.07-.16.03-.25-.03-.06.03-.08.04-.13Z"/></g><g id="_1cBJsU-2"><path class="cls-25" d="m447.25,218.95c-.11-.01-.19.02-.21.13-.02.11-.12.16-.18.24-.23.3-.43.61-.48.99-.01.08-.04.16-.11.21-.08.06-.06.1-.01.17.05.07.09.15.15.24-.2-.01-.35-.2-.32-.36,0-.03.02-.06,0-.08-.16-.3-.03-.58.05-.86.04-.15.09-.29.11-.45.02-.11.05-.23.14-.31.07-.07.07-.17.11-.25.21-.47.49-.9.81-1.3.12-.15.15-.32.19-.49.02-.07,0-.14-.06-.2-.09-.09-.13-.19-.11-.33.02-.15,0-.16-.15-.11-.54.2-1.06.42-1.63.54-.53.11-1.07.16-1.62.1-.22-.02-.45,0-.66-.11-.43-.22-.81-.5-1.13-.87-.36-.42-.65-.88-.95-1.34-.05-.08-.07-.17-.1-.25-.05-.15-.1-.16-.23-.08-.14.09-.28.19-.44.2-.23.02-.44.1-.66.16-.08.02-.17.03-.25-.03-.06-.04-.12,0-.18.02-.13.05-.27.08-.39-.04-.04-.04-.09-.04-.09.03-.01.09-.06.1-.13.1-.14,0-.28.02-.42-.03-.11-.05-.21-.01-.31.03-.08.03-.16.05-.25.04-.09-.01-.22.02-.05-.15-.12.02-.21.02-.27.06-.22.12-.45.08-.68.06-.17-.02-.33.04-.5.02-.29-.04-.58-.1-.87-.11-.21,0-.41-.07-.63-.03-.05,0-.11,0-.16,0-.25-.06-.5-.07-.76-.1-.03,0-.08-.02-.08.03,0,.04.04.04.06.04.09,0,.09.04.06.11-.05.15-.2.25-.21.42-.14,0-.12.23-.29.2-.08-.02-.02.08-.02.09.07.1.06.17-.04.26-.16.16-.32.31-.54.39-.08.03-.15.01-.22,0-.21,0-.41.07-.62.08-.16,0-.31,0-.47-.02-.07,0-.11-.08-.13-.14-.02-.04,0-.1-.07-.11-.03.06.02.13-.03.18-.04,0-.05-.04-.06-.07-.05-.07-.09-.14-.13.01-.01.06-.07.06-.12.05-.43-.03-.86-.07-1.29-.1-.09,0-.15-.09-.24-.09.08-.03.17-.07.25-.1.04-.01.09-.01.09-.06,0-.05-.05-.05-.08-.07-.1-.06-.21-.12-.31-.18-.05-.03-.11-.06-.07-.13.03-.06.09-.07.15-.05.16.07.32.13.49.16.05,0,.12.04.14-.02.02-.05-.04-.08-.07-.11-.14-.17-.27-.33-.41-.5-.02-.03-.05-.05-.04-.09,0-.03.02-.07.04-.09.04-.03.06.02.08.04.18.26.45.41.7.57.05.03.1.08.16.05.06-.04,0-.11,0-.16-.07-.26-.14-.52-.22-.8.11.03.12.1.12.16,0,.07,0,.13.11.14.08.01.14.12.18.2.11.2.27.36.41.53.02.03.06.06.09.02.13-.15.33-.1.49-.18.14-.07.29-.12.44-.16.12-.03.15-.14.18-.24.12-.39.17-.41-.3-.53-.25-.06-.47-.18-.72-.24-.01,0-.04-.01-.04-.02-.03-.19-.19-.13-.3-.15-.27-.06-.5-.21-.72-.38-.02-.02-.05-.04-.04-.07,0-.04.04-.03.07-.04.02,0,.04,0,.06,0,.02,0,.04-.01.05-.02,0-.01,0-.03,0-.03-.18.01-.3-.05-.39-.21-.02-.04-.08-.1-.15-.06-.03.02-.06,0-.08-.02-.31-.22-.57-.48-.69-.86-.12-.4-.05-.77.19-1.11.17-.23.36-.45.59-.61.14-.09.18-.2.26-.32.16-.26.41-.41.72-.42.04,0,.06-.02.07-.05.03-.1.11-.13.2-.13.09,0,.15-.07.22-.11.13-.07.28-.15.44-.14.03,0,.07.03.07,0,0-.16.11-.1.18-.1.07,0,.11-.03.14-.1.09-.24.1-.47.02-.71-.07-.24-.21-.42-.38-.61-.23-.26-.45-.54-.69-.8-.15-.17-.27-.18-.46-.05-.04.03-.08.06-.12.08-.04.02-.08.06-.11,0-.03-.04,0-.09.02-.12.04-.05.09-.09.14-.13.06-.05.09-.11.07-.18-.02-.07-.09-.08-.15-.08-.3-.03-.6-.09-.94-.06.11-.07.18-.13.27-.17.08-.04.07-.08,0-.12-.06-.03-.12-.06-.18-.1-.03-.02-.07-.05-.04-.09.02-.04.05-.05.1-.04.07.02.15.07.21.04.25-.11.48,0,.71.04.32.05.65.04.97.16.25.1.46.23.68.37.28.19.5.48.81.63.07.04.11.11.15.17.07.15.12.31.2.46.06.12.02.28.12.39.14.16.19.36.27.55.04.1.13.1.21.08.26-.1.55-.08.81-.17.07-.03.14,0,.21-.01.34-.05.68-.07,1.01-.14.17-.04.35-.07.5-.18.04-.03.08-.07.14-.07.39-.01.74-.21,1.13-.24.37-.03.73-.11,1.1-.1.18,0,.36,0,.54-.02.15-.02.29.04.44.07.2.05.39.11.59.16.12.03.19-.02.21-.14.11-.64.47-1.15.78-1.69.2-.35.47-.64.79-.89.28-.21.57-.32.92-.36.69-.08,1.36.02,2.02.2.52.14,1.01.36,1.48.64.06.04.1.04.13-.04.03-.08.04-.17.03-.26,0-.1,0-.19.09-.26.13-.11.13-.19.07-.36-.1-.29-.31-.51-.46-.76-.23-.37-.4-.76-.52-1.17-.09-.32-.21-.63-.29-.95-.11-.42,0-.8.23-1.15.04-.06.1-.09.16-.04.05.05,0,.1-.04.13-.03.03-.07.05-.06.09.06.19.04.4.19.56.02.03.05.06.03.09-.08.1.06.21-.02.32-.02.02.04.06.07.08.1.07.15.17.13.29-.01.08.18.24.26.24.07,0,.05-.05.04-.09-.05-.16-.1-.32-.15-.48-.1-.29-.16-.58-.14-.88,0-.18.06-.35.1-.52.02-.08.03-.15.01-.23,0-.04-.03-.11.04-.12.07,0,.08.06.08.11,0,.11.01.22.03.33.04.23.14.44.16.68.02.21.07.42.17.6.07.12.11.27.25.36.05.03.07.13.05.15-.14.13.02.11.06.12.05.01.07.04.03.06-.1.07-.03.12.03.15.11.07.21.14.28.26,0-.1.06-.2,0-.3,0-.01-.01-.03,0-.04.15-.17.07-.4.14-.59.03-.08.09-.11.15-.15.11-.06.18-.14.2-.26.02-.12.13-.11.2-.11.08,0,.11.07.1.15-.02.14,0,.28-.07.41-.05.11,0,.23-.02.34-.04.3.07.55.18.82.16.37.23.77.17,1.17-.02.12.05.22.06.34.04.39-.04.76-.12,1.13-.15.69-.48,1.3-.9,1.85-.23.31-.57.48-.94.59-.55.16-1.1.11-1.64-.05-.15-.04-.31-.09-.46-.13-.08-.02-.13-.01-.11.08.05.26.04.51.02.77-.04.38-.02.76-.07,1.14-.02.13-.05.25-.11.36-.11.2-.07.37.03.54.07.12.09.25.13.38.14.54.32,1.08.35,1.64,0,.17-.05.33-.04.5,0,.12.03.14.15.1.35-.12.69-.24,1.05-.31.53-.1,1.05-.1,1.56.1.32.13.58.34.77.63.19.29.36.59.47.91.2.62.41,1.25.27,1.91-.08.37.03.74-.04,1.11-.05.28-.04.57-.19.83-.07.12-.05.26-.06.39,0,.11,0,.22-.06.32-.04.06,0,.14.03.19.1.16.05.33.08.49,0,.05-.02.06-.07.07-.05,0-.09.02-.12-.04-.08-.15-.16-.3-.26-.44-.22-.3-.23-.64-.26-.98,0-.08,0-.16-.02-.24,0-.03-.02-.07-.06-.07-.03,0-.06.02-.07.05-.1.3-.39.46-.51.76-.06.14-.09.3-.17.44-.07.12-.11.24-.2.35-.01.01-.03.04-.03.04.08.18-.09.29-.11.45-.02.16-.03.32-.04.49,0,.04-.03.07-.07.1-.12-.16-.13-.36-.14-.54-.03-.49.11-.95.29-1.4.03-.08.07-.16.03-.25-.03-.06.03-.08.04-.13Z"/></g><text class="cls-10" transform="translate(20.09 94.44)"><tspan x="0" y="0">1</tspan></text><text class="cls-10" transform="translate(20.45 212.3)"><tspan x="0" y="0">0</tspan></text><text class="cls-2" transform="translate(216.71 108.25)"><tspan x="0" y="0">...SLE...</tspan></text><path class="cls-16" d="m225.01,85.45c-.59-1.06-4.71-8.24-13.26-9.87-7.37-1.41-15.11,1.87-19.74,8.36"/><g><path class="cls-26" d="m230.64,88.77c-4.65-4.48-10.55-7.59-16.89-8.82-.79-.15-1.62.22-1.85,1.05-.2.74.25,1.69,1.05,1.85,5.86,1.14,11.27,3.91,15.56,8.05,1.39,1.34,3.51-.78,2.12-2.12h0Z"/><path class="cls-26" d="m230.75,87.66c-3.46-4.38-5.19-9.68-5.69-15.19-.07-.81-.64-1.5-1.5-1.5-.75,0-1.57.69-1.5,1.5.28,3.11.83,6.2,1.92,9.14s2.68,5.68,4.65,8.17c.5.64,1.6.53,2.12,0,.63-.63.5-1.48,0-2.12h0Z"/></g><path class="cls-18" d="m309.75,209.58c1.29.04,1.06,4.81,4,6,1.19.48,2.37.17,3,0,3.39-.9,4.04-4.22,6-4,1.01.11,1.91,1.11,2,2,.14,1.41-1.81,2.63-4,4-1.9,1.19-2.86,1.79-4,2-3.53.66-8.25-1.54-9-5-.51-2.35,1-5.03,2-5Z"/><path class="cls-14" d="m334.25,200.08c-10.8,15.84-16.88,18.5-20.5,17.5-4.04-1.12-4.32-6.61-10-11-6.04-4.67-13.9-4.78-20-4"/><g><path class="cls-26" d="m336.13,196.81c-3.67,5.33-5.7,11.68-5.88,18.14-.05,1.93,2.95,1.93,3,0,.17-5.96,2.09-11.72,5.47-16.63,1.1-1.59-1.5-3.1-2.59-1.51h0Z"/><path class="cls-26" d="m335.25,196.57c-3.89,4.27-8.83,6.87-14.37,8.32-1.87.49-1.08,3.38.8,2.89,6.01-1.57,11.48-4.46,15.7-9.09,1.3-1.43-.82-3.55-2.12-2.12h0Z"/></g></g><text class="cls-8" transform="translate(217.63 20.21)"><tspan x="0" y="0">posterior </tspan><tspan x="-7.86" y="28.25">probability</tspan></text></svg>