<?xml version="1.0" encoding="utf-8"?>
<!-- Generator: Adobe Illustrator 27.1.1, SVG Export Plug-In . SVG Version: 6.00 Build 0)  -->
<svg version="1.1" xmlns="http://www.w3.org/2000/svg" xmlns:xlink="http://www.w3.org/1999/xlink" x="0px" y="0px"
	 viewBox="0 0 424.7 379.7" style="enable-background:new 0 0 424.7 379.7;" xml:space="preserve">
<style type="text/css">
	.st0{fill:none;stroke:#646464;stroke-width:0.75;stroke-miterlimit:10;}
	.st1{font-family:'ArialMT';}
	.st2{font-size:12px;}
	.st3{fill:#FFFFFF;stroke:#646464;stroke-miterlimit:10;}
	.st4{font-size:14px;}
	.st5{fill:#853900;}
	.st6{clip-path:url(#SVGID_00000157298663908362015310000017210743575866971803_);fill:#008800;}
	.st7{clip-path:url(#SVGID_00000157298663908362015310000017210743575866971803_);fill:#0071BC;}
	.st8{clip-path:url(#SVGID_00000157298663908362015310000017210743575866971803_);fill:#853900;}
	.st9{clip-path:url(#SVGID_00000129193356019162604360000017435091631365517716_);fill:#008800;}
	.st10{clip-path:url(#SVGID_00000129193356019162604360000017435091631365517716_);fill:#0071BC;}
	.st11{clip-path:url(#SVGID_00000129193356019162604360000017435091631365517716_);fill:#853900;}
	.st12{fill:none;stroke:#000000;stroke-width:0.784;stroke-miterlimit:10;}
	.st13{fill:#FFFFFF;stroke:#FFFFFF;stroke-miterlimit:10;}
	.st14{fill:none;stroke:#646464;stroke-width:0.75;stroke-miterlimit:10;stroke-dasharray:3.0184,3.0184;}
	.st15{fill:#470158;stroke:#470158;stroke-width:0.9164;stroke-linecap:round;stroke-linejoin:round;stroke-miterlimit:10;}
	.st16{fill:#FFD0DE;stroke:#646464;stroke-width:0.9164;stroke-linecap:round;stroke-linejoin:round;stroke-miterlimit:10;}
	.st17{fill:none;stroke:#646464;stroke-width:0.9164;stroke-linecap:round;stroke-linejoin:round;stroke-miterlimit:10;}
</style>
<g id="Layer_1">
	<path class="st0" d="M415.3,179.2H54.9c-4.9,0-9-4-9-9V48.1c0-4.9,4-9,9-9h360.4c4.9,0,9,4,9,9v122.1
		C424.3,175.2,420.3,179.2,415.3,179.2z"/>
	<text transform="matrix(1 0 0 1 62.0203 85.8858)" class="st1 st2">Reciprocal BLAST sequences against seed proteomes;</text>
	<text transform="matrix(1 0 0 1 62.0203 100.8591)" class="st1 st2">keep sequences for which a seed homolog is top hit</text>
	<text transform="matrix(1 0 0 1 62.0203 119.8328)" class="st1 st2">Drop nearly identical sequences within each species</text>
	<text transform="matrix(1 0 0 1 62.0203 142.8067)" class="st1 st2">Sample sequences by taxonomy and alignment quality</text>
	<text transform="matrix(1 0 0 1 62.0203 165.7803)" class="st1 st2">Generate a sequence alignment in Muscle5</text>
	<g>
		<path class="st3" d="M298.3,203.4L42,203.4c-1.2,0-2.1-1-2.1-2.1v-13.9c0-1.2,1-2.1,2.1-2.1l256.2,0.1c1.2,0,2.1,1,2.1,2.1v13.9
			C300.4,202.5,299.4,203.4,298.3,203.4z"/>
		<text transform="matrix(1 0 0 1 43.6817 198.5018)" class="st1 st4">Manually inspect alignment and clean up</text>
	</g>
	<g>
		<g>
			<path class="st5" d="M10.9,104l0.5-1.8 M11.9,102.3l-1.1-0.3l-0.5,1.8l1.1,0.3L11.9,102.3z"/>
			<path class="st5" d="M12,108.4l2.4,0 M14.4,107.8l-2.4,0l0,1.1l2.4,0L14.4,107.8z"/>
			<g>
				<defs>
					<rect id="SVGID_1_" y="93.3" width="40.8" height="40.8"/>
				</defs>
				<clipPath id="SVGID_00000005231351392166431870000014034221556387595917_">
					<use xlink:href="#SVGID_1_"  style="overflow:visible;"/>
				</clipPath>
				<path style="clip-path:url(#SVGID_00000005231351392166431870000014034221556387595917_);fill:#008800;" d="M8.1,99.7
					c0.4-0.5,0.6-1,0.6-1.6c0-0.6-0.2-1.1-0.6-1.6c-0.1-0.6-0.3-1.1-0.7-1.5c-0.4-0.4-0.9-0.6-1.5-0.7c-0.5-0.4-1-0.6-1.6-0.6
					c-0.6,0-1.1,0.2-1.6,0.6c-0.6,0.1-1.1,0.3-1.5,0.7c-0.4,0.4-0.6,0.9-0.7,1.5c-0.4,0.5-0.6,1-0.6,1.6c0,0.6,0.2,1.1,0.6,1.6
					c0.1,0.6,0.3,1.1,0.7,1.5c0.4,0.4,0.9,0.6,1.5,0.7c0.5,0.4,1,0.6,1.6,0.6c0.6,0,1.1-0.2,1.6-0.6c0.6-0.1,1.1-0.3,1.5-0.7
					C7.9,100.8,8.1,100.3,8.1,99.7"/>
				<path style="clip-path:url(#SVGID_00000005231351392166431870000014034221556387595917_);fill:#008800;" d="M40.1,99.9
					c0.4-0.5,0.6-1,0.6-1.6c0-0.6-0.2-1.1-0.6-1.6c-0.1-0.6-0.3-1.1-0.7-1.5c-0.4-0.4-0.9-0.6-1.5-0.7c-0.5-0.4-1-0.6-1.6-0.6
					c-0.6,0-1.1,0.2-1.6,0.6c-0.6,0.1-1.1,0.3-1.5,0.7c-0.4,0.4-0.6,0.9-0.7,1.5c-0.4,0.5-0.6,1-0.6,1.6c0,0.6,0.2,1.1,0.6,1.6
					c0.1,0.6,0.3,1.1,0.7,1.5c0.4,0.4,0.9,0.6,1.5,0.7c0.5,0.4,1,0.6,1.6,0.6c0.6,0,1.1-0.2,1.6-0.6c0.6-0.1,1.1-0.3,1.5-0.7
					S40.1,100.4,40.1,99.9"/>
				<path style="clip-path:url(#SVGID_00000005231351392166431870000014034221556387595917_);fill:#008800;" d="M24.1,99.8
					c0.4-0.5,0.6-1,0.6-1.6c0-0.6-0.2-1.1-0.6-1.6c-0.1-0.6-0.3-1.1-0.7-1.5s-0.9-0.6-1.5-0.7c-0.5-0.4-1-0.6-1.6-0.6
					c-0.6,0-1.1,0.2-1.6,0.6c-0.6,0.1-1.1,0.3-1.5,0.7c-0.4,0.4-0.6,0.9-0.7,1.5c-0.4,0.5-0.6,1-0.6,1.6c0,0.6,0.2,1.1,0.6,1.6
					c0.1,0.6,0.3,1.1,0.7,1.5c0.4,0.4,0.9,0.6,1.5,0.7c0.5,0.4,1,0.6,1.6,0.6c0.6,0,1.1-0.2,1.6-0.6c0.6-0.1,1.1-0.3,1.5-0.7
					C23.9,100.9,24.1,100.4,24.1,99.8"/>
				<path style="clip-path:url(#SVGID_00000005231351392166431870000014034221556387595917_);fill:#008800;" d="M32.2,107.7
					c0.4-0.5,0.6-1,0.6-1.6c0-0.6-0.2-1.1-0.6-1.6c-0.1-0.6-0.3-1.1-0.7-1.5c-0.4-0.4-0.9-0.6-1.5-0.7c-0.5-0.4-1-0.6-1.6-0.6
					c-0.6,0-1.1,0.2-1.6,0.6c-0.6,0.1-1.1,0.3-1.5,0.7c-0.4,0.4-0.6,0.9-0.7,1.5c-0.4,0.5-0.6,1-0.6,1.6c0,0.6,0.2,1.1,0.6,1.6
					c0.1,0.6,0.3,1.1,0.7,1.5c0.4,0.4,0.9,0.6,1.5,0.7c0.5,0.4,1,0.6,1.6,0.6c0.6,0,1.1-0.2,1.6-0.6c0.6-0.1,1.1-0.3,1.5-0.7
					C31.9,108.9,32.1,108.3,32.2,107.7"/>
				<polygon style="clip-path:url(#SVGID_00000005231351392166431870000014034221556387595917_);fill:#0071BC;" points="16.5,133.5 
					13.9,123.7 27,123.7 24.5,133.5 				"/>
				
					<rect x="12.4" y="121.5" style="clip-path:url(#SVGID_00000005231351392166431870000014034221556387595917_);fill:#0071BC;" width="16" height="1.9"/>
				<path style="clip-path:url(#SVGID_00000005231351392166431870000014034221556387595917_);fill:#853900;" d="M25.2,103
					c0.2-0.2,0.4-0.4,0.7-0.5l-1.7-1.8c-0.1,0.3-0.3,0.6-0.5,0.8c-0.2,0.2-0.4,0.4-0.7,0.5l1.7,1.7C24.8,103.5,25,103.2,25.2,103"/>
				<path style="clip-path:url(#SVGID_00000005231351392166431870000014034221556387595917_);fill:#853900;" d="M31.7,103
					c0.2,0.2,0.4,0.4,0.5,0.7l1.7-1.7c-0.2-0.1-0.5-0.3-0.6-0.5c-0.2-0.2-0.4-0.5-0.5-0.8l-1.7,1.7C31.2,102.6,31.4,102.7,31.7,103"
					/>
				<path style="clip-path:url(#SVGID_00000005231351392166431870000014034221556387595917_);fill:#008800;" d="M24.2,115.7
					c0.4-0.5,0.6-1,0.6-1.6c0-0.6-0.2-1.1-0.6-1.6c-0.1-0.6-0.3-1.1-0.7-1.5c-0.4-0.4-0.9-0.6-1.5-0.7c-0.5-0.4-1-0.6-1.6-0.6
					c-0.6,0-1.1,0.2-1.6,0.6c-0.6,0.1-1.1,0.3-1.5,0.7c-0.4,0.4-0.6,0.9-0.7,1.5c-0.4,0.5-0.6,1-0.6,1.6c0,0.6,0.2,1.1,0.6,1.6
					c0.1,0.6,0.3,1.1,0.7,1.5c0.4,0.4,0.9,0.6,1.5,0.7c0.5,0.4,1,0.6,1.6,0.6c0.6,0,1.1-0.2,1.6-0.6c0.6-0.1,1.1-0.3,1.5-0.7
					C23.9,116.9,24.1,116.3,24.2,115.7"/>
				<path style="clip-path:url(#SVGID_00000005231351392166431870000014034221556387595917_);fill:#853900;" d="M23.6,111
					c0.2,0.2,0.4,0.5,0.5,0.7l1.8-1.8c-0.3-0.1-0.5-0.3-0.7-0.5c-0.2-0.2-0.4-0.5-0.5-0.8l-1.8,1.8C23.2,110.6,23.4,110.7,23.6,111"
					/>
				<path style="clip-path:url(#SVGID_00000005231351392166431870000014034221556387595917_);fill:#853900;" d="M20.4,118.8
					c-0.3,0-0.6-0.1-0.9-0.2l0,2.7l1.8,0l0-2.7C21,118.7,20.7,118.8,20.4,118.8"/>
				<path style="clip-path:url(#SVGID_00000005231351392166431870000014034221556387595917_);fill:#853900;" d="M8.2,100.6
					c-0.1,0.3-0.3,0.7-0.6,0.9c-0.2,0.2-0.4,0.3-0.6,0.4l9.7,9.7c0.1-0.2,0.3-0.4,0.5-0.6c0.2-0.2,0.5-0.4,0.9-0.5L8.2,100.6z"/>
			</g>
		</g>
	</g>
	<text transform="matrix(1 0 0 1 62.0203 245.0191)" class="st1 st2">Identify maximum likelihood phylogenetic model, RAxML-NG</text>
	<text transform="matrix(1 0 0 1 62.0203 267.5004)" class="st1 st2">Construct maximum likelihood phylogenetic tree, RAxML-NG</text>
	<text transform="matrix(1 0 0 1 62.0203 289.981)" class="st1 st2">Reconcile gene and species trees, GeneRax</text>
	<text transform="matrix(1 0 0 1 62.0203 312.4612)" class="st1 st2">Reconstruct ancestral protein sequences, RAxML-NG</text>
	<g>
		<path class="st3" d="M339.3,375.6L42,375.5c-1.2,0-2.1-1-2.1-2.1v-13.9c0-1.2,1-2.1,2.1-2.1l297.2,0.1c1.2,0,2.1,1,2.1,2.1v13.9
			C341.4,374.7,340.4,375.6,339.3,375.6z"/>
		<text transform="matrix(1 0 0 1 43.1622 371.2429)" class="st1 st4">Characterize high-quality, informative ancestors</text>
	</g>
	<g>
		<g>
			<path class="st5" d="M10.9,267.5l0.5-1.8 M11.9,265.8l-1.1-0.3l-0.5,1.8l1.1,0.3L11.9,265.8z"/>
			<path class="st5" d="M12,271.9l2.4,0 M14.4,271.3l-2.4,0l0,1.1l2.4,0L14.4,271.3z"/>
			<g>
				<defs>
					<rect id="SVGID_00000181051666997443345690000014907279794570733241_" y="256.8" width="40.8" height="40.8"/>
				</defs>
				<clipPath id="SVGID_00000072997663827036295280000004708070077118372266_">
					<use xlink:href="#SVGID_00000181051666997443345690000014907279794570733241_"  style="overflow:visible;"/>
				</clipPath>
				<path style="clip-path:url(#SVGID_00000072997663827036295280000004708070077118372266_);fill:#008800;" d="M8.1,263.2
					c0.4-0.5,0.6-1,0.6-1.6c0-0.6-0.2-1.1-0.6-1.6c-0.1-0.6-0.3-1.1-0.7-1.5c-0.4-0.4-0.9-0.6-1.5-0.7c-0.5-0.4-1-0.6-1.6-0.6
					c-0.6,0-1.1,0.2-1.6,0.6c-0.6,0.1-1.1,0.3-1.5,0.7c-0.4,0.4-0.6,0.9-0.7,1.5c-0.4,0.5-0.6,1-0.6,1.6c0,0.6,0.2,1.1,0.6,1.6
					c0.1,0.6,0.3,1.1,0.7,1.5c0.4,0.4,0.9,0.6,1.5,0.7c0.5,0.4,1,0.6,1.6,0.6c0.6,0,1.1-0.2,1.6-0.6c0.6-0.1,1.1-0.3,1.5-0.7
					C7.9,264.4,8.1,263.8,8.1,263.2"/>
				<path style="clip-path:url(#SVGID_00000072997663827036295280000004708070077118372266_);fill:#008800;" d="M40.1,263.4
					c0.4-0.5,0.6-1,0.6-1.6c0-0.6-0.2-1.1-0.6-1.6c-0.1-0.6-0.3-1.1-0.7-1.5c-0.4-0.4-0.9-0.6-1.5-0.7c-0.5-0.4-1-0.6-1.6-0.6
					c-0.6,0-1.1,0.2-1.6,0.6c-0.6,0.1-1.1,0.3-1.5,0.7c-0.4,0.4-0.6,0.9-0.7,1.5c-0.4,0.5-0.6,1-0.6,1.6c0,0.6,0.2,1.1,0.6,1.6
					c0.1,0.6,0.3,1.1,0.7,1.5c0.4,0.4,0.9,0.6,1.5,0.7c0.5,0.4,1,0.6,1.6,0.6c0.6,0,1.1-0.2,1.6-0.6c0.6-0.1,1.1-0.3,1.5-0.7
					C39.9,264.5,40.1,264,40.1,263.4"/>
				<path style="clip-path:url(#SVGID_00000072997663827036295280000004708070077118372266_);fill:#008800;" d="M24.1,263.3
					c0.4-0.5,0.6-1,0.6-1.6c0-0.6-0.2-1.1-0.6-1.6c-0.1-0.6-0.3-1.1-0.7-1.5s-0.9-0.6-1.5-0.7c-0.5-0.4-1-0.6-1.6-0.6
					c-0.6,0-1.1,0.2-1.6,0.6c-0.6,0.1-1.1,0.3-1.5,0.7c-0.4,0.4-0.6,0.9-0.7,1.5c-0.4,0.5-0.6,1-0.6,1.6c0,0.6,0.2,1.1,0.6,1.6
					c0.1,0.6,0.3,1.1,0.7,1.5c0.4,0.4,0.9,0.6,1.5,0.7c0.5,0.4,1,0.6,1.6,0.6c0.6,0,1.1-0.2,1.6-0.6c0.6-0.1,1.1-0.3,1.5-0.7
					C23.9,264.4,24.1,263.9,24.1,263.3"/>
				<path style="clip-path:url(#SVGID_00000072997663827036295280000004708070077118372266_);fill:#008800;" d="M32.2,271.3
					c0.4-0.5,0.6-1,0.6-1.6c0-0.6-0.2-1.1-0.6-1.6c-0.1-0.6-0.3-1.1-0.7-1.5c-0.4-0.4-0.9-0.6-1.5-0.7c-0.5-0.4-1-0.6-1.6-0.6
					c-0.6,0-1.1,0.2-1.6,0.6c-0.6,0.1-1.1,0.3-1.5,0.7c-0.4,0.4-0.6,0.9-0.7,1.5c-0.4,0.5-0.6,1-0.6,1.6c0,0.6,0.2,1.1,0.6,1.6
					c0.1,0.6,0.3,1.1,0.7,1.5c0.4,0.4,0.9,0.6,1.5,0.7c0.5,0.4,1,0.6,1.6,0.6c0.6,0,1.1-0.2,1.6-0.6c0.6-0.1,1.1-0.3,1.5-0.7
					C31.9,272.4,32.1,271.9,32.2,271.3"/>
				<polygon style="clip-path:url(#SVGID_00000072997663827036295280000004708070077118372266_);fill:#0071BC;" points="16.5,297 
					13.9,287.2 27,287.2 24.5,297 				"/>
				
					<rect x="12.4" y="285.1" style="clip-path:url(#SVGID_00000072997663827036295280000004708070077118372266_);fill:#0071BC;" width="16" height="1.9"/>
				<path style="clip-path:url(#SVGID_00000072997663827036295280000004708070077118372266_);fill:#853900;" d="M25.2,266.5
					c0.2-0.2,0.4-0.4,0.7-0.5l-1.7-1.8c-0.1,0.3-0.3,0.6-0.5,0.8c-0.2,0.2-0.4,0.4-0.7,0.5l1.7,1.7C24.8,267,25,266.7,25.2,266.5"/>
				<path style="clip-path:url(#SVGID_00000072997663827036295280000004708070077118372266_);fill:#853900;" d="M31.7,266.5
					c0.2,0.2,0.4,0.4,0.5,0.7l1.7-1.7c-0.2-0.1-0.5-0.3-0.6-0.5c-0.2-0.2-0.4-0.5-0.5-0.8l-1.7,1.7
					C31.2,266.1,31.4,266.3,31.7,266.5"/>
				<path style="clip-path:url(#SVGID_00000072997663827036295280000004708070077118372266_);fill:#008800;" d="M24.2,279.3
					c0.4-0.5,0.6-1,0.6-1.6c0-0.6-0.2-1.1-0.6-1.6c-0.1-0.6-0.3-1.1-0.7-1.5c-0.4-0.4-0.9-0.6-1.5-0.7c-0.5-0.4-1-0.6-1.6-0.6
					c-0.6,0-1.1,0.2-1.6,0.6c-0.6,0.1-1.1,0.3-1.5,0.7c-0.4,0.4-0.6,0.9-0.7,1.5c-0.4,0.5-0.6,1-0.6,1.6c0,0.6,0.2,1.1,0.6,1.6
					c0.1,0.6,0.3,1.1,0.7,1.5c0.4,0.4,0.9,0.6,1.5,0.7c0.5,0.4,1,0.6,1.6,0.6c0.6,0,1.1-0.2,1.6-0.6c0.6-0.1,1.1-0.3,1.5-0.7
					C23.9,280.4,24.1,279.9,24.2,279.3"/>
				<path style="clip-path:url(#SVGID_00000072997663827036295280000004708070077118372266_);fill:#853900;" d="M23.6,274.5
					c0.2,0.2,0.4,0.5,0.5,0.7l1.8-1.8c-0.3-0.1-0.5-0.3-0.7-0.5c-0.2-0.2-0.4-0.5-0.5-0.8l-1.8,1.8
					C23.2,274.1,23.4,274.3,23.6,274.5"/>
				<path style="clip-path:url(#SVGID_00000072997663827036295280000004708070077118372266_);fill:#853900;" d="M20.4,282.3
					c-0.3,0-0.6-0.1-0.9-0.2l0,2.7l1.8,0l0-2.7C21,282.2,20.7,282.3,20.4,282.3"/>
				<path style="clip-path:url(#SVGID_00000072997663827036295280000004708070077118372266_);fill:#853900;" d="M8.2,264.1
					c-0.1,0.3-0.3,0.7-0.6,0.9c-0.2,0.2-0.4,0.3-0.6,0.4l9.7,9.7c0.1-0.2,0.3-0.4,0.5-0.6c0.2-0.2,0.5-0.4,0.9-0.5L8.2,264.1z"/>
			</g>
		</g>
	</g>
	<path class="st3" d="M144.7,46.5H42c-1.2,0-2.1-1-2.1-2.1V30.5c0-1.2,1-2.1,2.1-2.1h102.7c1.2,0,2.1,1,2.1,2.1v13.9
		C146.8,45.5,145.9,46.5,144.7,46.5z"/>
	<text transform="matrix(1 0 0 1 45.8936 42.1412)" class="st1 st4">Construct MSA</text>
	<path class="st0" d="M415.3,348.5H54.9c-4.9,0-9-4-9-9V229.3c0-4.9,4-9,9-9h360.4c4.9,0,9,4,9,9v110.1
		C424.3,344.4,420.3,348.5,415.3,348.5z"/>
	<path class="st3" d="M209.7,229.7H42c-1.2,0-2.1-1-2.1-2.1v-13.9c0-1.2,1-2.1,2.1-2.1h167.7c1.2,0,2.1,1,2.1,2.1v13.9
		C211.8,228.8,210.9,229.7,209.7,229.7z"/>
	<text transform="matrix(1 0 0 1 43.6818 225.3662)" class="st1 st4">Construct tree &amp; ancestors</text>
	<circle class="st12" cx="55.8" cy="81.7" r="2.3"/>
	<circle class="st12" cx="55.8" cy="115.6" r="2.3"/>
	<circle class="st12" cx="55.8" cy="138.6" r="2.3"/>
	<circle class="st12" cx="55.8" cy="161.6" r="2.3"/>
	<circle class="st12" cx="55.8" cy="241.8" r="2.3"/>
	<circle class="st12" cx="55.8" cy="264" r="2.3"/>
	<circle class="st12" cx="55.8" cy="286.3" r="2.3"/>
	<circle class="st12" cx="55.8" cy="308.5" r="2.3"/>
	<text transform="matrix(1 0 0 1 62.0203 62.912)" class="st1 st2">BLAST seed homologs against protein database</text>
	<circle class="st12" cx="55.8" cy="58.7" r="2.3"/>
	<text transform="matrix(1 0 0 1 406.5332 245.019)" class="st1 st2">1</text>
	<text transform="matrix(1 0 0 1 403.1963 266.8992)" class="st1 st2">10</text>
	<text transform="matrix(1 0 0 1 406.5332 291.634)" class="st1 st2">5</text>
	<text transform="matrix(1 0 0 1 406.5332 314.0157)" class="st1 st2">1</text>
	<text transform="matrix(1 0 0 1 62.0203 334.9419)" class="st1 st2">Bootstrap branch supports, RAxML-NG/GeneRax</text>
	<circle class="st12" cx="55.8" cy="330.7" r="2.3"/>
	<text transform="matrix(1 0 0 1 399.8595 334.9418)" class="st1 st2">150</text>
	<text transform="matrix(1 0 0 1 406.5335 197.5998)" class="st1 st2">1</text>
	<text transform="matrix(1 0 0 1 400.9477 32.2743)" class="st1 st2">~hr</text>
	<text transform="matrix(1 0 0 1 406.5336 116.8804)" class="st1 st2">1</text>
	<g>
		<path class="st13" d="M388.2,46.5h-72.7c-1.2,0-2.1-1-2.1-2.1V30.5c0-1.2,1-2.1,2.1-2.1h72.7c1.2,0,2.1,1,2.1,2.1v13.9
			C390.3,45.5,389.4,46.5,388.2,46.5z"/>
		<text transform="matrix(1 0 0 1 316.0848 42.1412)" class="st1 st4">User laptop</text>
	</g>
	<g>
		<path class="st13" d="M388.2,229.4h-45.7c-1.2,0-2.1-1-2.1-2.1v-13.9c0-1.2,1-2.1,2.1-2.1h45.7c1.2,0,2.1,1,2.1,2.1v13.9
			C390.3,228.5,389.4,229.4,388.2,229.4z"/>
		<text transform="matrix(1 0 0 1 343.1366 225.0788)" class="st1 st4">Cluster</text>
	</g>
	<g>
		<g>
			<line class="st0" x1="394.7" y1="20.9" x2="394.7" y2="22.4"/>
			<line class="st14" x1="394.7" y1="25.5" x2="394.7" y2="374.1"/>
			<line class="st0" x1="394.7" y1="375.6" x2="394.7" y2="377.1"/>
		</g>
	</g>
	<text transform="matrix(1 0 0 1 400.1964 370.7099)" class="st1 st2">10k</text>
	<path class="st3" d="M328.3,19.3L42,19.3c-1.2,0-2.1-1-2.1-2.1V3.2c0-1.2,1-2.1,2.1-2.1l286.2,0.1c1.2,0,2.1,1,2.1,2.1v13.9
		C330.4,18.4,329.4,19.3,328.3,19.3z"/>
	<text transform="matrix(1 0 0 1 43.6818 13.965)" class="st1 st4">What functions, homologs, taxonomic scope? </text>
</g>
<g id="Layer_2">
	<g>
		<path class="st15" d="M23.2,26c1.9,0,2.9,0,2.9,0s0-5.6,1.9-7.5c-4.6,1.3-1.9-0.3-7.6-0.3C21.9,19.6,23.2,21.8,23.2,26z"/>
		<path class="st16" d="M33.3,10.6c-0.2-1.4-1-2.6-2.1-3.4c0,0,0,0,0,0C30.8,4.6,28.5,2.8,26,3c-1-1.7-3-2.8-5-2.5
			c-1.2,0.2-2.3,0.8-3,1.7c-0.7-0.2-1.5-0.3-2.3-0.2c-1.5,0.2-2.7,1.1-3.5,2.2C10.2,4.6,8.7,6,8.3,7.8C7.1,8.4,6.5,9.6,6.7,11
			c0.2,1.3,1.2,2.3,2.4,2.6c0.5,1.4,1.9,2.3,3.4,2.1c0.1,0,0.2,0,0.2-0.1c1.1,1.4,2.8,2.1,4.6,1.9c0.7,0.6,1.6,1,2.6,0.8
			c0.5-0.1,0.9-0.2,1.2-0.5c0.6,0.1,1.2,0.2,1.8,0.1c0.2,0,0.3-0.1,0.5-0.1c1,0.7,2.3,1.1,3.6,0.9c1.1-0.2,2.1-0.7,2.8-1.4
			c0.1,0,0.2,0,0.2,0c1.7-0.2,2.9-1.8,2.7-3.5c0,0,0,0,0,0C33.2,12.8,33.4,11.7,33.3,10.6z"/>
		<path class="st17" d="M10.9,11.6c-0.8-0.6-1.1-1.5-0.5-2.3c0.6-0.8,1.9-1.1,2.8,0.2"/>
		<path class="st17" d="M25.1,16.5c-1.7,0.9-3.6,1.1-5.5,0.5c-1.9-0.7-3.2-2-2.8-3"/>
		<path class="st17" d="M28.4,3.5c-1.2-0.7-3.4-0.2-3.9,1l0,0C23,3.6,21.4,4.2,21,5.2l0,0c-1.4-2.3-4.5-0.9-4.1,1.8
			c-1.4-1.3-3.7-0.1-2.6,1.2"/>
		<path class="st17" d="M19.2,12.3c1.4,2.7,3.4,0.4,3.5-0.6c0-0.2,3.6,1.4,3.3-2.2c1.9,0.3,2.4-3-0.3-2.5"/>
		<path class="st17" d="M23.2,8.1c-3.2-3.6-4.2,2-4.2,2s-4.6-3.2-5.1,2.5c-1.4,0.5-1.5,1.8-1.1,2.7"/>
		<path class="st17" d="M28.2,12.4c0,0.4,0.2,1-0.5,1.7C27,14.9,26,15.4,25.3,14"/>
		<path class="st17" d="M32.8,13c-0.7,0.7-1.6,1.6-2.7,1.7"/>
		<path class="st17" d="M31.1,7.2c0.2,1.1,0,1.5-0.6,2.1"/>
		<path class="st17" d="M7.6,8.3c0.6-0.5,1.5-0.5,2.2,0"/>
		<path class="st17" d="M17,2c1.2,0.1,1,0.2,1.5,0.7"/>
	</g>
	<g>
		<path class="st15" d="M23.2,207.1c1.9,0,2.9,0,2.9,0s0-5.6,1.9-7.5c-4.6,1.3-1.9-0.3-7.6-0.3C21.9,200.8,23.2,202.9,23.2,207.1z"
			/>
		<path class="st16" d="M33.3,191.7c-0.2-1.4-1-2.6-2.1-3.4c0,0,0,0,0,0c-0.4-2.6-2.7-4.4-5.3-4.3c-1-1.7-3-2.8-5-2.5
			c-1.2,0.2-2.3,0.8-3,1.7c-0.7-0.2-1.5-0.3-2.3-0.2c-1.5,0.2-2.7,1.1-3.5,2.2c-1.9,0.4-3.4,1.8-3.9,3.6c-1.1,0.6-1.8,1.9-1.6,3.2
			c0.2,1.3,1.2,2.3,2.4,2.6c0.5,1.4,1.9,2.3,3.4,2.1c0.1,0,0.2,0,0.2-0.1c1.1,1.4,2.8,2.1,4.6,1.9c0.7,0.6,1.6,1,2.6,0.8
			c0.5-0.1,0.9-0.2,1.2-0.5c0.6,0.1,1.2,0.2,1.8,0.1c0.2,0,0.3-0.1,0.5-0.1c1,0.7,2.3,1.1,3.6,0.9c1.1-0.2,2.1-0.7,2.8-1.4
			c0.1,0,0.2,0,0.2,0c1.7-0.2,2.9-1.8,2.7-3.5c0,0,0,0,0,0C33.2,193.9,33.4,192.8,33.3,191.7z"/>
		<path class="st17" d="M10.9,192.7c-0.8-0.6-1.1-1.5-0.5-2.3c0.6-0.8,1.9-1.1,2.8,0.2"/>
		<path class="st17" d="M25.1,197.6c-1.7,0.9-3.6,1.1-5.5,0.5c-1.9-0.7-3.2-2-2.8-3"/>
		<path class="st17" d="M28.4,184.6c-1.2-0.7-3.4-0.2-3.9,1l0,0c-1.5-0.9-3.1-0.3-3.5,0.7l0,0c-1.4-2.3-4.5-0.9-4.1,1.8
			c-1.4-1.3-3.7-0.1-2.6,1.2"/>
		<path class="st17" d="M19.2,193.4c1.4,2.7,3.4,0.4,3.5-0.6c0-0.2,3.6,1.4,3.3-2.2c1.9,0.3,2.4-3-0.3-2.5"/>
		<path class="st17" d="M23.2,189.2c-3.2-3.6-4.2,2-4.2,2s-4.6-3.2-5.1,2.5c-1.4,0.5-1.5,1.8-1.1,2.7"/>
		<path class="st17" d="M28.2,193.5c0,0.4,0.2,1-0.5,1.7s-1.7,1.3-2.4-0.1"/>
		<path class="st17" d="M32.8,194.1c-0.7,0.7-1.6,1.6-2.7,1.7"/>
		<path class="st17" d="M31.1,188.4c0.2,1.1,0,1.5-0.6,2.1"/>
		<path class="st17" d="M7.6,189.4c0.6-0.5,1.5-0.5,2.2,0"/>
		<path class="st17" d="M17,183.1c1.2,0.1,1,0.2,1.5,0.7"/>
	</g>
	<g>
		<path class="st15" d="M23.2,379.3c1.9,0,2.9,0,2.9,0s0-5.6,1.9-7.5c-4.6,1.3-1.9-0.3-7.6-0.3C21.9,372.9,23.2,375.1,23.2,379.3z"
			/>
		<path class="st16" d="M33.3,363.9c-0.2-1.4-1-2.6-2.1-3.4c0,0,0,0,0,0c-0.4-2.6-2.7-4.4-5.3-4.3c-1-1.7-3-2.8-5-2.5
			c-1.2,0.2-2.3,0.8-3,1.7c-0.7-0.2-1.5-0.3-2.3-0.2c-1.5,0.2-2.7,1.1-3.5,2.2c-1.9,0.4-3.4,1.8-3.9,3.6c-1.1,0.6-1.8,1.9-1.6,3.2
			c0.2,1.3,1.2,2.3,2.4,2.6c0.5,1.4,1.9,2.3,3.4,2.1c0.1,0,0.2,0,0.2-0.1c1.1,1.4,2.8,2.1,4.6,1.9c0.7,0.6,1.6,1,2.6,0.8
			c0.5-0.1,0.9-0.2,1.2-0.5c0.6,0.1,1.2,0.2,1.8,0.1c0.2,0,0.3-0.1,0.5-0.1c1,0.7,2.3,1.1,3.6,0.9c1.1-0.2,2.1-0.7,2.8-1.4
			c0.1,0,0.2,0,0.2,0c1.7-0.2,2.9-1.8,2.7-3.5c0,0,0,0,0,0C33.2,366.1,33.4,365,33.3,363.9z"/>
		<path class="st17" d="M10.9,364.9c-0.8-0.6-1.1-1.5-0.5-2.3c0.6-0.8,1.9-1.1,2.8,0.2"/>
		<path class="st17" d="M25.1,369.8c-1.7,0.9-3.6,1.1-5.5,0.5c-1.9-0.7-3.2-2-2.8-3"/>
		<path class="st17" d="M28.4,356.8c-1.2-0.7-3.4-0.2-3.9,1l0,0c-1.5-0.9-3.1-0.3-3.5,0.7l0,0c-1.4-2.3-4.5-0.9-4.1,1.8
			c-1.4-1.3-3.7-0.1-2.6,1.2"/>
		<path class="st17" d="M19.2,365.6c1.4,2.7,3.4,0.4,3.5-0.6c0-0.2,3.6,1.4,3.3-2.2c1.9,0.3,2.4-3-0.3-2.5"/>
		<path class="st17" d="M23.2,361.4c-3.2-3.6-4.2,2-4.2,2s-4.6-3.2-5.1,2.5c-1.4,0.5-1.5,1.8-1.1,2.7"/>
		<path class="st17" d="M28.2,365.7c0,0.4,0.2,1-0.5,1.7c-0.7,0.7-1.7,1.3-2.4-0.1"/>
		<path class="st17" d="M32.8,366.3c-0.7,0.7-1.6,1.6-2.7,1.7"/>
		<path class="st17" d="M31.1,360.5c0.2,1.1,0,1.5-0.6,2.1"/>
		<path class="st17" d="M7.6,361.5c0.6-0.5,1.5-0.5,2.2,0"/>
		<path class="st17" d="M17,355.2c1.2,0.1,1,0.2,1.5,0.7"/>
	</g>
</g>
</svg>
